<svg width="150" height="150" viewBox="0 0 150 150" fill="none" xmlns="http://www.w3.org/2000/svg">
<g filter="url(#filter0_i_1240_554)">
<path fill-rule="evenodd" clip-rule="evenodd" d="M58.1668 127.832L58.173 127.837L58.1791 127.843L58.2001 127.862C58.239 127.898 58.31 127.963 58.4116 128.052C58.615 128.231 58.9392 128.506 59.3724 128.847C60.2427 129.532 61.5302 130.461 63.1425 131.392C66.4173 133.281 70.7283 135 75.4566 135C80.1849 135 84.4959 133.281 87.7708 131.392C89.3831 130.461 90.6706 129.532 91.5409 128.847C91.9741 128.506 92.2982 128.231 92.5017 128.052C92.6033 127.963 92.6742 127.898 92.7132 127.862L92.7342 127.843H58.1791L92.7464 127.832C94.9036 125.772 98.3218 125.844 100.391 127.996C102.464 130.152 102.397 133.581 100.241 135.654L96.4862 131.75C100.241 135.654 100.235 135.66 100.235 135.66L100.229 135.666L100.214 135.68L100.173 135.719L100.051 135.832C99.952 135.923 99.8176 136.045 99.6493 136.193C99.3129 136.488 98.8391 136.89 98.2395 137.361C97.0445 138.301 95.3277 139.539 93.1847 140.775C88.949 143.219 82.7452 145.833 75.4566 145.833C68.168 145.833 61.9643 143.219 57.7285 140.775C55.5855 139.539 53.8688 138.301 52.6737 137.361C52.0742 136.89 51.6004 136.488 51.264 136.193C51.0957 136.045 50.9613 135.923 50.8623 135.832L50.7405 135.719L50.6997 135.68L50.6844 135.666L50.6781 135.66L50.6726 135.654C48.5162 133.581 48.4491 130.152 50.5227 127.996C52.5915 125.844 56.0096 125.772 58.1668 127.832Z" fill="#ECE9F1" fill-opacity="0.8"/>
<path fill-rule="evenodd" clip-rule="evenodd" d="M24.9766 54.5863C24.9766 27.1059 47.6795 5 75.4566 5C84.3815 5 92.7825 7.28201 100.075 11.2911C97.9387 14.0419 96.6667 17.4974 96.6667 21.25C96.6667 30.2246 103.942 37.5 112.917 37.5C116.191 37.5 119.239 36.5316 121.79 34.8657C124.457 40.9027 125.937 47.5687 125.937 54.5852V56.6389C125.937 59.6676 127.667 64.3091 130.889 69.8927L131.017 70.1136C133.744 74.8392 135.971 78.6981 137.476 81.9386C139.019 85.2643 140.091 88.52 139.994 92.0028C139.851 97.1322 137.606 102.489 134.066 106.215C129.885 110.615 124.85 112.024 118.357 113.842L117.489 114.085C106.132 117.275 91.8991 119.833 75.4566 119.833C58.2379 119.833 43.442 117.028 31.8344 113.629L31.0337 113.395C24.7436 111.559 19.8506 110.131 15.7064 105.632C12.2966 101.931 10.0319 96.2338 10.0003 91.2076C9.97878 87.7792 10.9999 84.6964 12.516 81.5626C13.9629 78.5718 16.0805 75.11 18.6289 70.9439L18.7683 70.716C20.6669 67.6118 22.2781 64.6549 23.3984 62.069C24.5739 59.3558 24.9766 57.5691 24.9766 56.6389V54.5863Z" fill="#ECE9F1" fill-opacity="0.8"/>
<path d="M123.75 21.25C123.75 27.2331 118.9 32.0833 112.917 32.0833C106.934 32.0833 102.083 27.2331 102.083 21.25C102.083 15.2669 106.934 10.4167 112.917 10.4167C118.9 10.4167 123.75 15.2669 123.75 21.25Z" fill="#ECE9F1" fill-opacity="0.8"/>
</g>
<defs>
<filter id="filter0_i_1240_554" x="0" y="0" width="175" height="160" filterUnits="userSpaceOnUse" color-interpolation-filters="sRGB">
<feFlood flood-opacity="0" result="BackgroundImageFix"/>
<feBlend mode="normal" in="SourceGraphic" in2="BackgroundImageFix" result="shape"/>
<feColorMatrix in="SourceAlpha" type="matrix" values="0 0 0 0 0 0 0 0 0 0 0 0 0 0 0 0 0 0 127 0" result="hardAlpha"/>
<feOffset dx="25" dy="10"/>
<feGaussianBlur stdDeviation="15"/>
<feComposite in2="hardAlpha" operator="arithmetic" k2="-1" k3="1"/>
<feColorMatrix type="matrix" values="0 0 0 0 0.337255 0 0 0 0 0.137255 0 0 0 0 0.847059 0 0 0 1 0"/>
<feBlend mode="normal" in2="shape" result="effect1_innerShadow_1240_554"/>
</filter>
</defs>
</svg>
