<svg width="150" height="150" viewBox="0 0 150 150" fill="none" xmlns="http://www.w3.org/2000/svg">
<g filter="url(#filter0_i_1240_514)">
<path fill-rule="evenodd" clip-rule="evenodd" d="M10 48.1016C10 29.4506 25.4796 14 45 14H105C124.52 14 140 29.4506 140 48.1016V77.1076C140 95.7586 124.52 111.209 105 111.209H77.4031L58.3249 133.644C53.5839 139.219 45 135.432 45 129.137V111.405C45 111.302 44.9655 111.241 44.9389 111.209C25.4473 111.177 10 95.7392 10 77.1076V48.1016ZM40 51.6294C40 49.0316 42.2386 46.9257 45 46.9257H105C107.761 46.9257 110 49.0316 110 51.6294C110 54.2271 107.761 56.333 105 56.333H45C42.2386 56.333 40 54.2271 40 51.6294ZM40 70.444C40 67.8463 42.2386 65.7404 45 65.7404H85C87.7614 65.7404 90 67.8463 90 70.444C90 73.0418 87.7614 75.1477 85 75.1477H45C42.2386 75.1477 40 73.0418 40 70.444Z" fill="#ECE9F1" fill-opacity="0.8"/>
</g>
<defs>
<filter id="filter0_i_1240_514" x="0" y="0" width="175" height="160" filterUnits="userSpaceOnUse" color-interpolation-filters="sRGB">
<feFlood flood-opacity="0" result="BackgroundImageFix"/>
<feBlend mode="normal" in="SourceGraphic" in2="BackgroundImageFix" result="shape"/>
<feColorMatrix in="SourceAlpha" type="matrix" values="0 0 0 0 0 0 0 0 0 0 0 0 0 0 0 0 0 0 127 0" result="hardAlpha"/>
<feOffset dx="25" dy="10"/>
<feGaussianBlur stdDeviation="15"/>
<feComposite in2="hardAlpha" operator="arithmetic" k2="-1" k3="1"/>
<feColorMatrix type="matrix" values="0 0 0 0 0.337255 0 0 0 0 0.137255 0 0 0 0 0.847059 0 0 0 1 0"/>
<feBlend mode="normal" in2="shape" result="effect1_innerShadow_1240_514"/>
</filter>
</defs>
</svg>
