<svg width="150" height="150" viewBox="0 0 150 150" fill="none" xmlns="http://www.w3.org/2000/svg">
<g filter="url(#filter0_i_1241_609)">
<path fill-rule="evenodd" clip-rule="evenodd" d="M74.9981 1.33936C64.5789 1.33936 54.5864 5.47837 47.2188 12.8459C39.8514 20.2133 35.7123 30.2059 35.7123 40.6251V52.6695C24.547 58.0278 16.3616 68.8561 14.901 81.7416C14.2798 87.2221 13.8391 92.8794 13.8391 98.6603C13.8391 104.441 14.2798 110.099 14.901 115.579C16.9434 133.598 32.1346 147.593 50.2356 148.234C58.1442 148.515 66.2603 148.661 74.9998 148.661C83.7393 148.661 91.8554 148.515 99.7639 148.234C117.865 147.593 133.057 133.598 135.099 115.579C135.72 110.099 136.161 104.441 136.161 98.6603C136.161 92.8794 135.72 87.2221 135.099 81.7416C133.057 63.7236 117.865 49.7282 99.7639 49.0858C91.8554 48.8052 83.7393 48.6604 74.9998 48.6604C66.8295 48.6604 59.204 48.7869 51.7837 49.0327V40.6251C51.7837 34.4682 54.2295 28.5636 58.583 24.2101C62.9366 19.8565 68.8412 17.4108 74.9981 17.4108C81.1548 17.4108 87.0595 19.8565 91.413 24.2101C94.5511 27.3483 99.6391 27.3483 102.777 24.2101C105.915 21.072 105.915 15.984 102.777 12.8459C95.4097 5.47837 85.4173 1.33936 74.9981 1.33936ZM74.9989 85.2677C79.4369 85.2677 83.0346 88.8654 83.0346 93.3034V104.017C83.0346 108.455 79.4369 112.053 74.9989 112.053C70.5609 112.053 66.9632 108.455 66.9632 104.017V93.3034C66.9632 88.8654 70.5609 85.2677 74.9989 85.2677Z" fill="#ECE9F1" fill-opacity="0.8"/>
</g>
<defs>
<filter id="filter0_i_1241_609" x="0" y="0" width="175" height="160" filterUnits="userSpaceOnUse" color-interpolation-filters="sRGB">
<feFlood flood-opacity="0" result="BackgroundImageFix"/>
<feBlend mode="normal" in="SourceGraphic" in2="BackgroundImageFix" result="shape"/>
<feColorMatrix in="SourceAlpha" type="matrix" values="0 0 0 0 0 0 0 0 0 0 0 0 0 0 0 0 0 0 127 0" result="hardAlpha"/>
<feOffset dx="25" dy="10"/>
<feGaussianBlur stdDeviation="15"/>
<feComposite in2="hardAlpha" operator="arithmetic" k2="-1" k3="1"/>
<feColorMatrix type="matrix" values="0 0 0 0 0.337255 0 0 0 0 0.137255 0 0 0 0 0.847059 0 0 0 1 0"/>
<feBlend mode="normal" in2="shape" result="effect1_innerShadow_1241_609"/>
</filter>
</defs>
</svg>
