<svg width="150" height="150" viewBox="0 0 150 150" fill="none" xmlns="http://www.w3.org/2000/svg">
<g filter="url(#filter0_i_1237_1024)">
<path fill-rule="evenodd" clip-rule="evenodd" d="M49.084 25C33.4878 25 17.8732 32.1198 12.2418 48.3361C10.1481 54.3652 7.9103 61.9799 5.68655 71.553C1.03825 91.5638 1.55704 104.993 3.07963 113.195C4.69289 121.886 12.6363 125.92 19.7663 125.92C26.0796 125.92 32.0617 123.069 36.0197 118.154L46.3165 105.367C49.2793 101.688 53.775 99.5357 58.5403 99.5357H91.233C95.9983 99.5357 100.494 101.688 103.457 105.367L113.754 118.154C117.712 123.069 123.694 125.92 130.007 125.92C137.137 125.92 145.08 121.886 146.694 113.195C148.216 104.993 148.735 91.5638 144.087 71.553C141.863 61.9801 139.625 54.3656 137.532 48.3366C131.9 32.12 116.286 25 100.689 25H49.084ZM48.3288 46.1074C51.4253 46.1074 53.9355 48.6176 53.9355 51.7141V56.6612H58.952C62.0484 56.6612 64.5586 59.1714 64.5586 62.2678C64.5586 65.3643 62.0484 67.8745 58.952 67.8745H53.9355V72.8216C53.9355 75.918 51.4253 78.4282 48.3288 78.4282C45.2323 78.4282 42.7221 75.918 42.7221 72.8216V67.8745H37.7056C34.6092 67.8745 32.099 65.3643 32.099 62.2678C32.099 59.1714 34.6092 56.6612 37.7056 56.6612H42.7221V51.7141C42.7221 48.6176 45.2323 46.1074 48.3288 46.1074ZM99.8513 67.5445C97.7979 67.5445 96.1332 69.1982 96.1332 71.2383V74.4044C96.1332 76.4444 97.7979 78.0982 99.8513 78.0982H103.038C105.092 78.0982 106.756 76.4444 106.756 74.4044V71.2383C106.756 69.1982 105.092 67.5445 103.038 67.5445H99.8513ZM99.8513 46.437C97.7979 46.437 96.1332 48.0908 96.1332 50.1308V53.2969C96.1332 55.337 97.7979 56.9907 99.8513 56.9907H103.038C105.092 56.9907 106.756 55.337 106.756 53.2969V50.1308C106.756 48.0908 105.092 46.437 103.038 46.437H99.8513ZM110.475 56.9907C108.421 56.9907 106.756 58.6445 106.756 60.6845V63.8507C106.756 65.8907 108.421 67.5445 110.475 67.5445H113.661C115.715 67.5445 117.38 65.8907 117.38 63.8507V60.6845C117.38 58.6445 115.715 56.9907 113.661 56.9907H110.475ZM89.2282 56.9907C87.1747 56.9907 85.5101 58.6445 85.5101 60.6845V63.8507C85.5101 65.8907 87.1747 67.5445 89.2282 67.5445H92.4151C94.4686 67.5445 96.1332 65.8907 96.1332 63.8507V60.6845C96.1332 58.6445 94.4686 56.9907 92.4151 56.9907H89.2282Z" fill="#ECE9F1"/>
</g>
<defs>
<filter id="filter0_i_1237_1024" x="0" y="0" width="175" height="160" filterUnits="userSpaceOnUse" color-interpolation-filters="sRGB">
<feFlood flood-opacity="0" result="BackgroundImageFix"/>
<feBlend mode="normal" in="SourceGraphic" in2="BackgroundImageFix" result="shape"/>
<feColorMatrix in="SourceAlpha" type="matrix" values="0 0 0 0 0 0 0 0 0 0 0 0 0 0 0 0 0 0 127 0" result="hardAlpha"/>
<feOffset dx="25" dy="10"/>
<feGaussianBlur stdDeviation="15"/>
<feComposite in2="hardAlpha" operator="arithmetic" k2="-1" k3="1"/>
<feColorMatrix type="matrix" values="0 0 0 0 0.337255 0 0 0 0 0.137255 0 0 0 0 0.847059 0 0 0 1 0"/>
<feBlend mode="normal" in2="shape" result="effect1_innerShadow_1237_1024"/>
</filter>
</defs>
</svg>
