<?xml version="1.0"?>
<svg width="2100" height="1500" xmlns="http://www.w3.org/2000/svg" xmlns:svg="http://www.w3.org/2000/svg" version="1.1">
 <g class="layer">
  <title>Layer 1</title>
  <path d="m1117,239l11,3l28,11l16,6l43,14l57,17l35,12l29,14l6,3l23,1l19,0l17,-2l8,-3l3,1l-7,14l-2,3l22,0l23,-3l10,-3l13,-4l7,-3l13,-2l16,-5l15,-6l16,-9l12,-8l13,-8l15,-5l9,1l9,6l6,10l4,17l1,10l0,10l-2,19l-5,23l-12,36l-8,19l-5,8l-2,-1l-2,-26l-5,-10l-5,-4l2,5l1,14l-2,10l-5,12l-2,3l1,4l5,5l3,5l-1,7l-7,13l-14,17l-11,14l-8,11l-2,4l1,8l7,19l18,40l11,25l12,27l26,58l8,16l6,9l-2,4l-6,4l-4,1l-15,0l-4,-1l5,16l7,26l4,25l3,39l0,57l-3,27l-5,21l-7,19l-7,14l-2,3l-4,-1l-7,-14l-1,0l-4,19l-9,30l-10,29l-9,20l-8,16l-11,21l-11,17l-14,20l-11,14l-13,16l-4,5l-2,0l-2,4l-20,20l-11,9l-8,6l-2,-1l10,-17l10,-21l6,-15l3,-12l0,-4l-8,8l-9,11l-16,17l-12,12l-8,7l-14,12l-17,13l-15,11l-15,10l-10,7l-7,23l-6,17l-10,22l-10,17l-12,17l-7,7l-2,0l1,-8l3,-15l0,-26l-3,-11l-1,-4l-3,0l-1,7l-7,21l-8,16l-12,20l-11,16l-12,17l-8,10l-12,14l-14,14l-11,7l-7,3l-3,0l2,-6l8,-13l5,-12l2,-10l-8,6l-10,9l-15,10l-27,14l-22,13l-11,7l-6,3l-7,-10l-5,-5l-9,-6l-8,-4l-25,-9l-16,-6l0,10l4,22l-4,-2l-9,-9l-9,-11l-10,-14l-11,-19l-4,-8l-1,-3l-3,1l-1,3l0,12l3,14l0,6l-5,-2l-13,-12l-9,-11l-11,-14l-15,-20l-8,-12l-9,-14l-12,-22l-10,-22l-8,-21l-8,-26l-3,0l-2,9l0,18l4,28l7,26l6,15l0,2l-4,-2l-10,-11l-12,-18l-9,-15l-7,-12l-11,-23l-8,-20l-6,-16l-4,-4l-10,-6l-17,-12l-10,-9l-8,-7l-12,-11l-16,-17l-11,-14l-9,-12l-3,-2l2,16l9,24l13,28l5,11l-5,-2l-13,-13l-7,-8l-9,-10l-13,-14l-10,-13l-14,-18l-21,-28l-10,-15l-18,-30l-8,-16l-8,-17l-12,-35l-3,-10l-2,-1l1,21l3,19l4,18l0,5l-5,-5l-11,-23l-8,-21l-9,-30l-8,-28l-7,-32l-4,-26l-3,-23l-3,-40l0,-27l2,-32l1,-15l0,-12l-2,-1l-25,-1l-9,-2l-3,-3l13,-12l8,-7l9,-11l10,-14l12,-23l11,-27l10,-28l14,-41l11,-28l1,-8l-5,-9l-8,-10l-12,-17l-15,-23l2,-4l12,-6l-1,-6l-6,-17l-3,-12l-1,-19l-9,3l-7,9l-4,11l0,16l4,16l0,6l-4,-2l-7,-14l-4,-14l-1,-7l0,-16l2,-13l2,-6l0,-7l-8,-19l-5,-16l-1,-6l0,-17l4,-16l4,-9l5,-7l8,-4l10,0l14,4l33,15l34,14l29,10l26,7l23,3l9,2l7,0l-7,-15l-1,-6l3,-1l14,6l17,4l12,1l7,-3l15,-10l25,-14l27,-13l17,-6l20,-6l18,-4l23,-3l47,-2l38,-7l28,-4l24,-2l22,0l31,2l32,5l6,1l-1,-4l-7,-8l-4,-4l0,-3z" fill="#4e24d2" id="svg_1"/>
  <path d="m1020,276l5,1l2,-1l16,0l4,0l9,1l48,7l8,3l10,3l9,4l9,6l12,6l6,2l1,2l8,3l8,4l8,2l0,-4l-4,-2l-7,-5l0,-2l-3,0l-5,-6l-1,-4l1,-2l2,0l-1,-3l1,-3l5,-1l25,3l27,4l24,7l6,2l7,1l10,5l2,0l0,2l5,1l9,4l5,2l0,2l5,1l0,2l4,1l16,9l2,2l0,5l-2,3l-2,0l-3,6l-2,0l-2,5l1,3l10,-3l7,-1l77,-2l9,-1l2,-1l12,0l0,3l-5,1l0,2l-3,1l-1,2l-3,0l-1,3l-3,1l-1,2l-3,1l-1,2l-7,3l-1,2l35,-6l30,-7l27,-9l19,-8l22,-12l17,-12l13,-11l12,-12l7,-6l5,1l0,4l2,0l0,12l-3,12l-4,7l-3,4l-2,0l-1,4l-9,11l-5,5l-7,6l-5,5l-4,2l-2,4l-3,0l-2,4l-3,0l0,2l-4,1l-2,4l-11,7l-8,7l-8,4l-2,0l0,2l-13,9l-13,5l-20,8l-16,4l-14,2l-19,0l-24,-7l-19,-9l-16,-9l-6,-2l3,8l8,11l7,9l11,7l8,6l13,4l4,1l10,0l11,1l4,1l14,0l10,-2l20,-8l6,-3l10,-2l7,-2l2,1l-1,7l-3,8l-3,6l-4,2l0,2l-7,4l-6,10l-3,4l-1,4l2,3l6,-1l9,-3l9,-6l8,-8l6,-4l8,-12l7,-15l9,-21l6,-10l5,-5l5,-3l1,1l0,8l-3,15l-7,20l-7,13l-8,11l-9,10l-1,3l16,-1l0,-2l13,-4l8,0l-2,5l-8,8l-9,7l-2,0l-2,4l-18,12l-4,2l-3,0l-1,3l-2,0l1,3l0,5l4,5l4,7l7,10l5,8l5,5l5,9l7,13l3,6l3,4l5,13l6,15l5,14l5,13l3,7l5,17l4,9l4,11l0,5l-7,-1l-17,-6l-6,-3l-4,0l5,7l2,6l8,12l8,18l0,2l2,0l1,8l2,0l5,17l2,16l2,0l3,32l1,18l0,71l-1,18l-4,22l-2,3l-2,0l2,-16l1,-12l0,-34l-3,-20l-5,-13l-3,-6l0,-3l-3,0l-3,20l-6,41l-6,34l-4,16l-2,6l-2,0l1,-27l0,-10l-3,2l-10,26l-10,23l-10,21l-12,20l-8,12l-14,20l-10,14l-8,10l-11,14l-9,9l-3,-1l2,-8l7,-14l3,-8l1,-4l-5,2l-2,6l-7,7l-10,13l-9,10l-9,11l-12,12l-8,7l-4,5l-9,7l-10,9l-5,4l-2,0l0,2l-9,7l-3,-1l1,-7l6,-16l3,-14l1,-15l0,-27l4,-7l11,-9l9,-7l17,-12l25,-16l17,-11l12,-8l11,-8l11,-9l10,-9l11,-12l10,-16l9,-17l6,-17l2,-11l1,-28l8,-23l5,-13l5,-24l2,-14l0,-27l-2,-18l-5,-23l-7,-20l-8,-18l-8,-13l-11,-15l-11,-14l-6,-4l2,5l8,13l6,14l5,15l4,14l3,14l1,12l0,37l-2,16l-4,16l-4,12l-2,0l-6,-16l-9,-19l-13,-19l-15,-16l-5,-6l-25,-16l-10,-6l-2,0l9,12l8,10l9,13l0,2l2,0l12,20l12,24l7,17l2,5l1,5l3,3l5,21l3,14l2,16l0,19l-4,18l-4,9l-7,11l-9,11l-11,11l-17,13l-22,14l-17,12l-11,8l-3,1l0,-7l6,-26l5,-28l2,-16l1,-29l-1,-7l-15,-3l-6,-3l-7,-1l-3,-2l0,-2l-13,-2l-24,-4l-21,0l1,-3l4,-4l4,1l18,1l21,3l15,4l0,2l8,1l4,1l12,0l1,-2l-4,-18l-3,-12l-6,-2l-22,-4l-6,-2l-7,-1l-16,0l-15,4l-8,6l-14,3l0,2l-5,1l0,3l-6,2l-1,6l15,6l1,2l0,6l-5,5l-10,4l-3,3l-6,1l-3,2l-1,3l7,2l-1,4l-8,7l-7,3l-9,6l-23,11l-19,6l-26,6l-33,0l-16,-1l-18,-6l-5,-3l-1,-2l0,-7l5,-9l5,-10l6,-10l6,-11l9,-11l6,-9l2,0l0,-2l2,0l2,-6l5,-5l8,-10l1,-2l2,0l0,-2l-2,0l-1,-2l-13,-1l-6,2l-11,2l-2,4l-2,0l0,2l-9,7l-4,2l-1,3l-7,6l-3,3l-2,1l-6,16l-6,8l-7,-1l-8,-11l-6,-10l-10,-18l0,-3l-2,0l-2,-3l-2,-7l-5,-4l-20,-4l-6,1l-5,1l-10,-1l-6,-2l1,5l5,6l2,1l0,2l3,1l7,8l15,15l11,14l6,9l15,27l0,6l-2,3l-2,0l0,2l-13,5l-10,3l-16,4l-6,1l-19,1l-14,0l-14,-1l-16,-3l-21,-8l-21,-9l-15,-9l0,-2l-3,-1l1,-7l7,-3l11,1l15,0l0,-4l-10,-1l-12,-3l-23,-4l-8,-3l-2,-3l0,-5l5,-5l4,-2l14,-1l28,0l6,2l15,1l-1,-4l-12,-3l-17,-5l-24,-6l-15,0l-8,-3l-9,-2l-8,-6l-2,-1l-4,-10l-2,-3l0,-9l2,-4l11,0l16,4l9,3l10,1l2,2l11,3l11,5l5,2l18,8l10,4l4,-1l0,-2l-5,-2l-18,-11l-17,-8l-8,-4l-9,-5l0,-2l-6,-2l-5,-3l-8,-1l0,-2l-9,-2l-9,-4l-2,-8l0,-11l5,-7l6,-4l4,-1l8,0l12,6l11,5l11,4l4,4l6,4l0,2l10,3l0,-6l-7,-2l-5,-3l0,-2l-4,-1l-2,-1l0,-2l-2,0l-3,-3l-12,-8l-3,-4l1,-5l4,-5l5,-5l8,-5l13,-3l3,-3l2,0l0,-3l6,-4l2,0l0,-3l-11,-3l-19,0l-1,-1l0,-5l9,-6l6,-2l2,-4l11,-7l5,-2l9,-6l11,-3l9,0l17,-4l20,-2l5,-2l4,-6l2,-4l3,0l0,-2l7,-7l3,-2l3,0l0,-2l14,-7l13,-3l11,-2l2,-1l21,1l19,3l5,2l13,5l6,4l9,7l4,5l0,2l2,0l0,2l4,2l0,2l3,0l0,2l20,6l13,4l9,3l14,7l1,2l9,5l5,4l0,2l4,2l11,6l1,1l0,5l-1,1l-11,-1l-18,0l-20,5l-12,5l-11,8l0,2l3,1l4,-3l6,-1l7,-3l14,-2l5,2l-1,8l-5,10l-5,5l-8,9l-2,0l-2,4l-2,2l-5,2l-7,6l-15,7l-8,3l-6,7l-2,0l-4,4l-7,1l-9,-2l-18,4l-6,0l-1,-1l-10,-1l-16,-6l-16,-2l-12,-2l-23,-1l-20,-3l-6,-3l-10,-8l-8,-7l-6,-6l0,-2l-2,0l-4,-5l0,-2l-2,0l-7,-8l-1,-3l-6,-2l2,4l8,13l3,6l2,9l3,5l1,6l6,12l7,8l0,2l3,1l0,2l4,2l5,2l-4,-7l0,-2l-2,-1l1,-3l2,-1l22,1l3,2l0,2l7,0l21,5l12,4l16,8l7,3l1,2l6,3l2,9l2,15l1,8l4,0l-1,-15l-1,-6l3,-7l5,-5l6,-3l2,0l0,-2l11,-5l17,-5l25,-8l3,0l1,-4l3,-2l19,-2l-1,5l-3,4l2,0l0,2l6,-4l5,-7l6,-12l3,-4l3,-11l5,-11l4,-9l1,-2l2,0l2,-5l5,-3l6,-1l9,0l14,4l15,10l1,3l-5,5l-12,6l-10,8l-4,1l0,2l-3,0l0,2l-10,8l-8,6l-2,0l-1,3l-2,0l-6,7l-1,2l4,-1l17,-10l14,-8l17,-9l19,-7l9,0l6,4l0,2l4,2l7,10l0,5l-4,4l-6,2l-10,2l-14,6l0,3l7,1l0,-2l5,-2l28,-2l2,2l2,11l5,3l25,2l12,2l6,2l14,2l-4,-10l-9,-15l-4,-5l-19,1l-15,1l-11,1l0,-4l27,-4l11,-2l-6,-7l-10,-8l-16,-9l-11,-4l-8,0l-1,2l-5,0l-4,-5l0,-2l2,0l1,-4l-5,-5l-10,-8l-6,-4l-3,-5l-3,-11l-6,-12l-2,-7l-5,-4l-5,-5l-2,-4l1,-1l24,0l16,-2l11,-3l11,-4l16,-8l11,-8l10,-10l10,-13l5,-9l6,-10l5,-10l3,-2l15,-1l13,2l17,5l16,9l6,3l-6,-9l0,-2l-4,-2l-7,-7l-5,-2l-6,-5l-3,-5l0,-2l8,-3l9,-1l13,-6l10,-3l1,-4l-13,-5l-5,-2l-21,-2l-23,1l-24,3l-28,8l-18,7l-13,5l-19,8l-4,2l-9,4l-5,0l-1,2l-4,2l-4,0l2,-10l3,-7l2,-5l8,-16l5,-13l3,-9l5,-12l3,-6l0,-4l-5,5l-8,9l-2,4l-2,0l-3,-9l-4,-3l-1,-3l-2,-1l-3,-5l-7,-6l-2,-5l-8,-2l-2,1l-17,-5l-7,-1l-1,-1l-19,0l-1,1l12,5l4,4l12,5l10,9l8,6l6,8l3,7l1,7l0,11l-5,22l-6,15l-10,18l-6,9l-2,0l-1,3l-2,0l0,2l-14,7l-7,2l-9,1l-13,-2l-9,-4l-13,-7l-6,-4l-3,-3l-12,-6l0,-2l-2,0l1,7l2,5l2,1l-4,2l-14,-5l-8,-2l-6,-4l-5,-6l-5,-5l-9,-6l-4,-11l-1,-1l-1,-13l5,-15l6,-16l4,-6l3,-1l1,-5l4,-6l6,-10l3,-4l2,0l1,-4l10,-10l8,-5l9,-8l2,-1l1,-3l-8,2l-12,5l-11,6l-8,6l-1,2l-2,0l0,2l-9,7l-6,1l-1,5l-8,15l-4,2l-3,-5l-1,-4l-4,-4l-1,-11l3,0l4,-16l4,-10l1,-8l-3,1l-2,8l-2,0l-4,18l-2,6l-8,1l-6,0l-6,-5l0,-2l-5,-2l-10,-6l-7,-4l-5,-1l1,6l5,2l4,5l2,1l0,2l2,0l7,9l5,6l3,3l5,8l7,12l6,14l2,6l1,14l0,8l-3,12l-3,5l-2,0l-3,9l-4,4l-13,7l-8,3l-10,4l-5,0l-3,-3l-2,-4l-8,1l-8,4l-3,0l0,2l-14,5l-17,3l-18,-2l-8,-3l-6,-3l0,-2l-6,-2l-5,-7l-5,-4l-7,-13l-2,-3l-1,-5l-2,0l-2,-7l-5,-10l-2,-10l-1,-13l2,-13l6,-12l8,-9l11,-9l7,-5l12,-5l5,-3l0,-2l-13,2l-15,5l-16,8l-7,5l-7,8l-5,11l-4,2l-10,-7l-6,-4l-5,-2l-6,0l3,9l1,7l4,1l10,15l11,22l4,9l7,15l-1,5l-7,-3l-16,-11l-9,-6l-8,-3l-4,1l-9,-4l-17,-8l-21,-7l-24,-5l-22,-2l-12,0l-22,1l0,2l-17,3l-10,3l0,4l16,4l9,4l10,2l16,1l2,3l-5,5l-9,6l-8,6l-5,5l-4,7l-2,3l1,1l9,-1l25,-8l11,-1l9,0l5,-1l13,0l9,4l6,7l2,6l2,0l7,11l4,5l5,5l5,6l11,8l13,5l10,1l11,3l11,1l3,1l20,1l7,1l1,3l-2,0l-2,5l-4,5l-2,0l0,2l-8,8l-2,0l-1,9l-6,5l-3,3l-4,-1l-2,-2l-7,0l-10,4l-10,6l-10,7l-5,3l-11,8l-7,6l-1,2l-2,0l0,2l-6,5l-2,0l-1,3l-3,3l-1,4l11,1l10,3l14,4l8,2l1,6l-2,0l-1,3l-5,-1l-8,-4l-13,-2l-12,-3l-25,-2l-20,0l-7,11l-8,11l-6,9l-4,8l-1,3l30,-2l32,0l22,2l6,1l-1,4l-10,0l-9,-2l-17,-1l-32,0l-21,1l0,2l-7,3l-8,20l-5,10l-3,11l12,-3l27,-9l11,-3l44,-7l15,1l6,5l-3,1l-9,0l-2,7l0,6l8,9l2,3l14,1l2,3l0,6l-1,1l-9,0l0,4l10,19l16,24l9,14l9,15l15,31l9,24l7,25l3,12l4,24l2,20l3,73l2,24l4,24l10,30l7,16l8,13l6,8l2,4l4,2l9,6l16,8l17,8l22,7l25,4l8,1l36,0l23,-4l18,-6l23,-10l16,-11l10,-9l4,-4l2,0l1,-3l2,0l2,-4l7,-8l7,-12l7,-14l3,-7l2,1l-3,15l-3,10l-11,24l-10,16l-12,16l-8,9l-8,7l-4,2l0,2l-10,7l-11,7l-12,6l-23,8l-20,4l-11,1l-26,0l-11,-1l-12,-3l-13,-4l-18,-7l-13,-10l-7,-6l-6,-7l-7,-6l-7,-8l-8,-9l-18,-22l-10,-14l-8,-16l-1,-3l0,-41l-2,-20l-3,-20l-9,-30l-8,-21l-5,-13l-4,-15l-5,-25l-7,-27l-9,-27l-8,-20l-11,-24l-8,-15l-10,-17l-11,-17l-12,-19l-3,-6l-3,-1l-2,-4l-8,0l-21,6l1,2l-7,0l0,2l-7,1l-1,8l-1,30l2,15l4,18l1,9l-4,1l-10,-6l-5,-5l-14,-10l-14,-12l-10,-8l-2,-1l0,-2l-4,-2l-5,-10l-6,1l-9,4l-5,-1l0,-2l9,-5l9,-3l1,-3l-8,-6l-6,-11l-3,-6l0,-3l-2,0l-4,-13l-2,-10l0,-29l3,-3l2,0l1,-11l3,-8l3,-10l13,-26l6,-10l1,-3l2,0l1,-6l2,0l2,-6l12,-16l2,-3l2,0l2,-4l9,-12l7,-8l5,-9l-2,-1l-10,5l-14,10l-9,6l-3,1l0,2l-4,3l-2,0l-1,3l-5,4l-7,9l-10,11l-9,11l-10,13l-5,7l-2,0l-3,-10l-4,-14l-3,-20l0,-9l-1,-4l1,-24l3,-12l1,-14l3,-10l5,-13l6,-12l7,-11l6,-10l1,-4l1,-13l5,-13l6,-21l5,-9l10,-14l4,-7l2,0l2,-4l9,-9l2,-3l2,0l2,-4l10,-10l8,-7l10,-7l18,-13l9,-7l9,-5l15,-6l18,-4l4,-2l13,-1l12,3l13,4l-3,-9l-3,-1l0,-2l-5,-2l0,-2l-6,-2l0,-2l-5,-1l-13,-4l-9,-2l-13,0l-13,2l-20,8l-13,7l-3,3l-8,4l-12,9l-4,4l-3,0l0,2l-8,6l-9,7l-3,1l0,2l-8,7l-11,12l-11,18l-9,20l-4,19l0,24l3,13l1,4l-9,7l-9,6l-2,0l-2,4l-7,8l-6,7l-5,7l-1,3l-3,3l-4,5l-1,2l-2,0l0,-6l1,-4l2,-14l-2,-14l-3,0l-4,1l-2,5l-4,4l-2,0l-1,3l-7,6l-11,6l-8,7l-17,12l-5,5l-9,7l-3,3l-12,9l-5,3l-6,1l-1,-3l2,0l2,-5l2,0l2,-4l9,-11l5,-4l1,-2l2,0l2,-5l8,-11l13,-23l18,-36l9,-17l8,-16l6,-11l7,-11l16,-22l5,-13l-2,-2l-4,-1l0,-2l-6,-1l-10,-7l-4,-3l0,-2l-6,-1l-6,-4l0,-2l-2,0l-4,-4l-12,-9l-1,-2l-3,-1l-4,-4l-2,-5l2,0l0,-2l10,2l14,3l6,-1l-2,-8l-2,0l-6,-9l-8,-17l-4,-11l-2,-10l0,-8l4,-1l11,7l7,8l1,3l2,0l11,19l10,13l11,11l7,8l12,9l5,3l6,3l9,-2l3,-3l-9,-10l-10,-10l0,-2l-2,0l-3,-7l3,-3l20,2l43,0l24,-4l5,-3l2,0l0,-2l6,-3l2,0l1,-3l8,-4l6,-1l3,-1l2,-3l3,0l0,-2l4,-3l1,-3l-18,2l-4,3l-18,0l-7,1l-30,0l-13,-2l-30,-7l-18,-6l-13,-6l-17,-9l-9,-6l0,-2l-5,-2l-5,-4l-8,-6l0,-2l-4,-2l-8,-8l0,-2l-2,0l0,-2l-2,0l-3,-4l0,-2l-3,-1l-6,-8l-11,-13l-5,-8l0,-2l-2,0l-5,-12l0,-7l6,-3l6,-1l10,3l5,1l8,4l4,6l18,10l12,7l11,6l11,7l11,6l10,5l11,4l9,4l8,3l24,4l20,3l8,0l-3,-5l1,-3l13,0l25,-3l11,-2l28,-3l16,0l16,3l9,2l10,3l9,3l2,2l5,0l-5,-8l-7,-8l-2,-4l-3,-3l0,-2l-4,-1l-8,-3l0,-2l-4,-1l-6,-3l0,-2l-3,1l-4,-2l-1,-5l3,-5l5,-3l3,0l0,-2l3,0l0,-2l14,-6l5,0l0,-2l17,-5l14,-4l24,-4l21,-2l25,0l17,2l18,6l8,4l12,5l2,1l0,2l4,1l13,6l0,2l3,0l0,2l2,0l0,2l6,2l5,2l-1,-7l-3,-1l-3,-4l0,-2l-4,-2l-6,-7l0,-6l-4,-2l-4,-3l-3,-1l-3,-8l-1,-2l3,-3l6,-1z" fill="#3D2380" id="svg_2"/>
  <path d="m1082,484l2,1l-1,8l-5,14l-4,12l-3,0l2,11l5,6l2,6l3,-1l8,-15l2,-5l7,-3l6,-5l2,0l0,-2l2,0l2,-4l10,-7l14,-7l8,-3l6,0l-1,4l-8,6l-7,6l-6,4l-8,8l-1,3l-2,0l-2,4l-4,6l-3,5l-5,10l-5,5l-5,12l-7,21l1,13l2,3l2,9l5,2l9,7l4,6l5,4l4,2l12,3l9,3l2,-1l-5,-8l1,-5l2,0l0,2l5,2l8,4l4,4l14,7l7,4l8,3l11,1l12,-2l12,-5l5,-2l0,-2l3,-3l2,0l2,-5l4,-5l12,-24l4,-12l4,-18l0,-11l-2,-9l-4,-8l0,-2l-3,-1l-5,-5l-8,-7l-6,-5l-11,-4l-6,-5l-10,-4l-1,-2l2,-1l19,0l1,1l14,3l10,3l3,-1l7,3l4,6l3,2l0,2l4,2l1,4l3,1l2,4l4,4l1,7l2,-1l3,-5l10,-12l2,0l1,4l-7,15l-3,11l-4,9l-7,14l-3,7l-3,9l-2,3l-2,8l1,2l7,-4l9,-3l6,-3l12,-5l13,-5l14,-6l27,-9l20,-5l19,-2l27,-1l17,2l16,6l3,3l-2,4l-13,4l-10,5l-12,2l-5,1l5,8l5,4l5,2l12,12l4,6l0,2l-5,-1l-9,-6l-11,-5l-17,-5l-17,-1l-10,2l-9,17l-8,14l-13,15l-8,8l-10,7l-9,5l-7,3l-13,5l-13,3l-20,1l-16,0l2,4l5,5l6,5l2,8l6,13l3,11l5,4l11,8l6,5l1,3l-2,3l-2,0l4,6l5,1l1,-3l8,0l11,4l16,9l13,11l4,5l-1,1l-33,5l-5,0l0,4l11,-2l28,-2l6,0l7,9l10,18l0,4l-14,-1l-11,-3l-15,-2l-17,-1l-5,-3l-2,-6l-2,-7l-19,1l-9,1l-5,1l0,2l-7,0l-1,-4l15,-7l18,-4l1,-8l-7,-10l-7,-6l-2,-1l-9,0l-21,8l-23,12l-11,7l-14,8l-2,-1l2,-5l4,-2l1,-3l2,0l5,-5l6,-4l2,0l1,-3l4,-1l1,-3l2,0l0,-2l3,0l0,-2l8,-5l8,-6l13,-7l1,-5l-5,-2l-10,-7l-14,-4l-9,0l-9,2l-4,6l-2,0l-2,6l-6,15l-3,7l-2,7l-6,9l-3,6l-5,7l-4,3l-2,0l0,-2l-3,1l5,-10l-8,2l-11,1l-3,2l-1,3l-31,10l-14,4l-9,4l-2,0l0,2l-10,5l-4,6l-1,8l1,2l0,15l-4,0l-3,-12l-2,-18l-3,-3l-4,-2l0,-2l-5,-1l-16,-8l-11,-4l-19,-5l-12,-2l-3,-3l-24,-1l1,4l3,6l1,3l-5,-1l-7,-6l-9,-12l-5,-10l-2,-8l-3,-5l-2,-9l-8,-14l-4,-5l1,-3l6,3l7,8l1,3l2,0l4,5l0,2l2,0l7,8l8,7l10,8l5,2l20,3l23,1l28,4l16,6l10,1l1,1l12,-1l13,-3l8,2l7,-1l10,-8l4,-4l13,-5l11,-6l5,-5l5,-2l5,-5l8,-9l5,-5l5,-12l1,-5l-8,-1l-14,3l-6,3l-5,1l-4,2l-3,-2l1,-3l11,-8l12,-5l20,-5l18,0l11,1l0,-5l-11,-6l-4,-3l0,-2l-4,-2l-7,-5l-4,-2l-3,-3l-15,-7l-15,-4l-11,-4l-5,-1l-7,-3l0,-2l-3,0l-4,-4l0,-2l-2,0l-4,-6l-11,-9l-11,-5l-6,-2l-5,-2l-19,-3l-9,0l-12,-1l-6,2l-12,2l-13,4l-7,4l-2,0l0,2l-6,3l-2,0l-2,5l-3,1l0,2l-3,1l-3,6l-4,5l-14,2l-15,2l-12,3l-9,0l-13,4l-8,6l-7,3l-9,6l-3,3l-9,5l-3,2l0,5l19,0l9,3l2,1l0,3l-6,4l-2,0l0,3l-4,1l-1,3l-15,4l-8,6l-2,0l-2,5l-3,4l1,5l11,8l5,3l0,2l2,0l0,2l6,2l0,2l4,1l8,4l1,4l-1,2l-6,-1l-4,-2l-4,-4l-6,-4l0,-2l-11,-3l-11,-5l-12,-6l-8,0l-7,3l-3,1l-2,4l-2,5l0,9l1,8l18,6l0,2l8,0l11,6l0,2l5,2l8,4l15,7l15,8l14,9l1,3l-5,1l-20,-8l-8,-4l-6,-2l-12,-6l-9,-2l-3,-2l-14,-2l-11,-4l-12,-2l-8,0l-1,3l0,9l3,4l2,9l5,2l5,4l15,4l4,1l14,0l17,5l28,7l7,3l1,4l-15,0l-7,-2l-34,0l-9,2l-4,2l-2,3l1,7l8,3l23,4l22,5l0,4l-2,1l-13,0l-11,-1l-6,2l-1,7l2,1l0,2l5,2l14,8l29,12l12,4l17,2l10,1l14,0l19,-1l15,-3l15,-4l12,-5l3,0l0,-2l2,0l1,-9l-8,-14l-11,-20l-7,-8l-9,-11l-21,-21l0,-2l-4,-2l-5,-7l1,-3l10,2l10,0l4,-2l14,2l9,2l6,5l3,10l2,0l7,14l8,14l7,10l4,4l5,0l5,-7l4,-10l3,-7l4,-1l2,-4l6,-5l5,-5l7,-6l2,0l0,-2l6,-5l16,-4l13,1l0,3l2,0l0,2l-2,0l-2,4l-6,8l-5,5l-3,6l-2,0l0,2l-2,0l-2,4l-6,9l-6,7l-6,11l-7,12l-4,8l-5,9l0,9l5,2l18,6l16,1l33,0l30,-7l20,-7l25,-13l3,-3l7,-3l7,-6l0,-3l-6,-2l1,-4l6,-3l5,0l2,-4l11,-3l2,-4l0,-8l-9,-3l-7,-3l2,-6l3,-2l3,0l0,-3l5,-1l0,-2l8,-3l8,-2l6,-5l15,-4l16,0l12,2l7,2l20,4l3,2l5,19l2,12l-2,2l-12,0l-12,-3l0,-2l-11,-2l-9,-2l-27,-3l-9,0l-3,0l-4,5l10,-1l11,0l24,4l13,3l0,2l-6,0l0,10l-3,12l-9,13l-4,5l-2,0l-2,5l-6,7l-2,0l-2,4l-5,8l-4,10l-4,14l-1,29l-3,12l-6,17l-5,9l-3,9l-6,16l-4,9l-8,30l-6,27l-5,23l-5,32l-3,30l-2,21l-2,7l-3,16l-4,14l-4,8l-5,15l-4,6l-7,6l-9,4l-6,7l-9,11l-4,4l-2,0l-2,4l-3,1l-3,3l-2,0l0,2l-8,7l-12,12l-5,4l-2,0l-2,4l-7,6l-12,9l-12,8l-12,11l-2,0l-1,3l-15,6l-14,5l-17,0l-10,-2l-6,-2l-16,-9l-5,-4l0,-2l-5,-2l-4,-4l-5,-2l0,-2l-2,0l-4,-6l-8,-5l0,-2l-5,-2l-1,-3l-2,0l-5,-5l-3,-6l4,2l7,5l26,10l15,3l2,1l11,1l26,0l11,-1l23,-5l25,-9l14,-8l12,-9l2,0l0,-2l8,-7l13,-13l10,-14l12,-20l10,-22l5,-21l0,-2l-3,6l-10,19l-7,11l-7,8l-8,7l-8,8l-21,14l-26,11l-18,5l-18,3l-36,0l-28,-4l-21,-6l-15,-6l-21,-11l-11,-6l-5,-4l-7,-9l-7,-11l-8,-16l-9,-25l-4,-15l-4,-28l-2,-34l-2,-54l-3,-26l-4,-21l-6,-24l-9,-27l-13,-28l-9,-17l-13,-21l-8,-11l-10,-16l-9,-17l-1,-4l3,-1l8,0l0,-6l-1,-2l-14,-1l-8,-10l-3,-3l0,-6l3,-7l2,-1l9,0l-5,-4l-16,-1l-31,5l-12,2l-24,7l-20,7l-6,0l2,-11l5,-10l8,-20l4,-3l4,0l0,-2l21,-2l32,0l17,1l9,2l10,0l1,-3l-15,-1l-13,-1l-32,0l-16,1l-14,0l1,-6l8,-13l7,-9l10,-15l20,0l25,2l12,3l13,2l8,4l5,1l1,-2l2,0l-1,-6l-11,-2l-16,-4l-5,-2l-11,-2l1,-6l10,-9l2,0l0,-2l2,0l2,-4l11,-9l8,-6l7,-4l10,-7l12,-6l4,-1l7,0l3,3l5,0l2,-4l4,-3l2,-9l4,-2l4,-6l2,0l0,-2l5,-5l4,-6l0,-2l-27,-1l-3,-1l-16,-2l-11,-3l-9,-1l-14,-7l-8,-7l-6,-7l0,-2l-4,-2l-9,-13l0,-2l-2,0l-6,-10l-3,-3l-8,-3l-13,0l-5,1l-15,0l-21,6l-13,4l-7,-1l4,-7l4,-6l3,-1l2,-4l14,-10l5,-3l1,-3l-1,-1l-16,-1l-10,-2l-12,-5l-10,-2l-3,-2l0,-4l14,-5l13,-1l0,-2l27,-2l16,1l18,2l23,5l22,8l15,8l8,2l3,-1l0,2l7,1l9,6l13,9l9,5l1,-4l-8,-16l-7,-17l-12,-21l-3,-3l-2,-4l-3,-1l-2,-4l-2,-12l6,-1l10,5l5,4l6,4l4,-2l4,-10l5,-6l2,0l1,-3l11,-7l14,-7l18,-5l8,0l1,3l-15,7l-8,4l-11,10l-5,4l-7,10l-4,11l-1,14l2,15l5,12l2,3l0,5l2,0l3,7l2,2l6,12l7,6l0,3l3,1l5,3l0,2l6,2l8,3l19,2l16,-3l12,-4l2,0l0,-2l14,-6l5,0l5,7l8,-1l11,-5l7,-3l10,-5l2,0l2,-5l3,-7l2,0l2,-5l3,-13l0,-14l-2,-9l-5,-14l-9,-16l-5,-8l0,-2l-4,-2l-9,-11l-1,-3l-2,0l0,-2l-4,-2l-8,-8l0,-4l5,0l14,8l8,5l0,2l4,2l2,2l10,0l2,-1l2,1l2,-9l3,-13l1,-2l2,0l2,-8l2,0l0,-2z" fill="#2F2449" id="svg_3" transform="matrix(1 0 0 1 0 0)"/>
  <path d="m0,0l21,1l19,3l5,2l13,5l6,4l9,7l4,5l0,2l2,0l0,2l4,2l0,2l3,0l0,2l20,6l13,4l9,3l14,7l1,2l9,5l5,4l0,2l4,2l11,6l1,1l0,5l-1,1l-11,-1l-18,0l-20,5l-12,5l-11,8l0,2l3,1l4,-3l6,-1l7,-3l14,-2l5,2l-1,8l-5,10l-5,5l-8,9l-2,0l-2,4l-2,2l-5,2l-7,6l-15,7l-8,3l-6,7l-2,0l-4,4l-7,1l-9,-2l-18,4l-6,0l-1,-1l-10,-1l-16,-6l-16,-2l-12,-2l-23,-1l-20,-3l-6,-3l-10,-8l-8,-7l-6,-6l0,-2l-2,0l-4,-5l0,-2l-2,0l-7,-8l-1,-3l-6,-2l2,4l8,13l3,6l2,9l3,5l1,6l6,12l7,8l0,2l3,1l0,2l4,2l5,2l-4,-7l0,-2l-2,-1l1,-3l2,-1l22,1l3,2l0,2l7,0l21,5l12,4l16,8l7,3l1,2l6,3l2,9l2,15l1,8l4,0l-1,-15l-1,-6l3,-7l5,-5l6,-3l2,0l0,-2l11,-5l17,-5l25,-8l3,0l1,-4l3,-2l19,-2l-1,5l-3,4l2,0l0,2l6,-4l5,-7l6,-12l3,-4l3,-11l5,-11l4,-9l1,-2l2,0l2,-5l5,-3l6,-1l9,0l14,4l15,10l1,3l-5,5l-12,6l-10,8l-4,1l0,2l-3,0l0,2l-10,8l-8,6l-2,0l-1,3l-2,0l-6,7l-1,2l4,-1l17,-10l14,-8l17,-9l19,-7l9,0l6,4l0,2l4,2l7,10l0,5l-4,4l-6,2l-10,2l-14,6l0,3l7,1l0,-2l5,-2l28,-2l2,2l2,11l5,3l25,2l12,2l1,2l-14,-1l-29,0l-3,5l2,1l-6,2l-7,5l-14,3l0,2l-5,1l0,3l-6,2l-1,6l15,6l1,2l0,6l-5,5l-10,4l-3,3l-6,1l-3,2l-1,3l7,2l-1,4l-8,7l-7,3l-9,6l-23,11l-19,6l-26,6l-33,0l-16,-1l-18,-6l-5,-3l-1,-2l0,-7l5,-9l5,-10l6,-10l6,-11l9,-11l6,-9l2,0l0,-2l2,0l2,-6l5,-5l8,-10l1,-2l2,0l0,-2l-2,0l-1,-2l-13,-1l-6,2l-11,2l-2,4l-2,0l0,2l-9,7l-4,2l-1,3l-7,6l-3,3l-2,1l-6,16l-6,8l-7,-1l-8,-11l-6,-10l-10,-18l0,-3l-2,0l-2,-3l-2,-7l-5,-4l-20,-4l-6,1l-5,1l-10,-1l-6,-2l1,5l5,6l2,1l0,2l3,1l7,8l15,15l11,14l6,9l15,27l0,6l-2,3l-2,0l0,2l-13,5l-10,3l-16,4l-6,1l-19,1l-14,0l-14,-1l-16,-3l-21,-8l-21,-9l-15,-9l0,-2l-3,-1l1,-7l7,-3l11,1l15,0l0,-4l-10,-1l-12,-3l-23,-4l-8,-3l-2,-3l0,-5l5,-5l4,-2l14,-1l28,0l6,2l15,1l-1,-4l-12,-3l-17,-5l-24,-6l-15,0l-8,-3l-9,-2l-8,-6l-2,-1l-4,-10l-2,-3l0,-9l2,-4l11,0l16,4l9,3l10,1l2,2l11,3l11,5l5,2l18,8l10,4l4,-1l0,-2l-5,-2l-18,-11l-17,-8l-8,-4l-9,-5l0,-2l-6,-2l-5,-3l-8,-1l0,-2l-9,-2l-9,-4l-2,-8l0,-11l5,-7l6,-4l4,-1l8,0l12,6l11,5l11,4l4,4l6,4l0,2l10,3l0,-6l-7,-2l-5,-3l0,-2l-4,-1l-2,-1l0,-2l-2,0l-3,-3l-12,-8l-3,-4l1,-5l4,-5l5,-5l8,-5l13,-3l3,-3l2,0l0,-3l6,-4l2,0l0,-3l-11,-3l-19,0l-1,-1l0,-5l9,-6l6,-2l2,-4l11,-7l5,-2l9,-6l11,-3l9,0l17,-4l20,-2l5,-2l4,-6l2,-4l3,0l0,-2l7,-7l3,-2l3,0l0,-2l14,-7l13,-3l11,-2l2,-1z" fill="#352463" id="svg_4" transform="translate(1073,636)"/>
  <path d="m0,0l5,2l11,8l13,17l7,10l7,12l8,17l15,39l2,10l-1,4l-7,-1l-18,-6l7,11l9,13l5,9l6,12l1,5l2,0l1,8l2,0l5,17l2,16l2,0l3,32l1,18l0,71l-1,18l-4,22l-2,3l-2,0l2,-16l1,-12l0,-34l-3,-20l-5,-13l-3,-6l0,-3l-3,0l-3,20l-6,41l-6,34l-4,16l-2,6l-2,0l1,-27l0,-10l-3,2l-10,26l-10,23l-10,21l-12,20l-8,12l-14,20l-10,14l-8,10l-11,14l-9,9l-3,-1l2,-8l7,-14l3,-8l1,-4l-5,2l-2,6l-7,7l-10,13l-9,10l-9,11l-12,12l-8,7l-4,5l-9,7l-10,9l-5,4l-2,0l0,2l-9,7l-3,-1l1,-7l6,-16l3,-14l1,-15l0,-27l4,-7l11,-9l9,-7l17,-12l25,-16l17,-11l12,-8l11,-8l11,-9l10,-9l11,-12l10,-16l9,-17l6,-17l2,-11l1,-28l8,-23l5,-13l5,-24l2,-14l0,-27l-2,-18l-5,-23l-7,-20l-8,-18l-8,-13l-11,-15l-11,-14l-6,-4l2,5l8,13l6,14l5,15l4,14l3,14l1,12l0,37l-2,16l-4,16l-4,12l-2,0l-6,-16l-9,-19l-13,-19l-15,-16l-5,-6l-25,-16l-10,-6l-2,0l9,12l8,10l9,13l0,2l2,0l12,20l12,24l7,17l2,5l1,5l3,3l5,21l3,14l2,16l0,19l-4,18l-4,9l-7,11l-9,11l-11,11l-17,13l-22,14l-17,12l-11,8l-3,1l0,-7l6,-26l5,-28l2,-16l1,-29l-1,-7l-15,-3l-6,-3l-7,-1l-3,-2l0,-2l-13,-2l-24,-4l-21,0l1,-3l4,-4l4,1l18,1l21,3l15,4l0,2l8,1l4,1l12,0l1,-2l-4,-18l-3,-12l-6,-2l-22,-4l-6,-2l-7,-1l-16,0l-7,2l-5,0l2,-5l1,-1l29,0l29,3l4,1l-4,-10l-9,-15l-4,-5l-19,1l-15,1l-11,1l0,-4l27,-4l11,-2l-6,-7l-10,-8l-16,-9l-11,-4l-8,0l-1,2l-5,0l-4,-5l0,-2l2,0l1,-4l-5,-5l-10,-8l-6,-4l-3,-5l-3,-11l-6,-12l-2,-7l-5,-4l-5,-5l-2,-4l1,-1l24,0l16,-2l11,-3l11,-4l16,-8l11,-8l10,-10l10,-13l5,-9l6,-10l5,-10l3,-2l15,-1l13,2l17,5l16,9l6,3l-6,-9l0,-2l-4,-2l-7,-7l-7,-6l4,-3l15,-3l21,-5l6,-2l5,1l5,8l7,15l4,9l3,7l-1,-11l-4,-25l-6,-20l-1,-7l4,0l2,1l4,7l11,14l0,2l2,0l-2,-7l-8,-15l-4,-8l1,-3z" fill="#4E24D2" id="svg_5" transform="translate(1489,559)"/>
  <path d="m0,0l2,1l-1,8l-5,14l-4,12l-3,0l2,11l5,6l2,6l3,-1l8,-15l2,-5l7,-3l6,-5l2,0l0,-2l2,0l2,-4l10,-7l14,-7l8,-3l6,0l-1,4l-8,6l-7,6l-6,4l-8,8l-1,3l-2,0l-2,4l-4,6l-3,5l-5,10l-5,5l-5,12l-7,21l1,13l2,3l2,9l5,2l9,7l4,6l5,4l4,2l12,3l9,3l2,-1l-5,-8l1,-5l2,0l0,2l5,2l8,4l4,4l14,7l7,4l8,3l11,1l12,-2l12,-5l5,-2l0,-2l3,-3l2,0l2,-5l4,-5l12,-24l4,-12l4,-18l0,-11l-2,-9l-4,-8l0,-2l-3,-1l-5,-5l-8,-7l-6,-5l-11,-4l-6,-5l-10,-4l-1,-2l2,-1l19,0l1,1l14,3l10,3l3,-1l7,3l4,6l3,2l0,2l4,2l1,4l3,1l2,4l4,4l1,7l2,-1l3,-5l10,-12l2,0l1,4l-7,15l-3,11l-4,9l-7,14l-3,7l-3,9l-2,3l-2,8l1,2l7,-4l9,-3l6,-3l12,-5l13,-5l14,-6l27,-9l20,-5l19,-2l27,-1l17,2l16,6l3,3l-2,4l-13,4l-10,5l-12,2l-5,1l5,8l5,4l5,2l12,12l4,6l0,2l-5,-1l-9,-6l-11,-5l-17,-5l-17,-1l-10,2l-9,17l-8,14l-13,15l-8,8l-10,7l-9,5l-7,3l-13,5l-13,3l-20,1l-16,0l2,4l5,5l6,5l2,8l6,13l3,11l5,4l11,8l6,5l1,3l-2,3l-2,0l4,6l5,1l1,-3l8,0l11,4l16,9l13,11l4,5l-1,1l-33,5l-5,0l0,4l11,-2l28,-2l6,0l7,9l10,18l0,4l-14,-1l-11,-3l-15,-2l-17,-1l-5,-3l-2,-6l-2,-7l-19,1l-9,1l-5,1l0,2l-7,0l-1,-4l15,-7l18,-4l1,-8l-7,-10l-7,-6l-2,-1l-9,0l-21,8l-23,12l-11,7l-14,8l-2,-1l2,-5l4,-2l1,-3l2,0l5,-5l6,-4l2,0l1,-3l4,-1l1,-3l2,0l0,-2l3,0l0,-2l8,-5l8,-6l13,-7l1,-5l-5,-2l-10,-7l-14,-4l-9,0l-9,2l-4,6l-2,0l-2,6l-6,15l-3,7l-2,7l-6,9l-3,6l-5,7l-4,3l-2,0l0,-2l-3,1l5,-10l-8,2l-11,1l-3,2l-1,3l-31,10l-14,4l-9,4l-2,0l0,2l-10,5l-4,6l-1,8l1,2l0,15l-4,0l-3,-12l-2,-18l-3,-3l-4,-2l0,-2l-5,-1l-16,-8l-11,-4l-19,-5l-12,-2l-3,-3l-24,-1l1,4l3,6l1,3l-5,-1l-7,-6l-9,-12l-5,-10l-2,-8l-3,-5l-2,-9l-8,-14l-4,-5l1,-3l6,3l7,8l1,3l2,0l4,5l0,2l2,0l7,8l8,7l10,8l5,2l20,3l23,1l28,4l16,6l10,1l1,1l12,-1l13,-3l8,2l7,-1l10,-8l4,-4l13,-5l11,-6l5,-5l5,-2l5,-5l8,-9l5,-5l5,-12l1,-5l-8,-1l-14,3l-6,3l-5,1l-4,2l-3,-2l1,-3l11,-8l12,-5l20,-5l18,0l11,1l0,-5l-11,-6l-4,-3l0,-2l-4,-2l-7,-5l-4,-2l-3,-3l-15,-7l-15,-4l-11,-4l-5,-1l-7,-3l0,-2l-3,0l-4,-4l0,-2l-2,0l-4,-6l-11,-9l-11,-5l-6,-2l-5,-2l-19,-3l-9,0l-12,-1l-6,2l-12,2l-13,4l-7,4l-2,0l0,2l-6,3l-2,0l-2,5l-3,1l0,2l-3,1l-3,6l-4,5l-14,2l-15,2l-12,3l-9,0l-13,4l-8,6l-7,3l-9,6l-3,3l-9,5l-3,2l0,5l19,0l9,3l2,1l0,3l-6,4l-2,0l0,3l-4,1l-1,3l-15,4l-8,6l-2,0l-2,5l-3,4l1,5l11,8l5,3l0,2l2,0l0,2l6,2l0,2l4,1l8,4l1,4l-1,2l-6,-1l-4,-2l-4,-4l-6,-4l0,-2l-11,-3l-11,-5l-12,-6l-8,0l-7,3l-3,1l-2,4l-2,5l0,9l1,8l18,6l0,2l8,0l11,6l0,2l5,2l8,4l15,7l15,8l14,9l1,3l-5,1l-20,-8l-8,-4l-6,-2l-12,-6l-9,-2l-3,-2l-14,-2l-11,-4l-12,-2l-8,0l-1,3l0,9l3,4l2,9l5,2l5,4l15,4l4,1l14,0l17,5l28,7l7,3l1,4l-15,0l-7,-2l-34,0l-9,2l-4,2l-2,3l1,7l8,3l23,4l22,5l0,4l-2,1l-13,0l-11,-1l-6,2l-1,7l2,1l0,2l5,2l14,8l29,12l12,4l17,2l10,1l14,0l19,-1l15,-3l7,-1l-3,2l-13,4l-22,3l-32,0l-12,-2l-15,-3l0,-2l-7,-1l0,-2l-3,-1l0,-2l-5,-1l-11,-6l-15,-8l-9,-6l-9,-7l-3,-5l4,-3l13,-1l-1,-2l-13,-3l-16,-2l-5,-3l-2,-4l0,-5l8,-7l11,-4l11,-1l19,-1l-1,-2l-11,-2l-21,-2l-17,-3l-14,-2l-14,-1l3,-11l4,-20l4,-8l6,-5l5,-3l-2,-10l-3,2l-1,-5l-11,-2l-16,-4l-5,-2l-11,-2l1,-6l10,-9l2,0l0,-2l2,0l2,-4l11,-9l8,-6l7,-4l10,-7l12,-6l4,-1l7,0l3,3l5,0l2,-4l4,-3l2,-9l4,-2l4,-6l2,0l0,-2l5,-5l4,-6l0,-2l-27,-1l-3,-1l-16,-2l-11,-3l-9,-1l-14,-7l-8,-7l-6,-7l0,-2l-4,-2l-9,-13l0,-2l-2,0l-6,-10l-3,-3l-8,-3l-13,0l-5,1l-15,0l-21,6l-13,4l-7,-1l4,-7l4,-6l3,-1l2,-4l14,-10l5,-3l1,-3l-1,-1l-16,-1l-10,-2l-12,-5l-10,-2l-3,-2l0,-4l14,-5l13,-1l0,-2l27,-2l16,1l18,2l23,5l22,8l15,8l8,2l3,-1l0,2l7,1l9,6l13,9l9,5l1,-4l-8,-16l-7,-17l-12,-21l-3,-3l-2,-4l-3,-1l-2,-4l-2,-12l6,-1l10,5l5,4l6,4l4,-2l4,-10l5,-6l2,0l1,-3l11,-7l14,-7l18,-5l8,0l1,3l-15,7l-8,4l-11,10l-5,4l-7,10l-4,11l-1,14l2,15l5,12l2,3l0,5l2,0l3,7l2,2l6,12l7,6l0,3l3,1l5,3l0,2l6,2l8,3l19,2l16,-3l12,-4l2,0l0,-2l14,-6l5,0l5,7l8,-1l11,-5l7,-3l10,-5l2,0l2,-5l3,-7l2,0l2,-5l3,-13l0,-14l-2,-9l-5,-14l-9,-16l-5,-8l0,-2l-4,-2l-9,-11l-1,-3l-2,0l0,-2l-4,-2l-8,-8l0,-4l5,0l14,8l8,5l0,2l4,2l2,2l10,0l2,-1l2,1l2,-9l3,-13l1,-2l2,0l2,-8l2,0l0,-2z" fill="#2F2448" id="svg_6" transform="translate(1082,484)"/>
  <path d="m1181,292l15,1l21,4l15,4l19,7l19,10l8,4l15,10l3,4l-3,1l-2,4l-4,5l-4,8l1,7l7,12l14,16l11,12l11,11l7,9l10,11l8,8l-1,4l-9,-1l-15,-2l-14,0l-12,3l-10,6l-13,13l-5,7l-3,10l-2,19l-4,0l-4,-4l0,-2l-5,-2l-19,-8l-7,-2l0,3l5,2l12,8l-1,4l-6,-1l-15,-4l-16,0l-16,4l-9,4l-6,2l-1,3l-2,1l-1,6l12,-2l10,1l11,4l20,14l6,9l5,11l2,11l0,15l-3,12l-6,12l-11,13l-10,7l-14,6l-8,2l-26,0l-16,-4l-5,-3l-7,-8l-9,-12l-5,-10l-3,-13l0,-24l4,-14l7,-17l4,-5l5,-9l9,-11l10,-8l16,-10l19,-9l17,-8l-4,-2l-9,-1l-22,0l-19,3l-15,5l-17,8l-11,7l-11,10l-8,11l-8,13l-4,6l-3,0l0,-8l2,-6l3,-14l6,-15l7,-11l5,-7l-4,2l-5,6l-2,0l-2,5l-8,14l-5,10l-3,9l-2,0l-3,-5l-3,-24l0,-28l2,-16l5,-20l4,-11l4,-7l6,-12l8,-12l9,-9l15,-10l16,-6l16,-3l28,0l18,1l2,0l3,-13l2,-2l3,0l4,6l4,1l-5,-12l-7,-11l-6,-6l0,-2l-4,-2l-9,-8l-1,-4l2,-1z" fill="#bf055f" id="svg_7" transform="matrix(1 0 0 1 0 0)"/>
  <path d="m690,584l5,2l1,3l5,2l13,5l17,4l1,2l-3,5l-11,8l-6,8l-4,4l-2,0l-2,5l-8,14l-1,7l6,-2l19,-11l16,-6l3,-2l24,-8l10,-2l13,0l6,3l6,7l12,16l12,13l8,7l19,10l13,4l20,3l6,0l1,4l-13,6l-10,4l-19,9l-14,8l-16,11l-13,11l-2,0l-1,3l-10,8l-5,5l-2,3l-2,0l-2,4l-4,3l0,4l22,2l20,4l6,2l14,4l8,2l1,6l-2,0l-1,3l-5,-1l-8,-4l-13,-2l-12,-3l-25,-2l-20,0l-7,11l-8,11l-6,9l-4,8l-1,3l30,-2l32,0l22,2l6,1l-1,4l-10,0l-9,-2l-17,-1l-32,0l-21,1l0,2l-7,3l-8,20l-5,10l-3,11l12,-3l27,-9l11,-3l44,-7l15,1l6,5l-3,1l-9,0l-2,7l0,6l8,9l2,3l14,1l2,3l0,6l-1,1l-9,0l0,4l10,19l16,24l9,14l9,15l15,31l9,24l7,25l3,12l4,24l2,20l3,73l2,24l4,24l10,30l7,16l8,13l6,8l2,4l4,2l9,6l16,8l17,8l22,7l25,4l8,1l36,0l23,-4l18,-6l23,-10l16,-11l10,-9l4,-4l2,0l1,-3l2,0l2,-4l7,-8l7,-12l7,-14l3,-7l2,1l-3,15l-3,10l-11,24l-10,16l-12,16l-8,9l-8,7l-4,2l0,2l-10,7l-11,7l-12,6l-23,8l-20,4l-11,1l-26,0l-11,-1l-12,-3l-13,-4l-18,-7l-13,-10l-7,-6l-6,-7l-7,-6l-7,-8l-8,-9l-18,-22l-10,-14l-8,-16l-1,-3l0,-41l-2,-20l-3,-20l-9,-30l-8,-21l-5,-13l-4,-15l-5,-25l-7,-27l-9,-27l-8,-20l-11,-24l-8,-15l-10,-17l-11,-17l-12,-19l-3,-6l-3,-1l-2,-4l-8,0l-50,14l-16,5l-3,-1l25,-10l13,-5l15,-4l3,-1l0,-2l13,-3l1,-1l9,0l0,-11l2,-2l3,-19l-17,3l-8,2l-15,1l-35,10l-5,1l0,2l-9,3l-1,13l-1,2l-1,11l-1,2l-3,-1l-3,-8l-1,-12l0,-2l-7,2l-4,-1l9,-6l2,0l-1,-3l0,-22l1,-15l-1,-2l-11,2l-18,6l-1,-2l19,-8l11,-4l3,-1l0,-6l4,-14l5,-21l0,-2l-6,-2l0,-2l9,-4l2,-1l2,-8l10,-19l8,-14l14,-22l6,-7l10,-13l7,-9l5,-5l9,-10l8,-10l-10,3l-22,6l-21,8l-16,8l-11,6l-12,8l-16,15l-6,5l-3,-2l1,-6l7,-9l6,-7l8,-13l-8,7l-10,12l-7,8l-12,20l-5,9l-4,4l-2,-3l0,-10l2,-25l7,-31l6,-16l3,-9l8,-19l2,-3l4,1l0,16l2,0l2,-9l3,-11l1,-23l1,-13l2,-3z" fill="#4E24D2" id="svg_8"/>
  <path d="m921,304l41,0l2,2l-6,4l-16,6l-16,10l-13,9l-15,13l-1,2l11,-1l23,-5l13,-1l9,0l21,4l17,6l9,5l6,4l9,7l6,5l0,2l2,0l7,10l7,13l8,24l4,25l2,26l0,7l-5,1l-15,-4l-16,0l-9,3l-12,7l0,3l10,6l10,8l9,9l9,13l7,14l2,14l0,22l-4,17l-5,13l-9,14l-4,4l-2,0l0,2l-10,7l-12,5l-7,1l-7,-3l-21,-4l-18,-7l-10,-7l-8,-6l-7,-8l-5,-11l-2,-5l-1,-8l0,-11l3,-10l7,-11l8,-8l16,-8l10,-2l-4,-2l-15,0l-1,-3l2,-4l10,-5l11,-2l14,0l5,1l-1,-4l-8,-11l-9,-6l-5,-3l-15,-3l-16,0l-13,3l-12,6l-6,5l-3,4l-2,0l-2,4l-3,0l0,-5l7,-13l9,-10l15,-10l15,-6l9,-1l-5,-5l-15,-9l-31,-14l-16,-5l-10,-2l-20,-2l-22,2l-17,4l-4,0l-1,-4l8,-7l14,-8l11,-4l10,-4l16,-2l29,0l-5,-5l-9,-6l-24,-12l-17,-5l-22,-3l-7,-1l-36,0l-1,-3l8,-3l20,-3l11,-1l25,0l15,2l19,4l19,8l9,4l-3,-7l-8,-10l-6,-9l-13,-15l-5,-5l-5,-4l-5,-5l0,-2l-2,0l0,-4l21,-6l18,-5l16,-3l21,-2l5,-1z" fill="#bf055f" id="svg_9" transform="matrix(1 0 0 1 0 0)"/>
  <path d="m0,0l21,1l19,3l5,2l13,5l6,4l9,7l4,5l0,2l2,0l0,2l4,2l0,2l3,0l0,2l20,6l13,4l9,3l14,7l1,2l9,5l5,4l0,2l4,2l11,6l1,1l0,5l-1,1l-11,-1l-18,0l-20,5l-12,5l-11,8l0,2l3,1l4,-3l6,-1l7,-3l14,-2l5,2l-1,8l-5,10l-5,5l-8,9l-2,0l-2,4l-2,2l-5,2l-7,6l-15,7l-22,7l-20,3l-7,2l-21,0l-8,-4l-11,-3l-20,-3l-19,-1l-26,-4l-7,-3l-10,-10l-6,-2l0,-3l-5,-1l0,-2l-4,-2l-4,-4l0,-2l-4,-2l-7,-8l-12,-12l2,-3l14,-1l7,3l15,5l8,4l0,2l10,1l-7,-5l-4,-4l-3,-2l0,-2l-5,-2l-9,-4l-8,-5l0,-2l-2,0l0,-3l-23,0l-19,-3l-1,-5l4,-4l2,0l2,-4l7,-4l11,-6l8,-5l13,-4l17,-4l20,-2l5,-2l4,-6l2,-4l3,0l0,-2l7,-7l3,-2l3,0l0,-2l14,-7l13,-3l11,-2l2,-1z" fill="#3D2380" id="svg_10" transform="translate(1073,636)"/>
  <path d="m0,0l9,4l5,1l6,5l0,3l2,0l3,6l4,2l1,9l-1,9l-4,16l-3,11l0,20l3,19l3,11l1,8l0,14l-4,13l-8,10l-11,8l-14,4l-4,1l-88,0l-13,-3l-10,-6l-7,-7l-6,-10l-1,-3l0,-11l6,-16l5,-11l1,-5l0,-22l-10,-30l-3,-8l1,-8l5,-4l5,-2l4,-5l6,-3l5,-1l1,-1l8,-1l14,1l8,3l5,5l0,2l6,2l3,4l0,2l4,1l0,2l3,0l2,5l4,1l1,-2l5,2l4,0l4,-13l0,-3l4,-2l6,-9l11,-9l8,-6l3,-1l8,-2z" fill="#4F25D3" id="svg_11" transform="translate(1124,1021)"/>
  <path d="m0,0l16,0l12,2l7,2l20,4l3,2l5,19l2,12l-2,2l-12,0l-12,-3l0,-2l-11,-2l-9,-2l-27,-3l-9,0l-3,0l-4,5l10,-1l11,0l24,4l13,3l0,2l-6,0l0,10l-3,12l-9,13l-4,5l-2,0l-2,5l-6,7l-2,0l-2,4l-5,8l-4,10l-4,14l-1,29l-3,12l-6,17l-5,9l-3,9l-6,16l-4,9l-8,30l-6,27l-5,23l-5,32l-3,30l-2,21l-2,7l-3,16l-4,14l-4,8l-5,15l-4,6l-7,6l-9,4l-6,7l-9,11l-4,4l-2,0l-2,4l-3,1l-3,3l-2,0l0,2l-8,7l-12,12l-5,4l-2,0l-2,4l-7,6l-12,9l-12,8l-12,11l-2,0l-1,3l-15,6l-14,5l-17,0l-10,-2l-6,-2l-16,-9l-5,-4l0,-2l-5,-2l-4,-4l-5,-2l0,-2l-2,0l-4,-6l-8,-5l0,-2l-5,-2l-1,-3l-2,0l-5,-5l-3,-6l4,2l7,5l26,10l15,3l2,1l11,1l26,0l11,-1l23,-5l25,-9l14,-8l12,-9l2,0l0,-2l8,-7l13,-13l10,-14l12,-20l10,-22l5,-21l0,-2l-2,2l0,-8l3,-10l2,-9l2,-7l3,-29l0,-41l1,-16l3,-16l3,-21l8,-46l5,-18l5,-16l9,-19l7,-11l8,-12l5,-9l9,-14l5,-10l8,-9l12,-18l2,0l2,-6l3,-4l2,0l2,-9l0,-13l1,-2l-2,0l0,-2l-25,0l1,-6l3,-5l9,-2l2,0l3,-11l3,-2l3,-5l4,-4l-2,-2z" fill="#362364" id="svg_12" transform="translate(1325,830)"/>
  <path d="m803,852l17,0l2,2l-7,1l-2,7l0,6l8,9l2,3l14,1l2,3l0,6l-1,1l-9,0l0,4l10,19l16,24l9,14l9,15l15,31l9,24l7,25l3,12l4,24l2,20l3,73l2,24l4,24l10,30l7,16l8,13l6,8l2,4l4,2l9,6l16,8l17,8l22,7l25,4l8,1l36,0l23,-4l18,-6l23,-10l16,-11l10,-9l4,-4l2,0l1,-3l2,0l2,-4l7,-8l7,-12l7,-14l3,-7l2,1l-3,15l-3,10l-11,24l-10,16l-12,16l-8,9l-8,7l-4,2l0,2l-10,7l-11,7l-12,6l-23,8l-20,4l-11,1l-26,0l-11,-1l-12,-3l-13,-4l-18,-7l-13,-10l-7,-6l-6,-7l-7,-6l-7,-8l-8,-9l-18,-22l-10,-14l-8,-16l-1,-3l0,-41l-2,-20l-3,-20l-9,-30l-8,-21l-5,-13l-4,-15l-5,-25l-7,-27l-9,-27l-8,-20l-11,-24l-8,-15l-10,-17l-11,-17l-12,-19l-3,-6l-3,-1l-2,-4l-8,0l-50,14l-16,5l-3,-1l25,-10l13,-5l15,-4l3,-1l0,-2l13,-3l1,-1l9,0l0,-11l2,-2l3,-19l-17,3l-8,2l-10,0l4,-2l39,-7z" fill="#4E24D2" id="svg_13"/>
  <path d="m0,0l1,2l2,0l4,9l5,13l3,20l0,34l-2,17l-2,11l2,1l-4,10l-4,1l-2,-2l-3,-7l-4,-2l-4,9l-3,10l-2,7l-1,7l-4,10l-3,12l-2,7l-3,10l-8,17l-6,10l-5,1l-2,-3l1,-13l1,-2l-5,1l-9,8l-9,13l-10,13l-1,2l-2,0l-2,4l-6,7l-12,16l-5,6l-5,5l-12,13l-6,8l-7,8l-8,7l-8,9l-8,7l-16,16l-8,7l-8,3l-7,-1l-3,-4l-2,0l0,2l-5,5l-4,2l-2,4l-23,23l-12,11l-6,5l-5,0l-3,-4l1,-28l3,-38l6,-28l6,-21l5,-10l5,-13l6,-13l8,-16l7,-13l8,-15l5,-8l3,-2l4,0l0,5l-6,12l-3,8l-4,11l-1,12l7,-2l14,-10l13,-10l2,0l0,-2l16,-10l9,-6l6,-3l19,-12l15,-10l11,-9l8,-7l14,-14l4,-2l4,-8l4,-2l-2,4l-4,7l-14,15l-11,10l-12,9l-10,7l-15,10l-22,14l-17,11l-14,10l-11,9l-9,7l-3,6l0,27l-1,15l-4,18l-3,7l-3,8l0,4l4,-2l5,-4l2,0l0,-2l10,-8l10,-9l4,-3l2,0l2,-4l6,-5l17,-17l9,-11l9,-10l10,-13l6,-7l2,-4l5,-2l-1,7l-7,15l-4,10l0,2l4,-2l8,-8l9,-12l9,-11l12,-17l11,-16l11,-17l12,-21l13,-28l14,-36l4,-2l1,18l-2,19l2,0l2,-10l4,-16l4,-26l5,-31l4,-30l2,-6z" fill="#362364" id="svg_14" transform="translate(1557,820)"/>
  <path d="m0,0l13,0l16,4l11,4l0,2l6,2l3,3l5,4l3,6l0,3l-6,-1l-13,-4l-10,-1l-12,2l-9,3l-13,3l-15,6l-13,9l-10,8l-10,7l-11,8l-16,15l-11,12l-7,8l-2,0l-2,5l-7,11l-6,8l-4,8l-6,21l-4,11l-1,13l-3,7l-6,10l-7,11l-8,18l-2,9l-2,5l-1,14l-3,12l-1,25l1,6l1,13l3,16l5,19l0,2l5,-5l4,-6l11,-14l10,-11l7,-8l8,-10l8,-7l2,0l0,-2l10,-7l21,-14l6,-2l2,3l-9,13l-8,9l-7,10l-2,0l-2,4l-11,15l-3,6l-2,0l-1,6l-2,0l-1,5l-7,11l-8,18l-4,7l-3,10l-3,12l-1,5l-4,3l0,29l5,21l0,2l2,0l4,9l7,12l7,5l-2,4l-4,2l-3,-1l1,-5l-8,-13l-8,-17l-4,-12l-1,-6l0,-30l2,-2l5,-22l5,-11l5,-13l8,-13l6,-12l14,-21l4,-4l9,-12l1,-4l-5,2l-3,3l-5,3l-9,7l-6,4l-10,9l-7,8l-5,5l-8,11l-9,15l-3,1l-3,-4l-5,-16l-5,-21l-2,-17l0,-22l1,-21l3,-9l5,-16l4,-10l2,-4l2,0l1,-5l7,-14l-1,-5l-9,4l-2,0l0,2l-4,4l-8,14l-8,10l-1,2l-2,0l-3,10l-5,13l-5,18l-2,9l-2,20l-1,18l-2,14l-2,19l-2,13l-2,19l-3,24l-2,11l-2,12l-3,7l-3,0l-2,-5l-4,-35l-1,-20l0,-24l1,-15l0,-8l2,-9l1,-9l-3,0l-2,4l-1,3l-2,0l-1,6l-4,6l-2,1l-2,6l-3,1l-2,-2l-1,-7l5,-18l6,-19l3,-9l5,-14l6,-16l8,-18l1,-6l-9,6l-10,4l-5,3l-7,3l-19,10l-22,11l-11,2l0,-3l2,0l0,-2l6,-5l7,-8l2,-1l-2,4l-5,6l-1,2l-2,0l2,2l9,-3l11,-9l4,-1l2,-4l9,-7l3,-1l1,-3l14,-10l9,-7l3,-3l10,-5l3,-1l2,-4l3,-3l2,0l2,-4l6,-6l4,-2l2,2l2,15l-2,16l-2,7l2,0l2,-5l2,0l2,-5l2,0l1,-4l8,-11l8,-8l4,-6l18,-12l1,-3l-3,-9l-1,-8l0,-22l4,-19l11,-24l10,-15l7,-7l7,-8l3,-3l2,0l0,-2l13,-10l5,-4l2,0l0,-2l3,0l1,-3l16,-12l8,-4l3,-3l21,-10l11,-4l13,-2z" fill="#362464" id="svg_15" transform="translate(796,447)"/>
  <path d="m0,0l7,0l6,2l14,8l1,4l-2,3l-11,6l-19,12l-3,1l0,2l-10,8l-2,0l0,2l-6,5l-2,0l-2,4l-10,10l-5,6l-1,6l17,-12l21,-13l32,-16l14,-5l9,-1l6,7l7,6l0,2l3,1l-1,4l-14,7l-17,7l-16,8l-13,6l-12,7l-14,8l-1,3l2,1l4,-1l11,-6l13,-4l22,-5l6,-2l23,-2l5,2l2,4l-1,8l-8,5l-37,9l-30,8l-14,6l-9,5l-1,2l9,-2l15,-4l19,-3l27,0l10,2l5,3l-2,5l-5,3l-13,2l-16,3l-12,4l-19,8l-9,5l-2,3l22,-3l12,-1l13,0l3,3l-2,0l0,2l-16,10l-16,8l-15,6l-22,6l-12,2l-16,1l-11,0l-14,-2l-14,-3l-8,-5l-2,-2l-1,-5l3,-7l4,-2l0,-3l2,0l1,-5l10,-16l6,-7l2,0l0,-2l2,0l2,-6l8,-9l6,-9l7,-7l2,0l2,-5l7,-9l1,-2l2,0l2,-5l6,-8l9,-13l6,-10l8,-11l8,-16l7,-11l7,-8l8,-3z" fill="#4F25D3" id="svg_16" transform="translate(1240,743)"/>
  <path d="m0,0l15,3l14,4l6,4l-1,4l-13,2l-15,3l-10,3l0,2l-5,2l-7,4l-1,3l6,-2l18,-7l9,-2l6,0l-2,4l-2,0l0,2l-13,8l-6,3l-8,7l-3,6l-2,11l-2,0l-1,4l-3,4l-1,4l9,-4l13,-8l2,0l0,-2l11,-7l2,0l0,-2l15,-6l6,-2l4,1l0,7l-4,6l-10,9l-9,8l-11,8l-14,8l-18,7l-21,3l-7,2l-14,0l-5,-2l-12,-3l-17,-5l-22,-1l-17,-3l-17,-6l-14,-9l-7,-6l0,-2l-4,-2l-4,-4l-7,-9l0,-4l3,-1l17,6l13,6l14,7l8,5l1,-3l-7,-8l0,-2l-3,-1l-2,-5l8,1l16,8l9,6l9,5l3,1l-5,-9l-11,-11l-4,-5l-10,-8l-16,-8l-17,-5l-14,-4l-16,-2l-21,-2l-3,-3l0,-2l20,-7l16,-3l34,0l24,4l15,4l11,6l11,7l5,2l-2,-7l1,-3l6,4l4,5l3,5l3,-1l4,-6l8,-9l9,-6l8,-4l6,-1l20,-1l14,-2l1,-1z" fill="#4E24D2" id="svg_17" transform="translate(1164,692)"/>
  <path d="m0,0l8,1l13,4l16,6l4,3l5,1l12,4l8,4l0,2l4,1l5,4l11,6l11,7l8,6l10,4l4,3l0,2l4,2l0,2l4,2l4,4l0,2l4,2l0,2l4,2l0,2l4,2l22,22l1,2l4,2l5,8l3,6l2,13l-1,9l-4,3l-7,2l-3,2l-20,4l-11,2l-23,1l-17,-2l-17,-3l-22,-8l-9,-4l-14,-9l-1,-4l1,-1l54,0l0,-2l-20,-8l-16,-5l-20,-5l-9,-3l0,-3l-2,0l0,-2l3,-2l23,0l14,2l15,3l9,3l8,2l6,1l10,5l7,1l-1,-3l-11,-8l-8,-7l-19,-10l-12,-5l-9,-3l-16,-4l-14,-4l-33,-7l-14,-4l-2,-4l0,-10l1,-2l9,0l13,4l32,10l17,6l12,4l17,5l12,5l9,6l7,3l-3,-5l-2,-4l-6,-3l0,-2l-4,-2l-10,-7l-14,-9l-15,-10l-5,-3l-5,-4l-18,-8l-15,-7l-10,-5l-4,-4l1,-5l4,-5l2,-1z" fill="#4F25D3" id="svg_18" transform="translate(873,774)"/>
  <path d="m0,0l9,0l13,2l12,5l13,10l8,11l4,9l3,16l0,6l-4,0l-7,-6l-11,-6l-9,-5l-15,-3l-14,0l0,3l9,7l5,3l14,11l9,11l9,12l8,12l5,9l7,11l4,7l0,4l-4,1l-13,-10l-21,-14l-14,-8l-16,-7l-21,-6l-18,-3l-44,0l-20,3l-11,3l-8,4l-5,-1l2,-7l5,-8l9,-9l2,0l2,-4l9,-9l5,-6l4,-4l2,0l2,-4l8,-7l14,-9l12,-8l17,-9l15,-5l15,-2z" fill="#4F25D3" id="svg_19" transform="translate(814,478)"/>
  <path d="m0,0l5,1l1,4l0,10l-4,12l-6,11l-11,14l-11,12l-8,7l-13,10l-11,8l-16,9l-19,8l-21,7l-11,2l-6,2l-18,3l-25,0l-19,-4l-15,-6l-23,-13l-11,-7l-4,-4l-2,-6l-8,-3l-11,-6l2,-4l5,-2l7,-1l77,-2l9,-1l2,-1l12,0l0,3l-5,1l0,2l-3,1l-1,2l-3,0l-1,3l-3,1l-1,2l-3,1l-1,2l-7,3l-1,2l35,-6l30,-7l27,-9l19,-8l22,-12l17,-12l13,-11l12,-12l7,-6z" fill="#4E24D2" id="svg_20" transform="translate(1578,289)"/>
  <path d="m0,0l13,0l16,3l5,2l0,2l10,3l2,1l0,2l6,2l7,4l0,2l8,4l0,2l4,2l10,9l5,5l6,5l0,2l4,2l8,9l6,5l8,10l5,5l9,10l8,11l0,3l-8,-2l-3,-2l-10,-4l-26,-7l-5,-1l-16,-1l-14,0l-19,2l-16,4l-16,5l-20,8l-24,12l-1,-4l8,-14l8,-16l5,-12l2,-10l2,-24l-13,5l-8,7l-4,5l-4,-1l0,-8l7,-17l5,-10l4,-5l8,-7l7,-5l11,-3z" fill="#4F25D2" id="svg_21" transform="translate(1321,470)"/>
  <path d="m0,0l7,3l5,4l5,7l2,12l2,5l2,0l5,15l11,18l15,20l5,5l5,6l2,1l3,5l3,2l0,2l4,2l7,4l0,2l5,2l7,8l4,5l5,4l8,11l6,12l9,15l0,7l-4,4l-20,9l-16,4l-6,1l-19,1l-14,0l-14,-1l-16,-3l-21,-8l-21,-9l-15,-9l0,-2l-3,-1l1,-7l7,-3l11,1l15,0l0,-4l-10,-1l-12,-3l-23,-4l-8,-3l-2,-3l0,-5l5,-5l4,-2l14,-1l28,0l6,2l15,1l-1,-4l-12,-3l-17,-5l-24,-6l-15,0l-8,-3l-9,-2l-8,-6l-2,-1l-4,-10l-2,-3l0,-9l2,-4l11,0l16,4l9,3l10,1l2,2l11,3l11,5l5,2l18,8l10,4l4,-1l0,-2l-5,-2l-18,-11l-17,-8l-8,-4l-9,-5l0,-2l-6,-2l-5,-3l-8,-1l0,-2l-9,-2l-9,-4l-2,-8l1,-9l2,0l0,-3l7,-6l3,-1l8,0l7,4l7,3l6,4l9,4l19,9l14,7l12,7l5,1l-3,-7l-4,-6l-2,-1l0,-2l-2,0l-3,-5l-6,-3l-5,-5l-9,-5l0,-2l-3,-1l-1,-2l-10,-2l-6,-4l-2,-3l5,-8l5,-5l8,-3l14,0l4,-1zm-62,37l-5,4l-2,3l1,5l4,4l23,10l16,8l7,4l3,3l9,5l15,10l11,7l8,6l3,1l0,2l4,3l2,0l2,4l3,5l-7,-3l-11,-7l-16,-6l-20,-6l-18,-6l-25,-8l-17,-6l-5,-1l-9,0l-1,2l0,10l2,4l14,4l33,7l20,6l10,2l9,3l16,7l18,10l7,7l10,7l0,2l-7,-1l-13,-6l-7,-1l-21,-6l-21,-3l-23,0l-3,2l0,2l2,0l1,4l21,5l16,5l20,7l5,3l2,0l0,2l-54,0l-1,3l5,5l13,8l16,6l17,5l18,3l12,1l22,-1l12,-2l19,-4l5,-3l7,-2l3,-5l0,-9l-3,-12l-7,-12l-4,-2l-7,-8l-18,-18l-2,0l-2,-4l-2,0l-2,-4l-2,0l-2,-4l-4,-4l-2,0l-2,-4l-2,0l-2,-4l-9,-4l-9,-5l-8,-6l-13,-8l-7,-4l-2,-2l-3,0l0,-2l-8,-4l-18,-6l-10,-5l-15,-5l-12,-3l-3,0z" fill="#3D2380" id="svg_22" transform="translate(935,737)"/>
  <path d="m0,0l6,1l-2,1l1,3l-12,9l-14,12l-10,8l-7,8l-11,9l-8,8l-9,11l-4,6l-6,5l-2,3l-2,0l0,3l-2,0l-2,5l-3,5l-8,8l-3,6l-9,14l-5,10l-3,1l-1,-1l0,-7l11,-23l8,-15l-5,3l-13,18l-7,10l-8,10l-7,11l-7,10l-11,15l-1,3l-2,0l-2,5l-7,10l-5,6l-4,7l-10,14l-9,9l-4,5l-2,0l0,2l-4,3l-4,0l-1,-4l2,-3l2,0l2,-5l8,-11l13,-23l18,-36l9,-17l8,-16l6,-11l7,-11l8,-11l13,-18l4,-5l0,-3l-16,-8l-18,-11l-7,-5l0,-2l-4,-2l-8,-7l-2,-5l2,-1l1,2l4,-1l15,3l17,8l12,6l12,4l9,2l15,0l13,-4l9,-5l3,-3l1,-6l-5,-1l-6,-4l-3,-4l1,-5l21,1l17,0l0,-2l14,-3l13,-4z" fill="#4F25D3" id="svg_23" transform="translate(742,453)"/>
  <path d="m0,0l4,1l3,3l0,2l3,1l1,4l3,1l2,2l7,6l6,7l12,7l9,3l6,1l4,-1l2,-4l15,0l16,5l10,3l13,1l51,-1l12,-3l1,-2l7,-4l2,-2l7,0l3,3l2,4l3,1l13,-1l10,-2l0,-2l3,-1l2,-3l3,0l2,-4l6,-2l3,5l-1,7l-10,10l-2,0l-2,4l-4,4l-2,0l-2,4l-10,6l-10,4l-24,5l-14,3l-19,3l-18,2l-13,0l-6,-1l-18,-1l-13,-2l-12,-4l-3,-2l-10,-2l-9,-6l-10,-4l-9,-7l-10,-11l-3,-9l-2,0l-3,-7l-8,-16l-1,-5l2,-3z" fill="#362464" id="svg_24" transform="translate(944,1214)"/>
  <path d="m0,0l4,0l5,10l4,13l4,10l8,25l5,15l5,12l6,15l9,28l6,22l3,23l-1,13l-4,-1l-8,-9l-7,-10l-5,-6l-2,-1l0,-2l-4,-2l-9,-9l-8,-7l-9,-8l0,-2l-5,-2l-4,-3l0,-2l-4,-2l-1,-3l-4,-2l-9,-9l-3,-5l0,-2l-2,0l-6,-9l-4,-4l0,-2l-2,0l-4,-7l-2,-10l4,-2l10,7l5,5l6,4l4,5l5,3l6,0l0,-7l-5,-6l-6,-11l-3,-9l-8,-16l-5,-11l-3,-8l0,-4l5,1l9,9l7,5l4,6l9,17l2,0l0,-34l2,-21z" fill="#362464" id="svg_25" transform="translate(788,1010)"/>
  <path d="m633,889l4,1l6,16l4,9l7,21l3,5l0,2l3,1l5,10l10,21l6,14l8,16l6,13l5,14l9,16l5,11l8,21l3,15l5,8l5,16l2,7l0,5l-4,1l-5,-5l-9,-10l-7,-8l-13,-16l-10,-15l-15,-20l-5,-9l-7,-11l-8,-16l-8,-17l-4,-9l-6,-19l-5,-21l-2,-18l-1,-16l1,-19l3,-13l1,-1z" fill="#362464" id="svg_26" transform="matrix(1 0 0 1 0 0)"/>
  <path d="m0,0l6,2l20,12l22,13l15,10l3,1l0,2l4,1l13,8l3,1l0,2l4,1l16,8l8,3l11,5l27,9l25,3l25,0l18,-2l1,2l-6,4l0,4l14,-1l19,-6l9,-2l8,-4l6,0l1,2l-9,6l-13,5l-17,8l-21,8l-16,4l-13,2l-23,1l-18,-2l-13,-3l-2,-1l1,-3l2,-1l9,0l7,1l0,-2l-16,-2l-20,-5l-20,-8l-13,-6l-14,-8l-13,-9l-13,-12l-4,-5l-12,-12l0,-2l-2,0l-6,-9l-7,-10l-6,-11l0,-2z" fill="#4E24D2" id="svg_27" transform="translate(554,310)"/>
  <path d="m0,0l24,0l22,3l28,6l23,8l12,5l6,4l13,6l4,1l-2,-4l-10,-8l-2,-1l1,-6l6,-2l22,0l7,1l4,1l5,0l10,2l11,1l9,0l23,5l8,3l4,1l0,2l5,1l4,1l0,2l5,1l26,13l10,6l0,2l4,1l11,6l3,4l-2,5l-8,11l-2,3l7,-1l-2,2l-9,2l-1,-4l3,-5l2,0l3,-6l2,0l1,-8l-8,-5l-9,-5l-4,-2l0,-2l-5,-1l0,-2l-5,-1l-9,-4l-5,-2l0,-2l-3,1l-9,-5l-10,-2l-23,-7l-31,-5l-27,-3l-3,0l0,6l-2,0l1,6l4,4l0,2l3,0l0,2l4,2l7,5l0,4l-8,-1l-8,-4l-9,-4l0,-2l-9,-2l-15,-9l-14,-7l-12,-3l-9,-3l-37,-5l-10,-1l-5,-1l-3,1l-1,-1l-16,0l-3,1l-4,-1l-8,1l1,4l2,4l0,4l5,1l6,5l2,7l6,7l8,8l2,5l-1,2l-5,-1l-6,-3l0,-2l-2,0l0,-2l-3,0l0,-2l-4,-1l-13,-6l0,-2l-7,-2l-7,-3l-8,-4l-18,-6l-17,-2l-28,0l-26,3l-24,5l-18,6l-5,0l0,2l-9,3l-10,3l0,2l-3,0l0,2l-9,5l0,3l-2,0l1,5l7,1l2,2l8,4l0,2l5,1l7,3l1,4l4,2l3,5l8,10l1,4l-5,1l-3,-3l-12,-3l-9,-3l-18,-3l-8,-1l-12,0l-28,3l-25,4l-19,1l-5,0l2,4l0,3l-9,1l-31,-5l-15,-3l-13,-5l-8,-4l-7,-3l-11,-5l-10,-6l-16,-10l-8,-4l-18,-10l-9,-6l-2,-5l-7,-2l-3,-2l-7,-1l-7,-2l-6,2l-5,1l2,10l3,9l2,0l7,11l12,14l4,6l5,5l0,2l2,0l0,2l2,0l7,8l5,4l5,5l13,9l0,2l4,2l16,9l12,6l15,6l13,4l17,4l14,3l9,1l30,0l14,-1l0,1l-13,2l-19,1l-8,0l-20,-2l-15,-4l-20,-5l-19,-7l-14,-7l-10,-6l-7,-4l-10,-8l-11,-8l-13,-12l-5,-5l-8,-7l-5,-6l0,-2l-2,0l-6,-8l0,-2l-2,0l-3,-5l-7,-11l-2,-8l0,-9l3,-7l2,-2l5,-1l7,0l17,8l9,6l19,11l0,2l6,1l5,5l12,7l2,0l3,3l16,9l13,5l8,3l21,8l5,1l7,0l2,-6l4,-1l16,1l16,2l7,1l26,0l16,-1l17,-3l30,0l24,4l11,3l-1,-3l-5,-5l-9,-8l-12,-7l-16,-5l-4,-4l1,-5l2,0l0,-2l10,-8l2,0l0,-2l9,-4l17,-4l11,-4l17,-5l40,-6l20,-1l19,0l25,4l16,5l12,5l13,9l7,6l2,0l-1,-5l-5,-5l-4,-5l-13,-9l0,-2l-4,-2l-9,-6l0,-2l-2,0l1,-4l5,-2l28,-1z" fill="#362364" id="svg_28" transform="translate(1027,271)"/>
  <path d="m0,0l2,1l0,8l-3,15l-7,20l-7,13l-8,11l-9,10l-1,3l22,-3l9,-3l3,0l-1,4l-7,7l-20,15l-20,12l-7,4l6,8l5,7l5,5l7,11l4,7l0,2l2,0l1,5l-5,-1l0,-2l-4,-1l-13,-9l-24,-16l-5,-3l-3,-5l0,-3l2,-2l7,-3l-4,-1l-11,0l-6,-2l-9,-5l-5,-4l-6,-10l-1,-11l2,-5l0,-4l-19,0l-14,-4l-8,-4l-20,-12l-4,-4l0,-2l-5,-2l0,-2l-2,0l0,-4l3,-1l17,11l14,5l13,3l15,0l24,-4l34,-11l2,1l-2,5l-9,11l-18,18l-4,7l5,10l3,3l5,1l14,-8l10,-8l8,-8l8,-10l8,-12l7,-15l9,-21l6,-10l5,-5l4,-3z" fill="#4F25D3" id="svg_29" transform="translate(1536,392)"/>
  <path d="m0,0l6,3l7,8l1,3l2,0l4,5l0,2l2,0l7,8l8,7l10,8l5,2l20,3l23,1l28,4l16,6l10,1l1,1l12,-1l13,-3l8,2l7,-1l5,-4l8,-6l22,-7l10,-7l7,-4l5,-5l5,-3l2,0l1,4l-5,16l-3,8l-1,6l-8,11l-2,0l0,-2l-3,1l5,-10l-8,2l-11,1l-3,2l-1,3l-31,10l-14,4l-9,4l-2,0l0,2l-10,5l-4,6l-1,8l1,2l0,15l-4,0l-3,-12l-2,-18l-3,-3l-4,-2l0,-2l-5,-1l-16,-8l-11,-4l-19,-5l-12,-2l-3,-3l-24,-1l1,4l3,6l1,3l-5,-1l-7,-6l-9,-12l-5,-10l-2,-8l-3,-5l-2,-9l-8,-14l-4,-5l1,-3z" fill="#2F2449" id="svg_30" transform="translate(950,741)"/>
  <path d="m0,0l9,0l14,4l15,10l1,3l-5,5l-12,6l-10,8l-4,1l0,2l-3,0l0,2l-10,8l-8,6l-2,0l-1,3l-2,0l-6,7l-1,2l4,-1l17,-10l14,-8l17,-9l19,-7l9,0l6,4l0,2l4,2l7,10l0,5l-4,4l-6,2l-4,-1l11,-6l0,-3l-5,-5l-8,-7l-2,-3l-13,2l-12,5l-32,16l-19,12l-14,10l-3,1l0,-6l14,-15l4,-5l6,-5l2,0l0,-2l8,-6l4,-2l0,-2l17,-11l13,-8l3,-1l1,-6l-5,-2l-10,-6l-9,-1l-9,2l-6,5l-11,17l-8,16l-8,11l-6,10l-7,10l-9,13l-2,0l-2,5l-8,11l-8,7l-8,11l-6,7l-3,6l-2,0l-1,4l-7,6l-10,17l-1,3l-2,0l0,3l-5,5l-1,5l2,5l4,3l9,3l13,3l10,1l11,0l16,-1l16,-3l20,-6l15,-6l21,-11l7,-5l2,0l1,-3l-2,-1l-13,0l-17,2l-7,1l-10,0l2,-4l16,-8l17,-7l16,-4l10,-2l10,-1l5,-3l1,-4l-7,-3l-7,-1l-27,0l-19,3l-18,5l-6,0l2,-4l13,-6l13,-5l26,-7l37,-9l7,-4l1,-8l-2,-4l-8,-1l-19,2l-15,4l-21,5l-16,8l-5,2l-1,-6l10,-6l17,-10l16,-8l9,-4l3,0l1,2l7,1l0,-2l5,-2l28,-2l2,2l2,11l5,3l25,2l12,2l1,2l-14,-1l-29,0l-3,5l2,1l-6,2l-7,5l-14,3l0,2l-5,1l0,3l-6,2l-1,6l15,6l1,2l0,6l-5,5l-10,4l-3,3l-6,1l-3,2l-1,3l7,2l-1,4l-8,7l-7,3l-9,6l-23,11l-19,6l-26,6l-33,0l-13,-2l-17,-5l-6,-4l-2,-6l8,-16l9,-15l3,-6l7,-9l7,-6l2,-3l2,0l2,-4l7,-9l12,-11l8,-10l7,-11l2,0l0,-2l2,0l2,-5l7,-9l4,-7l6,-10l2,-3l3,-11l5,-11l4,-9l1,-2l2,0l2,-5l5,-3l6,-1z" fill="#3C237F" id="svg_31" transform="translate(1234,740)"/>
  <path d="m0,0l20,0l25,2l0,1l-11,1l-9,8l-9,15l-5,10l32,0l8,3l14,3l1,6l-8,2l-1,3l0,14l7,3l0,2l2,0l-1,3l-5,-4l-16,-1l-31,5l-12,2l-24,7l-20,7l-6,0l2,-11l5,-10l8,-20l4,-3l4,0l0,-2l21,-2l32,0l17,1l9,2l10,0l1,-3l-15,-1l-13,-1l-32,0l-16,1l-14,0l1,-6l8,-13l7,-9l10,-15z" fill="#3D2384" id="svg_32" transform="translate(761,778)"/>
  <path d="m0,0l24,1l24,3l16,4l19,7l10,4l11,6l0,2l5,2l11,6l2,4l-1,1l-8,0l-4,-1l-10,0l-11,2l-8,3l-14,7l-10,8l-6,8l-4,9l-3,8l-5,-1l-7,-8l-11,-10l-13,-8l-11,-5l-12,-4l-16,-4l-1,-2l1,-2l12,0l37,5l1,2l10,0l-1,-5l-8,-15l-8,-10l-6,-6l0,-2l-4,-2l-3,-3l2,-4z" fill="#4F25D3" id="svg_33" transform="translate(1027,283)"/>
  <path d="m1121,1000l19,0l9,3l10,7l7,14l0,14l-6,15l-9,20l-4,17l0,10l3,21l1,9l-2,-3l-3,-14l-1,-8l0,-20l6,-21l2,-10l0,-14l-5,-2l-2,-6l-2,0l-3,-5l-5,-3l-5,0l0,-2l-4,-1l-3,-1l-10,2l-7,6l-6,4l-8,7l-5,8l-4,1l1,3l-4,13l-5,1l-5,-2l-5,1l-2,-3l0,-3l-3,0l0,-2l-4,-1l-3,-5l-6,-3l-5,-5l0,-2l-7,-1l-5,-1l-11,-1l-7,1l-3,2l-6,1l-5,4l-5,5l-5,2l-2,4l1,8l1,5l-2,-1l-4,-13l-1,-26l2,-9l9,0l8,-3l1,-1l15,-2l10,0l16,5l11,8l5,5l8,11l5,10l2,1l3,-15l5,-11l8,-11l11,-10l8,-5l12,-2z" fill="#3D2380" id="svg_34" transform="matrix(1 0 0 1 0 0)"/>
  <path d="m0,0l11,0l15,3l12,5l5,4l-1,4l-24,0l-14,2l-25,8l-13,8l-3,3l-3,0l-2,4l-15,12l-9,4l-4,5l-2,0l-1,4l-7,6l-5,5l-6,9l-9,9l-3,4l-2,0l-3,9l-7,10l-7,11l-6,20l-2,3l-5,-1l-2,-11l0,-8l6,-25l7,-17l7,-10l1,-2l2,0l2,-4l2,0l2,-5l3,-1l1,-5l4,-3l3,0l2,-6l11,-8l4,-2l1,-3l12,-7l8,-6l16,-8l0,-3l15,-6l1,-2l15,-6l12,-3z" fill="#2F2548" id="svg_35" transform="translate(796,450)"/>
  <path d="m0,0l23,0l17,4l15,6l7,4l8,4l0,2l4,2l0,2l2,0l1,2l4,2l0,2l5,2l7,4l0,2l3,0l0,2l2,0l4,8l6,5l0,2l4,2l4,4l0,2l2,0l5,8l7,9l0,2l2,0l4,6l5,7l8,18l3,5l-1,15l2,0l4,7l1,3l2,0l1,9l2,0l3,18l0,6l-4,-4l-3,-9l-7,-15l-4,-8l-3,-7l-6,-11l-4,-7l-5,-5l-9,-10l-6,-7l0,-2l-3,-1l-9,-11l-7,-6l-7,-8l-2,-1l0,-2l-4,-2l-4,-5l-8,-7l-9,-7l-1,-2l-7,-4l0,-2l-4,-1l-7,-4l-2,-1l0,-2l-10,-3l-2,-1l0,-2l-15,-3l0,-2l-10,-1l-10,0l-4,1l-13,0l-4,2l-2,-4l5,-4l13,-6l11,-2z" fill="#2F244A" id="svg_36" transform="translate(1326,456)"/>
  <path d="m0,0l2,1l-1,8l-5,14l-4,12l-3,0l2,11l5,6l2,6l3,-1l8,-15l2,-5l7,-3l6,-5l2,0l0,-2l2,0l2,-4l10,-7l14,-7l8,-3l6,0l-1,4l-8,6l-7,6l-6,4l-8,8l-1,3l-2,0l-2,4l-4,6l-3,5l-5,10l-5,5l-5,12l-7,21l1,13l2,3l2,9l5,2l9,7l4,6l5,4l4,2l12,3l9,3l2,-1l-5,-8l1,-5l2,0l0,2l5,2l8,4l4,4l14,7l7,4l8,3l11,1l12,-2l12,-5l5,-2l0,-2l3,-3l2,0l2,-5l4,-5l12,-24l4,-12l4,-18l0,-11l-2,-9l-4,-8l0,-2l-3,-1l-5,-5l-8,-7l-6,-5l-11,-4l-6,-5l-10,-4l-1,-2l2,-1l19,0l1,1l14,3l10,3l3,-1l7,3l4,6l3,2l0,2l4,2l1,4l3,1l2,4l4,4l1,7l2,-1l3,-5l10,-12l2,0l1,4l-7,15l-3,11l-4,9l-7,14l-3,7l-3,9l-2,3l-2,8l1,2l7,-4l9,-3l6,-3l12,-5l13,-5l14,-6l7,-1l-3,2l-15,6l-23,10l-17,9l-12,7l-4,4l-4,0l0,-6l7,-15l6,-16l5,-11l4,-12l-5,-3l-2,-16l-4,-7l-4,-4l0,-2l-4,-2l-4,-4l0,-2l-5,-2l-14,-6l-12,-3l-5,1l13,5l11,9l1,4l3,1l0,2l3,1l7,15l2,7l0,12l-2,11l-5,16l-4,11l-8,16l-8,13l-8,7l-12,6l-13,3l-10,0l-16,-5l-20,-12l-8,-5l0,4l2,4l-1,4l-9,-1l-9,-4l-18,-6l-6,-4l-3,-1l-5,-5l-9,-7l-3,-16l-3,-8l3,-9l8,-26l6,-12l9,-15l4,-5l5,-5l6,-7l9,-7l6,-4l0,-3l-9,3l-12,7l-9,10l-4,4l-4,6l-8,7l-7,10l-2,2l-4,-1l-7,-14l-5,-2l-8,-5l-5,-3l-3,-5l-13,-9l-4,-1l3,5l4,4l0,2l4,2l10,13l11,18l8,17l3,6l2,12l-1,9l-6,17l-2,4l-2,0l-2,5l-3,5l-10,6l-20,8l-11,5l-13,2l-5,-5l0,-2l-9,3l-3,-1l7,-2l0,-2l14,-6l5,0l5,7l8,-1l11,-5l7,-3l10,-5l2,0l2,-5l3,-7l2,0l2,-5l3,-13l0,-14l-2,-9l-5,-14l-9,-16l-5,-8l0,-2l-4,-2l-9,-11l-1,-3l-2,0l0,-2l-4,-2l-8,-8l0,-4l5,0l14,8l8,5l0,2l4,2l2,2l10,0l2,-1l2,1l2,-9l3,-13l1,-2l2,0l2,-8l2,0l0,-2z" fill="#362364" id="svg_37" transform="translate(1082,484)"/>
  <path d="m0,0l1,2l2,0l4,9l5,13l3,20l0,34l-2,17l-1,7l-1,0l0,-16l1,-4l0,-30l-2,-4l0,-5l-2,0l-1,-5l-4,0l-2,4l0,3l-4,11l-5,17l-2,6l-2,13l-4,20l-2,6l-2,9l-6,17l-3,0l-1,-3l1,-14l-5,0l-1,4l-2,0l-2,6l-2,0l-2,5l-4,8l-5,5l-3,5l-1,2l-2,0l-2,6l-4,9l-2,1l-2,5l-4,7l-2,0l-2,5l-3,1l-2,5l-7,11l-2,0l-2,4l-8,9l-7,10l-2,3l-2,0l0,4l-9,7l-7,9l-4,7l-5,5l-5,1l-2,-3l0,-9l-9,5l-4,6l-2,0l-2,5l-5,5l-5,2l-2,4l-10,7l-4,2l0,2l-4,3l-2,0l0,2l-8,7l-4,5l-9,6l-1,2l-5,2l-1,2l-5,0l-1,-3l4,-13l7,-18l0,-11l-3,-4l1,-10l4,-16l0,-11l3,-5l12,-11l16,-12l14,-10l19,-12l24,-15l10,-7l2,1l-5,4l-15,10l-22,14l-17,11l-14,10l-11,9l-9,7l-3,6l0,27l-1,15l-4,18l-3,7l-3,8l0,4l4,-2l5,-4l2,0l0,-2l10,-8l10,-9l4,-3l2,0l2,-4l6,-5l17,-17l9,-11l9,-10l10,-13l6,-7l2,-4l5,-2l-1,7l-7,15l-4,10l0,2l4,-2l8,-8l9,-12l9,-11l12,-17l11,-16l11,-17l12,-21l13,-28l14,-36l4,-2l1,18l-2,19l2,0l2,-10l4,-16l4,-26l5,-31l4,-30l2,-6z" fill="#3C237F" id="svg_38" transform="translate(1557,820)"/>
  <path d="m0,0l1,0l0,9l1,8l18,6l0,2l8,0l11,6l0,2l5,2l8,4l15,7l15,8l14,9l1,3l-5,1l-20,-8l-8,-4l-6,-2l-12,-6l-9,-2l-3,-2l-14,-2l-11,-4l-12,-2l-8,0l-1,3l0,9l3,4l2,9l5,2l5,4l15,4l4,1l14,0l17,5l28,7l7,3l1,4l-15,0l-7,-2l-34,0l-9,2l-4,2l-2,3l1,7l8,3l23,4l22,5l0,4l-2,1l-13,0l-11,-1l-6,2l-1,7l2,1l0,2l5,2l14,8l29,12l12,4l17,2l10,1l14,0l19,-1l15,-3l7,-1l-3,2l-13,4l-22,3l-32,0l-12,-2l-15,-3l0,-2l-7,-1l0,-2l-3,-1l0,-2l-5,-1l-11,-6l-15,-8l-9,-6l-9,-7l-3,-5l4,-3l13,-1l-1,-2l-13,-3l-16,-2l-5,-3l-2,-4l0,-5l8,-7l11,-4l11,-1l19,-1l-1,-2l-11,-2l-21,-2l-17,-3l-14,-2l-14,-1l3,-11l4,-20l4,-8l6,-5l5,-3l-2,-12l4,-9l1,-1z" fill="#362464" id="svg_39" transform="translate(855,773)"/>
  <path d="m0,0l12,0l22,2l28,6l22,8l13,7l-3,1l-14,-7l-24,-7l-26,-5l-16,-1l-15,0l-24,4l-5,1l2,6l9,3l25,4l4,4l-2,4l-17,10l-2,3l-2,0l0,7l-3,1l-1,4l6,0l16,-6l16,-4l10,-1l15,0l7,3l8,11l4,6l0,2l2,0l0,3l3,1l8,10l11,12l5,4l13,6l6,2l12,1l7,2l25,3l22,0l3,1l1,3l-16,16l-2,3l-2,0l-1,3l-2,0l-2,5l-4,5l-4,14l-6,13l-4,5l-10,6l-17,3l-13,3l-3,2l-6,0l2,-5l5,-6l2,0l2,-4l4,-6l2,0l0,-2l2,0l0,-2l2,0l0,-5l-11,7l-19,14l-10,9l-2,0l0,2l-5,4l-1,6l3,1l-3,1l-5,-1l1,-6l10,-9l2,0l0,-2l2,0l2,-4l11,-9l8,-6l7,-4l10,-7l12,-6l4,-1l7,0l3,3l5,0l2,-4l4,-3l2,-9l4,-2l4,-6l2,0l0,-2l5,-5l4,-6l0,-2l-27,-1l-3,-1l-16,-2l-11,-3l-9,-1l-14,-7l-8,-7l-6,-7l0,-2l-4,-2l-9,-13l0,-2l-2,0l-6,-10l-3,-3l-8,-3l-13,0l-5,1l-15,0l-21,6l-13,4l-7,-1l4,-7l4,-6l3,-1l2,-4l14,-10l5,-3l1,-3l-1,-1l-16,-1l-10,-2l-12,-5l-10,-2l-3,-2l0,-4l14,-5l13,-1l0,-2l22,-2z" fill="#362464" id="svg_40" transform="translate(744,567)"/>
  <path d="m0,0l5,1l20,2l12,2l17,6l9,6l11,8l3,4l0,2l4,2l7,6l11,4l17,4l9,4l7,3l10,5l14,10l9,7l0,2l4,2l7,7l3,6l-1,1l-10,-1l-11,-2l-13,0l-11,2l-2,3l10,2l1,1l-1,7l-3,8l5,-2l3,-3l4,-9l8,0l6,5l0,2l12,2l9,4l9,7l5,4l-1,5l-10,6l-5,5l-8,7l-4,1l-4,2l0,2l-2,0l0,4l8,-4l8,-5l13,-4l10,-4l3,-1l8,0l5,3l4,1l4,7l3,9l1,1l0,6l-4,1l1,-7l-7,-10l-7,-6l-2,-1l-9,0l-21,8l-23,12l-11,7l-14,8l-2,-1l2,-5l4,-2l1,-3l2,0l5,-5l6,-4l2,0l1,-3l4,-1l1,-3l2,0l0,-2l3,0l0,-2l8,-5l8,-6l13,-7l1,-5l-5,-2l-10,-7l-14,-4l-9,0l-9,2l-4,6l-2,0l-2,6l-6,15l-3,7l-2,7l-6,9l-3,6l-5,7l-2,-1l5,-7l3,-13l4,-9l2,-10l0,-2l-9,6l-2,0l-2,4l-10,6l-9,5l-19,6l-2,-1l9,-4l16,-8l7,-6l5,-2l5,-5l8,-9l5,-5l5,-12l1,-5l-8,-1l-14,3l-6,3l-5,1l-4,2l-3,-2l1,-3l11,-8l12,-5l20,-5l18,0l11,1l0,-5l-11,-6l-4,-3l0,-2l-4,-2l-7,-5l-4,-2l-3,-3l-15,-7l-15,-4l-11,-4l-5,-1l-7,-3l0,-2l-3,0l-4,-4l0,-2l-2,0l-4,-6l-11,-9l-11,-5l-6,-2l-5,-2l-19,-3l-9,0l-12,-1l-6,2l-12,2l-13,4l-7,4l-2,0l0,2l-6,3l-2,0l-2,5l-3,1l0,2l-3,1l-3,6l-4,5l-14,2l-15,2l-12,3l-5,0l1,-2l13,-4l24,-4l4,-1l2,-6l4,-5l2,0l0,-2l13,-10l14,-7l16,-5l1,-1l18,-3z" fill="#362464" id="svg_41" transform="translate(1076,631)"/>
  <path d="m0,0l2,1l-2,5l-4,4l-8,7l-4,2l0,2l-10,7l-11,9l-17,9l-24,8l-25,3l-6,1l-18,0l-17,-2l-8,0l0,5l2,0l1,4l2,0l0,2l4,2l7,8l3,5l-1,4l-5,3l-6,2l-8,0l-8,-3l-9,-6l0,-2l-3,0l0,-2l-4,-2l-9,-7l-1,-3l-4,-2l-5,-5l-6,-5l-8,-11l-3,-6l-12,-21l-6,-2l3,11l5,9l4,5l4,6l3,3l8,16l3,4l1,4l-2,2l-13,-2l-22,-5l2,5l5,5l6,4l7,5l0,2l4,2l21,13l10,5l7,4l-1,4l-7,9l0,-3l3,-8l-2,-2l-4,-1l0,-2l-6,-1l-10,-7l-4,-3l0,-2l-6,-1l-6,-4l0,-2l-2,0l-4,-4l-12,-9l-1,-2l-3,-1l-4,-4l-2,-5l2,0l0,-2l10,2l14,3l6,-1l-2,-8l-2,0l-6,-9l-8,-17l-4,-11l-2,-10l0,-8l4,-1l11,7l7,8l1,3l2,0l11,19l10,13l11,11l7,8l12,9l5,3l6,3l9,-2l3,-3l-9,-10l-10,-10l0,-2l-2,0l-3,-7l3,-3l20,2l43,0l24,-4l5,-3l2,0l0,-2l6,-3l2,0l1,-3l8,-4l6,-1l3,-1l2,-3l3,0l0,-2l4,-3l1,-3l-18,2l-4,3l-11,-1l0,-1l5,0l0,-2l18,-5l19,-7l10,-5l8,-2l3,-1z" fill="#362364" id="svg_42" transform="translate(808,398)"/>
  <path d="m0,0l8,0l11,4l16,9l13,11l4,5l-1,1l-33,5l-5,0l0,4l11,-2l28,-2l6,0l7,9l10,18l0,4l-14,-1l-11,-3l-15,-2l-17,-1l-5,-3l-2,-6l-2,-7l-19,1l-9,1l-5,1l0,2l-7,0l-1,-4l15,-7l16,-4l6,-2l-2,-7l-5,-13l-1,-3l-4,-2l1,-4l5,1l1,-3z" fill="#2F244A" id="svg_43" transform="translate(1303,765)"/>
  <path d="m0,0l2,2l2,11l5,3l25,2l12,2l1,2l-14,-1l-29,0l-3,5l2,1l-6,2l-7,5l-14,3l0,2l-5,1l0,3l-6,2l-1,6l15,6l1,2l0,6l-5,5l-10,4l-3,3l-6,1l-3,2l-1,3l7,2l-1,4l-8,7l-4,1l8,-8l1,-2l-39,3l-6,1l-4,-2l4,-3l20,-9l14,-4l30,-5l3,-4l0,-5l-9,-4l-5,-1l-27,0l-21,4l-6,0l0,-2l8,-4l15,-5l11,-3l3,0l0,-2l37,-9l7,-4l1,-8l-2,-4l-8,-1l-19,2l-15,4l-21,5l-16,8l-5,2l-1,-6l10,-6l17,-10l16,-8l9,-4l3,0l1,2l7,1l0,-2l5,-2l28,-2z" fill="#362364" id="svg_44" transform="translate(1312,807)"/>
  <path d="m0,0l5,1l8,14l1,2l3,0l6,-11l7,0l5,5l5,-1l1,-2l2,0l-1,8l-4,20l-2,19l-1,3l0,42l-5,-5l-8,-7l-3,-7l-4,-4l-2,-7l-2,0l-1,-6l-2,0l-7,-21l-5,-22l-2,-10l0,-8l6,-3z" fill="#6B77EB" id="svg_45" transform="translate(928,961)"/>
  <path d="m0,0l13,1l9,2l0,2l9,2l7,1l6,4l0,2l-5,-1l-9,-4l-14,-4l-17,-1l-10,2l-9,17l-8,14l-13,15l-8,8l-10,7l-9,5l-7,3l-13,5l-13,3l-20,1l-16,0l2,4l5,5l6,5l0,5l-2,-4l-6,-4l-10,-8l-14,-10l-1,-5l3,-2l18,-3l12,0l7,2l14,0l15,-4l17,-7l6,-5l5,-2l0,-2l4,-3l2,0l0,-2l8,-6l3,-4l2,0l8,-16l3,-8l5,-5l10,-3l9,-1l6,-1z" fill="#3D2380" id="svg_46" transform="translate(1387,608)"/>
  <path d="m0,0l1,0l0,12l-3,12l-4,7l-3,4l-2,0l-1,4l-9,11l-5,5l-7,6l-5,5l-4,2l-2,4l-3,0l-2,4l-3,0l0,2l-4,1l-2,4l-11,7l-8,7l-8,4l-2,0l0,2l-13,9l-13,5l-20,8l-16,4l-14,2l-19,0l-24,-7l-19,-9l-16,-9l-6,-2l3,8l8,11l7,9l11,7l8,6l13,4l4,1l10,0l11,1l4,1l14,0l10,-2l20,-8l6,-3l10,-2l7,-2l2,1l-1,7l-3,8l-3,6l-4,2l0,2l-7,4l-6,10l-3,4l-1,4l2,3l6,-1l9,-3l9,-6l8,-8l3,-1l-2,4l-9,10l-8,7l-14,9l-6,2l-5,-3l-4,-5l-3,-8l7,-9l18,-18l8,-11l1,-2l-6,1l-30,10l-24,4l-15,0l-17,-4l-12,-5l-5,-5l-10,-7l-7,-5l-3,-1l-8,-11l-5,-5l-12,-17l-1,-6l1,-1l5,0l5,4l3,1l0,2l5,2l11,7l12,7l12,6l21,6l12,1l25,-2l18,-5l10,-3l10,-5l7,-3l14,-8l16,-10l6,-5l15,-10l11,-9l8,-7l7,-6l7,-8l10,-13l8,-16l2,-7l1,-10z" fill="#362364" id="svg_47" transform="translate(1584,294)"/>
  <path d="m0,0l16,0l12,2l7,2l20,4l3,2l5,19l2,12l-2,2l-12,0l-12,-3l0,-2l-11,-2l-9,-2l-27,-3l-9,0l-3,0l-4,5l10,-1l11,0l24,4l13,3l-4,1l-11,0l-17,-5l-28,-1l1,-6l3,-5l9,-2l2,0l3,-11l3,-2l3,-5l4,-4l-2,-2z" fill="#362368" id="svg_48" transform="translate(1325,830)"/>
  <path d="m0,0l4,0l-1,5l-3,4l2,0l0,2l5,-3l-2,4l-4,6l-2,0l0,2l-2,0l-2,5l-8,11l-12,13l-7,6l-7,10l-5,5l-8,7l-5,7l-6,12l-6,10l-7,14l2,6l8,4l18,5l0,1l-7,0l-18,-6l-5,-3l-1,-2l0,-7l5,-9l5,-10l6,-10l6,-11l9,-11l6,-9l2,0l0,-2l2,0l2,-6l5,-5l8,-10l1,-2l2,0l0,-2l-2,0l-1,-2l-13,-1l-6,2l-11,2l-2,4l-2,0l0,2l-9,7l-4,2l-1,3l-7,6l-7,7l-1,2l-2,0l1,-20l3,-13l7,-4l2,0l0,-2l11,-5l17,-5l25,-8l3,0l1,-4l3,-2l15,-2z" fill="#362364" id="svg_49" transform="translate(1184,798)"/>
  <path d="m1332,608l2,0l-2,9l-5,13l-6,10l-13,13l-9,6l-13,5l-16,3l-10,0l-19,-5l-8,-4l-1,-4l10,-4l13,-7l3,0l0,-2l6,1l4,2l12,1l0,-2l7,-2l1,-5l6,-11l19,-9l6,-2l10,-5l3,-1z" fill="#bf055f" id="svg_50" transform="matrix(1 0 0 1 0 0)"/>
  <path d="m0,0l32,0l22,2l6,1l-1,4l-10,0l-9,-2l-17,-1l-32,0l-21,1l0,2l-7,3l-8,20l-5,10l-3,11l12,-3l27,-9l11,-3l44,-7l15,1l6,5l-3,1l-4,-2l-17,0l-39,7l-24,6l-23,7l-2,0l0,2l-9,3l-1,13l-1,2l-1,11l-1,2l-3,-1l-3,-8l-1,-12l0,-2l-7,2l-4,-1l9,-6l2,0l-1,-3l0,-22l1,-15l-1,-2l-11,2l-18,6l-1,-2l19,-8l11,-4l7,-2l38,-7l26,-2z" fill="#4F25D3" id="svg_51" transform="translate(765,819)"/>
  <path d="m1239,949l1,2l-1,15l-2,0l-1,13l-3,10l-5,12l-4,10l-1,5l-2,0l-3,10l-5,10l-2,0l0,3l-2,0l-1,5l-2,0l-1,5l-2,0l-1,4l-2,0l-2,5l-3,2l0,-37l-2,-26l-2,-13l0,-9l9,-6l7,-1l4,5l4,18l1,2l3,-3l9,-20l8,-17l3,-4z" fill="#6B76EB" id="svg_52" transform="matrix(1 0 0 1 0 0)"/>
  <path d="m0,0l9,0l3,4l2,9l-4,4l-10,4l-7,6l-6,2l-13,2l-17,1l-29,0l-6,-2l-10,-4l-9,-5l-7,-3l0,-2l-2,-1l1,-1l14,-1l4,-1l21,2l27,-2l16,-5l15,-5l8,-2z" fill="#3D2380" id="svg_53" transform="translate(1124,1256)"/>
  <path d="m0,0l17,1l11,3l12,5l7,-1l9,-4l15,-3l11,1l15,5l4,3l0,2l-10,2l-17,2l-9,3l-9,6l-3,4l-2,0l-1,6l-4,5l-2,3l-3,-1l-5,-8l-5,-5l-2,-4l-15,-6l-9,-3l-19,-5l-9,0l-3,-1l-1,-4l3,-2l24,-4z" fill="#2F2448" id="svg_54" transform="translate(1050,680)"/>
  <path d="m825,607l11,3l0,2l9,2l14,8l3,8l4,6l8,4l6,2l9,0l7,-3l6,0l10,6l12,9l0,3l-2,0l0,2l-8,2l-18,2l-17,-2l-4,-1l0,-2l-7,-1l-8,-3l-10,-6l-11,-10l0,-3l-3,-1l0,-3l-2,0l0,-3l-2,0l-5,-13l0,-2l-2,0l0,-6z" fill="#bf055f" id="svg_55" transform="matrix(1 0 0 1 0 0)"/>
  <path d="m1121,1213l3,1l-2,13l-4,8l-7,5l-14,0l-2,-1l-7,0l-3,1l-8,0l-2,-2l-6,0l-2,2l-8,0l-3,-2l-5,0l-3,2l-17,0l-7,-6l-3,-9l-1,-10l4,2l1,2l9,3l12,0l11,-3l6,-2l7,-1l17,1l11,4l10,1l8,-4l3,-1l2,-4z" fill="#bf055f" id="svg_56" transform="matrix(1 0 0 1 0 0)"/>
  <path d="m0,0l3,0l-1,4l-9,11l-7,7l-9,5l-5,5l-11,7l-9,6l-8,4l-2,2l-7,3l-11,6l-24,10l-18,5l-12,3l-23,3l-12,2l-16,1l-3,-1l-15,-1l-5,-2l3,-3l5,-1l0,-2l9,-4l17,-9l9,-5l15,-2l-1,3l-3,0l0,2l-3,1l-1,2l-3,0l-1,3l-3,1l-1,2l-3,1l-1,2l-7,3l-1,2l35,-6l30,-7l27,-9l19,-8l22,-12l17,-12l13,-11l7,-7l4,-4z" fill="#6B76EB" id="svg_57" transform="translate(1570,296)"/>
  <path d="m0,0l4,4l3,9l0,3l2,0l8,16l9,14l1,3l2,1l2,4l4,3l1,3l4,3l-1,4l-8,4l-6,-1l-8,-9l-2,-1l1,7l0,10l-3,10l-3,0l0,-2l-2,0l-2,-5l-2,-1l-4,-10l-1,-4l-2,0l-2,-10l0,-5l-2,0l-1,-7l0,-13l2,-12l4,-10l2,-8z" fill="#6A73EA" id="svg_58" transform="translate(961,1140)"/>
  <path d="m0,0l2,2l4,16l1,9l0,19l-1,7l-2,0l-1,14l-2,0l-1,5l-4,8l-6,5l-6,-9l0,-9l2,-7l0,-4l-12,8l-5,-1l-8,-3l1,-5l9,-10l8,-10l8,-11l6,-10l1,-2l2,0l3,-9l1,-3z" fill="#6A73EA" id="svg_59" transform="translate(1181,1144)"/>
  <path d="m0,0l17,1l10,2l16,-1l10,0l11,3l15,6l8,6l0,2l3,1l3,4l-1,3l-9,-3l-14,-5l-8,-2l-9,0l-9,2l-10,4l-4,2l-8,-1l-12,-5l-8,-2l-20,0l-5,1l-7,0l1,-4l1,-2l2,0l0,-2l8,-5l12,-4l7,-1z" fill="#4E24D2" id="svg_60" transform="translate(1066,663)"/>
  <path d="m0,0l20,0l25,2l0,1l-11,1l-9,8l-9,15l-5,10l32,0l8,3l14,3l1,6l-8,2l-1,3l0,14l2,2l-6,0l1,-3l1,-17l2,-1l6,0l1,-5l-15,-1l-13,-1l-32,0l-16,1l-14,0l1,-6l8,-13l7,-9l10,-15z" fill="#3D2383" id="svg_61" transform="translate(761,778)"/>
  <path d="m0,0l8,0l0,9l-2,10l-2,2l-1,11l-9,1l-7,2l-7,1l0,2l-6,3l-16,4l-3,0l-1,-5l5,-25l2,-6l2,-1l8,0l1,-3l16,-2l12,-3z" fill="#2F244A" id="svg_62" transform="translate(787,856)"/>
  <path d="m1239,937l4,0l-1,7l-2,5l-4,7l-11,22l-6,14l-4,2l-5,-21l-3,-4l-7,1l-8,5l-1,6l-2,-4l-7,-22l1,-2l34,-9l18,-6l4,-1z" fill="#bf055f" id="svg_63" transform="matrix(1 0 0 1 0 0)"/>
  <path d="m0,0l21,0l14,7l7,6l6,11l1,4l0,10l-3,11l-6,10l-4,9l-4,11l-3,9l0,19l4,25l4,18l0,11l-4,15l-6,7l-2,0l-2,4l-4,3l-5,2l-6,0l15,-12l6,-9l3,-11l0,-14l-3,-22l-3,-21l0,-10l4,-17l13,-29l2,-6l0,-14l-7,-14l-9,-6l-9,-3l-19,0l-12,2l-10,7l-9,8l-8,11l-5,13l-3,12l-4,-2l-4,-9l-8,-11l-1,-3l-4,-2l-12,-8l-14,-4l-10,0l-15,2l-5,3l-10,1l-3,-1l-1,16l1,19l2,10l-4,-1l-2,-27l1,-14l3,-11l5,-7l11,-6l8,0l1,5l-8,6l0,2l15,-1l11,0l12,3l8,5l11,8l8,9l4,6l0,2l4,0l2,-10l6,-11l6,-8l6,-5l5,-5l10,-6l11,-2z" fill="#362464" id="svg_64" transform="translate(1120,999)"/>
  <path d="m0,0l4,2l10,15l8,16l2,7l2,0l1,8l2,0l5,17l2,16l2,0l3,32l1,18l0,71l-1,18l-3,17l-3,3l2,-22l1,-9l0,-30l-1,-29l-3,-29l-6,-32l-7,-27l-10,-33l-8,-20l-3,-9z" fill="#6B76EB" id="svg_65" transform="translate(1535,681)"/>
  <path d="m0,0l14,0l31,3l15,6l6,3l0,3l5,2l11,8l7,8l6,7l0,2l2,0l1,7l-1,4l2,0l3,-13l3,-7l3,-3l2,0l2,-4l8,-8l14,-8l11,-4l18,-3l17,0l-3,2l-26,5l-16,5l-9,5l-7,6l-2,0l0,3l-2,0l-5,10l-4,16l-3,9l-2,9l-4,0l-3,-12l-6,-12l-12,-18l-7,-7l-14,-7l-17,-6l-19,-4l-22,-3l-2,-2l5,-2z" fill="#2F2449" id="svg_66" transform="translate(970,328)"/>
  <path d="m0,0l2,4l1,23l1,1l1,31l2,32l3,31l6,20l5,10l4,7l4,11l9,17l4,5l0,2l4,2l4,5l26,14l8,4l14,4l6,1l5,3l10,3l6,1l28,0l12,3l10,0l5,-2l16,-1l19,-5l9,-4l18,-9l7,-6l9,-5l6,-4l6,-8l5,-4l2,0l2,-4l2,0l0,-2l5,-3l8,-13l2,-2l-1,5l-9,14l-7,8l-8,7l-8,8l-21,14l-26,11l-18,5l-18,3l-36,0l-28,-4l-21,-6l-15,-6l-21,-11l-11,-6l-5,-4l-7,-9l-7,-11l-8,-16l-9,-25l-4,-15l-4,-28l-2,-34l-2,-54l0,-8z" fill="#38236E" id="svg_67" transform="translate(912,1095)"/>
  <path d="m0,0l23,0l0,2l7,0l21,5l12,4l16,8l7,3l1,2l6,3l0,20l4,15l0,7l-6,1l-4,-7l-5,-13l-4,-10l-4,-6l-3,-3l-3,-5l-7,-5l-16,-6l-25,-2l-8,-2l-4,-3l-3,-1l-1,-2l-5,-3l1,-2z" fill="#4E24D2" id="svg_68" transform="translate(993,803)"/>
  <path d="m920,935l11,3l44,15l1,1l-1,8l-3,8l-3,-1l-2,4l-5,-1l-4,-4l-7,-1l-2,5l-4,7l-4,-1l-7,-13l-1,-3l-8,1l-3,1l-2,-8l-1,-19l1,-2z" fill="#bf055f" id="svg_69" transform="matrix(1 0 0 1 0 0)"/>
  <path d="m0,0l10,0l13,3l9,3l26,13l1,3l4,2l5,3l0,2l4,2l5,4l7,6l3,5l7,6l0,2l4,2l0,2l5,2l4,8l3,5l0,2l2,0l5,7l2,1l0,3l2,0l7,12l3,9l5,12l-1,3l-13,-26l-6,-8l0,-2l-2,0l-8,-11l-4,-6l0,-2l-2,0l-2,-5l-4,-2l-10,-10l-2,-6l-2,0l0,-2l-3,0l-3,-3l-9,-5l-1,-2l-4,-2l0,-2l-2,0l-4,-4l0,-2l-4,-1l-10,-5l-12,-5l-4,-2l-17,-4l-23,0l-13,3l-14,7l0,3l3,0l5,-1l9,0l4,-1l10,0l10,2l0,1l-23,0l-9,2l-11,8l-3,1l-7,0l-7,7l-3,-1l4,-11l11,-10l21,-10l10,-3l19,-2z" fill="#362364" id="svg_70" transform="translate(1342,452)"/>
  <path d="m0,0l2,1l-1,12l-2,6l-2,12l-2,2l-4,12l-2,5l-3,5l-5,13l-5,9l-3,6l-4,4l-2,0l-1,5l-4,1l-1,3l-6,5l-5,5l-10,9l-17,10l-9,5l-8,3l-9,4l-5,2l-7,0l0,2l-6,3l-22,5l-33,0l-13,-3l-13,-5l-12,-5l-16,-8l-8,-7l3,0l8,6l26,10l15,3l2,1l11,1l26,0l11,-1l23,-5l25,-9l14,-8l12,-9l2,0l0,-2l8,-7l13,-13l10,-14l12,-20l10,-22l5,-21l-1,-7l3,-4z" fill="#3D2380" id="svg_71" transform="translate(1220,1231)"/>
  <path d="m0,0l18,0l7,2l20,4l3,2l2,8l2,17l1,6l-8,0l-14,-3l-8,-10l-5,-2l0,-2l-2,0l-4,-5l-2,-1l0,-2l-3,-1l-7,-10l-2,-2l2,-1z" fill="#2F2448" id="svg_72" transform="translate(1335,832)"/>
  <path d="m0,0l43,0l1,4l-5,13l-3,6l-12,1l-10,4l-7,2l-6,2l-8,0l0,-9l6,-15l1,-8z" fill="#2F2448" id="svg_73" transform="translate(761,824)"/>
  <path d="m0,0l6,0l-3,2l-2,0l0,3l-6,2l-1,6l15,6l1,2l0,6l-5,5l-10,4l-3,3l-6,1l-3,2l-1,3l7,2l-1,4l-8,7l-4,1l8,-8l1,-2l-39,3l-6,1l-4,-2l4,-3l20,-9l14,-4l30,-5l3,-4l0,-5l-9,-4l-5,-1l-27,0l-21,4l-6,0l0,-2l8,-4l15,-5l19,-5l19,-4z" fill="#362464" id="svg_74" transform="translate(1282,845)"/>
  <path d="m0,0l3,1l-6,3l-6,6l-5,0l-2,4l-5,4l-22,7l-16,9l-9,8l-9,12l-5,8l-2,0l1,-20l3,-13l7,-4l2,0l0,-2l11,-5l17,-5l35,-11l8,-2z" fill="#4F25D3" id="svg_75" transform="translate(1180,801)"/>
  <path d="m0,0l4,1l-1,7l-3,8l-3,6l-4,2l0,2l-7,4l-6,10l-3,4l-1,4l2,3l6,-1l9,-3l9,-6l8,-8l3,-1l-2,4l-9,10l-8,7l-14,9l-6,2l-5,-3l-4,-5l-3,-8l7,-9l18,-18l8,-11l1,-2l-6,1l-30,10l-24,4l-15,0l-17,-4l-7,-3l4,-1l9,3l12,2l17,0l19,-3l33,-11l3,-2l3,0l1,-3l2,-1z" fill="#362364" id="svg_76" transform="translate(1481,429)"/>
  <path d="m0,0l11,3l0,2l9,2l14,8l3,8l6,9l-6,-1l-8,-5l3,7l10,10l7,4l0,3l11,2l0,1l-10,-1l-14,-4l-11,-7l-11,-10l0,-3l-3,-1l0,-3l-2,0l0,-3l-2,0l-5,-13l0,-2l-2,0l0,-6z" fill="#6B76EB" id="svg_77" transform="translate(825,607)"/>
  <path d="m0,0l17,0l2,2l-7,1l-2,7l0,6l8,9l2,3l14,1l2,3l0,6l-2,-3l-1,-4l-9,0l-18,2l-27,6l-14,4l-3,-1l2,0l0,-2l13,-3l1,-1l9,0l0,-11l2,-2l3,-19l-17,3l-8,2l-10,0l4,-2l39,-7z" fill="#4F25D3" id="svg_78" transform="translate(803,852)"/>
  <path d="m0,0l17,1l11,3l12,5l7,-1l9,-4l15,-3l11,1l15,5l4,3l0,2l-10,2l-17,2l2,-2l7,-1l-1,-3l-2,-1l-11,0l-10,3l-21,-1l-8,-4l-18,-4l-9,0l0,4l4,2l6,5l8,3l11,8l3,4l0,2l5,2l2,4l0,4l2,0l1,-3l1,2l-2,3l-3,-1l-5,-8l-5,-5l-2,-4l-15,-6l-9,-3l-19,-5l-9,0l-3,-1l-1,-4l3,-2l24,-4z" fill="#362464" id="svg_79" transform="translate(1050,680)"/>
  <path d="m0,0l1,0l2,7l1,3l0,14l-4,17l0,6l-3,7l-7,10l-11,14l-11,11l-11,9l-10,7l-2,0l-1,4l-5,0l-2,6l-3,2l-9,2l-13,10l-6,4l-2,0l-1,4l-7,3l-2,-1l-1,-3l0,-7l4,-15l2,-12l2,-6l3,-23l2,-10l2,-20l0,-11l-1,-11l3,1l1,14l-1,22l-4,27l-7,36l-2,7l0,6l9,-6l11,-8l36,-24l10,-8l10,-9l10,-11l7,-10l5,-10l4,-16l1,-5l0,-27z" fill="#37236B" id="svg_80" transform="translate(1481,861)"/>
  <path d="m0,0l31,1l17,2l16,5l8,2l0,1l-12,0l-25,-3l-35,0l-27,2l-22,4l-7,3l-4,2l-1,2l-5,0l-4,-5l0,-2l9,-5l22,-5l14,-2l25,-2z" fill="#6B77EB" id="svg_81" transform="translate(1363,747)"/>
  <path d="m0,0l6,1l-4,3l-9,4l-4,5l-8,17l-15,16l-13,11l-9,4l-15,6l-10,3l-10,2l-18,1l-9,0l-9,2l-1,5l6,5l0,2l5,2l9,7l0,5l-2,-4l-6,-4l-10,-8l-14,-10l-1,-5l3,-2l18,-3l12,0l7,2l14,0l15,-4l17,-7l6,-5l5,-2l0,-2l4,-3l2,0l0,-2l8,-6l3,-4l2,0l8,-16l3,-8l5,-5l9,-3z" fill="#362464" id="svg_82" transform="translate(1371,610)"/>
  <path d="m0,0l9,2l8,7l0,2l4,2l0,2l2,0l4,9l3,5l6,11l3,4l0,4l-5,0l-9,-8l-2,-1l0,-2l-2,0l0,-2l-4,-1l-5,-5l-17,-12l-1,-3l-2,0l-3,-4l1,-5l6,-4l4,-1z" fill="#4F25D3" id="svg_83" transform="translate(923,743)"/>
  <path d="m0,0l24,0l6,1l0,1l-25,0l-3,2l22,3l23,5l20,8l9,6l7,7l14,22l5,13l1,6l2,0l4,-15l4,-13l2,-9l5,-7l2,0l0,-3l12,-9l4,-1l-4,4l-9,7l-7,10l-3,12l-2,12l-3,7l-5,13l-3,0l-2,-3l-2,-15l-8,-16l-8,-11l-7,-4l-2,-1l0,-2l-6,-2l0,-2l-6,-2l-9,-4l-30,-7l-8,-3l-10,-2l-14,0l-7,2l-6,0l-1,-2l4,-1l3,-3l9,-3l8,-1z" fill="#362464" id="svg_84" transform="translate(965,327)"/>
  <path d="m0,0l4,4l5,9l7,13l3,6l3,4l5,13l6,15l5,14l5,13l3,7l5,17l4,9l4,11l0,5l-7,-1l-11,-4l3,-1l10,2l-1,-6l-8,-15l-10,-26l-2,-5l-3,-9l-5,-12l-8,-15l-6,-11l-3,-6l-1,-8l2,-3l-4,-9l-5,-9l0,-2z" fill="#362464" id="svg_85" transform="translate(1511,546)"/>
  <path d="m0,0l30,1l17,2l10,3l14,4l8,2l1,6l-2,0l-1,3l-5,-1l-8,-4l-6,-1l0,-2l-8,-1l-19,-3l-11,-1l-36,-1l-28,3l-5,1l-7,0l4,-4l8,-2l15,-3l29,-2z" fill="#6B75EB" id="svg_86" transform="translate(767,770)"/>
  <path d="m976,1200l4,2l6,7l6,1l6,-3l2,0l-1,-6l3,1l0,2l4,1l1,5l-5,12l-12,20l-5,1l-5,-4l-8,-10l0,-2l2,0l2,-10l0,-17z" fill="#bf055f" id="svg_87" transform="matrix(1 0 0 1 0 0)"/>
  <path d="m0,0l2,1l-7,11l-11,12l-10,7l-15,7l-5,1l-22,0l-10,-1l4,-4l11,-6l3,0l0,-2l6,1l4,2l12,1l0,-2l7,-2l1,-5l6,-11l19,-9l5,-1z" fill="#6A72EA" id="svg_88" transform="translate(1318,615)"/>
  <path d="m1167,1199l1,0l-1,9l-1,3l0,9l4,6l2,5l-9,10l-4,3l-4,-2l-8,-16l-7,-15l0,-8l2,-1l0,2l4,1l5,2l6,-1l8,-6l2,-1z" fill="#bf055f" id="svg_89" transform="matrix(1 0 0 1 0 0)"/>
  <path d="m0,0l3,0l-1,8l-1,30l2,15l4,18l1,9l-4,1l-10,-6l-5,-5l-14,-10l-14,-12l-10,-8l-2,-1l0,-2l-4,-2l-5,-10l-6,1l-9,4l-5,-1l0,-2l9,-5l2,1l-1,2l7,-3l6,0l4,6l0,2l2,0l5,8l6,4l7,7l8,5l5,5l6,3l9,4l2,1l1,-13l-1,-17l0,-19l-1,-9l-2,-5l6,-4z" fill="#362464" id="svg_90" transform="translate(743,907)"/>
  <path d="m0,0l24,0l0,1l-22,1l1,2l4,2l0,2l5,1l4,3l17,2l14,1l16,6l8,6l6,8l5,8l3,8l6,15l2,4l6,0l-3,-15l-2,-7l0,-12l1,-6l1,0l2,18l2,12l4,0l-1,-15l-1,-6l3,-7l4,-4l-2,13l-2,20l2,0l1,-3l1,2l-6,8l-4,8l-1,1l-5,0l-6,-9l-14,-28l0,-2l-2,0l0,-3l-2,0l-3,-5l-5,-5l-6,-4l-11,-3l-29,-2l-6,-3l-7,-6l-2,-3l0,-4z" fill="#3C237E" id="svg_91" transform="translate(991,802)"/>
  <path d="m0,0l13,4l2,5l-1,7l-6,8l-8,4l-8,3l-25,5l-5,0l4,-2l33,-8l7,-4l1,-8l-2,-4l-8,-1l-19,2l-15,4l-21,5l-16,8l-5,2l-1,-6l10,-6l17,-10l10,-5l3,1l-16,9l-2,2l6,0l6,-3l11,-3l3,-2l8,-2l15,-2l3,-2l6,-1z" fill="#3D2380" id="svg_92" transform="translate(1296,814)"/>
  <path d="m0,0l1,2l-4,12l0,11l5,10l9,10l11,6l11,2l88,1l-1,2l-13,2l-11,3l-12,-1l-22,0l-7,1l-11,-2l-15,-3l-13,-3l-8,-5l-7,-8l-7,-10l-3,-1l-4,-8l0,-3l2,0l1,-3l2,0l2,-5l6,-10z" fill="#37236B" id="svg_93" transform="translate(991,1141)"/>
  <path d="m0,0l2,0l-2,6l-9,10l-2,0l0,2l-13,8l-8,3l-10,2l-12,1l-12,0l-15,-3l-14,-6l-9,-6l-1,-3l8,1l7,3l9,1l0,2l9,1l24,2l14,-1l9,-5l6,-1l0,-2l6,-3l8,-6l5,-6z" fill="#6C78EC" id="svg_94" transform="translate(1135,1154)"/>
  <path d="m0,0l4,3l3,7l0,11l-2,8l-6,10l-5,6l-10,7l-9,3l-11,0l-15,-6l0,-2l-2,0l0,-2l-2,0l-1,-3l5,-1l13,4l7,2l0,-2l10,-2l10,-6l6,-7l4,-8l1,-3l0,-19z" fill="#6C78EC" id="svg_95" transform="translate(1204,552)"/>
  <path d="m0,0l9,0l25,4l13,1l5,2l0,2l-26,2l-20,1l-4,1l-16,2l-9,3l-3,-1l14,-5l18,-4l12,-2l-14,0l-18,3l-15,6l-11,7l-8,8l-1,2l-2,0l-1,3l-2,1l-3,8l-2,9l-1,2l-2,0l0,-11l-2,0l-6,-8l-3,-3l0,-2l-4,-2l0,-2l-4,-2l-12,-8l0,-2l5,2l13,10l11,11l3,5l2,1l3,-9l4,-5l5,-4l5,-5l8,-6l9,-6l7,-4l5,0l3,-1l0,-2l9,-1l1,-1z" fill="#362464" id="svg_96" transform="translate(1129,326)"/>
  <path d="m0,0l9,0l1,3l-15,7l-8,4l-11,10l-5,4l-7,10l-4,11l-1,14l2,15l5,12l2,3l0,5l2,0l3,7l2,2l6,12l7,6l0,3l3,1l5,3l0,2l6,2l8,3l19,2l13,-1l0,1l-11,2l-16,0l-12,-3l-9,-4l-10,-7l-7,-8l-7,-11l-6,-13l-5,-15l-3,-17l0,-14l2,-9l3,-6l7,-10l11,-10l14,-9l5,-2l-3,-1l-4,-1l9,-3z" fill="#362464" id="svg_97" transform="translate(939,505)"/>
  <path d="m0,0l5,1l18,1l21,3l15,4l0,2l8,1l20,5l16,6l20,7l8,4l1,2l-9,-1l-8,-3l-22,-7l-13,-4l-12,-3l-17,-5l-27,-5l-7,-1l-21,0l1,-3l2,-2l1,-2z" fill="#6A74EA" id="svg_98" transform="translate(1305,859)"/>
  <path d="m0,0l16,0l21,4l10,4l3,3l0,3l-4,1l-16,-2l-8,1l-3,4l-6,-1l-4,-3l-13,-3l-7,-1l-1,-2l5,-5l7,-3z" fill="#4F25D3" id="svg_99" transform="translate(1075,641)"/>
  <path d="m0,0l29,0l19,2l1,1l23,4l31,10l13,5l15,7l9,5l-3,1l-42,-15l-23,-7l-21,-5l-26,-4l-16,0l-7,2l-5,0l2,-5l1,-1z" fill="#6B75EB" id="svg_100" transform="translate(1316,827)"/>
  <path d="m0,0l4,0l0,2l-4,2l-4,4l-8,4l-13,-2l-8,-3l-17,-1l-11,2l-8,3l-5,1l-12,0l-10,-4l-4,-5l12,1l9,-3l9,0l13,2l4,-1l15,0l16,2l20,-2l2,-2z" fill="#3B247B" id="svg_101" transform="translate(1120,1211)"/>
  <path d="m0,0l3,1l-3,6l-3,3l-15,6l-8,-1l-14,-5l-11,0l-6,3l-25,0l-16,2l-2,-3l-1,-10l4,2l1,2l9,3l12,0l11,-3l6,-2l7,-1l17,1l11,4l10,1l8,-4l3,-1l2,-4z" fill="#6B77EB" id="svg_102" transform="translate(1121,1213)"/>
  <path d="m0,0l9,0l2,5l0,3l-7,0l-5,-1l-12,1l-30,5l-54,15l-16,5l-3,-1l25,-10l13,-5l37,-10l23,-5l18,-2z" fill="#6B77EB" id="svg_103" transform="translate(827,882)"/>
  <path d="m0,0l13,1l11,1l16,6l3,3l-2,4l-13,4l-10,5l-12,2l-5,1l5,8l5,5l-5,-2l-6,-5l-6,-4l0,-4l5,-2l16,-3l13,-4l5,-5l-6,-4l-6,-1l-15,-1l-30,0l-23,3l-23,6l-9,2l2,-2l25,-8l13,-3l19,-2l20,-1z" fill="#362464" id="svg_104" transform="translate(1413,569)"/>
  <path d="m0,0l2,1l-7,10l-4,13l-4,1l-3,-5l-2,-1l0,-2l-5,-2l-4,-3l-5,1l0,3l8,12l7,9l8,18l6,14l2,9l4,8l-1,5l-5,-1l-2,-2l4,0l-1,-6l-9,-19l-5,-12l-12,-21l-3,-3l-2,-4l-3,-1l-2,-4l-2,-12l6,-1l10,5l5,4l6,4l4,-2l4,-10l5,-6z" fill="#362464" id="svg_105" transform="translate(894,527)"/>
  <path d="m0,0l21,0l24,2l26,5l21,6l16,6l-3,1l-17,-5l-9,-2l-7,-2l-18,-2l-2,-1l-15,-2l-15,-1l-25,0l-21,2l-9,2l-6,0l0,-4l27,-4l12,-1z" fill="#717CEC" id="svg_106" transform="translate(1355,795)"/>
  <path d="m0,0l13,1l7,3l8,3l7,5l0,2l2,0l0,2l4,1l6,8l4,5l0,2l-5,-1l-14,-10l-11,-6l-11,-4l-15,-4l-4,-4l9,-3z" fill="#362364" id="svg_107" transform="translate(1e3 729)"/>
  <path d="m0,0l1,3l-9,15l-7,7l-4,5l-8,7l-9,8l-17,11l-26,11l-18,5l-18,3l-36,0l-22,-3l0,-1l15,1l8,1l30,0l5,-3l16,-1l19,-5l9,-4l18,-9l7,-6l9,-5l6,-4l6,-8l5,-4l2,0l2,-4l2,0l0,-2l5,-3l8,-13l1,-2z" fill="#362364" id="svg_108" transform="translate(1207,1257)"/>
  <path d="m0,0l16,1l6,5l-3,1l-4,-2l-17,0l-39,7l-24,6l-23,7l-21,8l-3,-1l16,-8l35,-12l18,-5l43,-7z" fill="#6B77EB" id="svg_109" transform="translate(805,848)"/>
  <path d="m0,0l4,1l4,7l0,3l4,2l8,5l11,1l8,-2l10,-6l7,-6l2,-3l3,0l-1,6l-7,8l-8,6l-6,3l-5,1l-12,0l-11,-4l-8,-9l-3,-7l0,-6z" fill="#6B77EB" id="svg_110" transform="translate(937,581)"/>
  <path d="m0,0l5,1l10,6l-3,1l-3,-1l6,10l9,12l5,5l1,3l4,2l6,7l4,11l6,9l3,8l4,9l5,12l4,16l4,1l0,2l2,1l-3,1l-1,6l-2,-4l-1,-8l-3,-1l-2,-9l-7,-15l-11,-23l-6,-11l-7,-11l0,-2l-2,0l-7,-11l-10,-13l-9,-11l-1,-3z" fill="#37236B" id="svg_111" transform="translate(1406,706)"/>
  <path d="m1150,957l15,0l3,4l0,7l-3,5l-3,2l-1,3l-3,0l0,2l-10,0l-3,-8l1,-11l4,-4z" fill="#bf055f" id="svg_112" transform="matrix(1 0 0 1 0 0)"/>
  <path d="m0,0l16,6l14,6l12,4l17,2l10,1l14,0l19,-1l15,-3l7,-1l-3,2l-13,4l-22,3l-32,0l-12,-2l-15,-3l0,-2l-7,-1l0,-2l-3,-1l0,-2l-5,-1l-11,-6l-1,-3z" fill="#362464" id="svg_113" transform="translate(914,913)"/>
  <path d="m1120,958l14,0l4,3l-1,6l-5,8l-6,4l-3,3l-4,0l-2,-8l-2,0l0,-9l2,-5l3,-2z" fill="#bf055f" id="svg_114" transform="matrix(1 0 0 1 0 0)"/>
  <path d="m0,0l11,1l0,2l10,3l2,1l0,2l6,2l7,4l0,2l8,4l0,2l4,2l10,9l5,5l6,5l0,2l4,2l8,9l6,5l8,10l-1,2l-19,-19l-4,-3l0,-2l-4,-2l-10,-9l-7,-7l0,-2l-4,-1l-12,-9l-21,-13l-13,-6l0,-1z" fill="#6F77EB" id="svg_115" transform="translate(1344,474)"/>
  <path d="m0,0l2,2l7,24l4,28l1,12l0,41l4,9l5,10l-1,2l-6,-10l0,-2l-3,-1l-5,-10l0,-10l2,-14l-2,-46l-3,-9l-4,-19l-1,-7z" fill="#362367" id="svg_116" transform="translate(895,1151)"/>
  <path d="m0,0l32,0l22,2l6,1l-1,4l-10,0l-9,-2l-17,-1l-32,0l-21,2l-28,5l-8,2l-4,-1l6,-3l38,-7l26,-2z" fill="#6F7BEC" id="svg_117" transform="translate(765,819)"/>
  <path d="m0,0l0,3l-6,9l-12,13l-12,11l-12,9l-10,5l-15,10l-16,10l-25,16l-13,10l-9,7l-2,-1l9,-8l12,-9l2,0l0,-2l16,-10l9,-6l6,-3l19,-12l15,-10l11,-9l8,-7l14,-14l4,-2l4,-8l3,-2z" fill="#362464" id="svg_118" transform="translate(1491,941)"/>
  <path d="m0,0l3,1l1,14l-1,22l-4,27l-7,36l-2,7l0,6l9,-6l7,-5l2,1l-10,8l-2,5l-7,3l-2,-1l-1,-3l0,-7l4,-15l2,-12l2,-6l3,-23l2,-10l2,-20l0,-11l-1,-11z" fill="#38236C" id="svg_119" transform="translate(1388,882)"/>
  <path d="m0,0l18,2l0,1l-8,1l0,17l-2,3l10,0l1,3l2,0l-1,3l-5,-4l-21,-1l0,-7l5,-13l1,-5z" fill="#4E24D0" id="svg_120" transform="translate(806,824)"/>
  <path d="m1057,959l13,0l5,2l1,7l-2,5l-2,0l-2,6l-1,2l-5,-1l-6,-7l-3,-6l0,-6l2,-2z" fill="#bf055f" id="svg_121" transform="matrix(1 0 0 1 0 0)"/>
  <path d="m0,0l6,0l-5,4l-15,9l-8,7l-10,14l-8,21l-2,-1l1,-11l5,-14l9,-12l7,-7l12,-7l8,-3z" fill="#6C78EC" id="svg_122" transform="translate(1137,702)"/>
  <path d="m1088,960l16,0l2,1l1,5l-4,10l-2,0l-1,3l-7,1l-4,-5l-3,-6l0,-8l2,-1z" fill="#bf055f" id="svg_123" transform="matrix(1 0 0 1 0 0)"/>
  <path d="m0,0l3,3l4,34l0,57l-2,24l-1,9l-1,0l0,-84l-2,-29l-1,-14z" fill="#4324A0" id="svg_124" transform="translate(1573,769)"/>
  <path d="m0,0l3,1l-16,8l-23,7l-24,7l-9,4l-6,1l2,-3l2,0l0,-2l11,-5l17,-5l35,-11l8,-2z" fill="#6A74EA" id="svg_125" transform="translate(1180,801)"/>
  <path d="m0,0m-2,1l2,0l0,2l-11,5l-28,9l-19,3l-17,0l-16,-3l-13,-5l0,-3l13,4l4,1l10,0l11,1l4,1l14,0l10,-2l20,-8l6,-3l10,-2z" fill="#362464" id="svg_126" transform="translate(1478,430)"/>
  <path d="m0,0l7,1l6,3l11,3l11,5l13,5l12,6l0,2l-8,-1l-19,-7l-16,-5l-5,-3l-10,-3l-2,-1l0,-5z" fill="#2F2548" id="svg_127" transform="translate(855,796)"/>
  <path d="m0,0l9,0l12,2l1,2l-3,1l-3,3l-11,3l-12,0l-10,-4l-4,-5l12,1l9,-3z" fill="#3A2478" id="svg_128" transform="translate(1041,1212)"/>
  <path d="m0,0l2,1l-2,3l-2,0l-2,4l-5,5l-10,5l-27,9l-2,0l-2,4l-2,0l0,2l-9,7l-4,2l-1,3l-7,6l-3,3l0,-3l6,-8l5,-6l10,-8l15,-8l20,-6l6,-5l1,-2l6,-2l7,-6z" fill="#3E2385" id="svg_129" transform="translate(1179,803)"/>
  <path d="m0,0l1,2l-4,12l0,11l5,10l9,10l11,6l8,1l0,1l-14,0l-8,-5l-7,-8l-7,-10l-3,-1l-4,-8l0,-3l2,0l1,-3l2,0l2,-5l6,-10z" fill="#3A2377" id="svg_130" transform="translate(991,1141)"/>
  <path d="m0,0l10,0l25,5l15,5l16,8l7,3l1,2l3,1l2,3l-1,3l-12,-8l-10,-5l-15,-6l-13,-3l-6,-2l-15,-2l-7,-3l0,-1z" fill="#6B77EB" id="svg_131" transform="translate(1006,804)"/>
  <path d="m0,0l5,1l-2,22l-8,22l-7,14l-6,9l-2,0l-1,4l-2,0l-1,4l-4,4l11,2l0,1l-6,1l-10,0l1,-4l10,-11l10,-16l6,-14l5,-15l2,-12l0,-8l-5,3l-3,1l-2,4l-1,-3l2,0l1,-4l4,-4l3,-1z" fill="#392372" id="svg_132" transform="translate(1536,389)"/>
  <path d="m0,0l2,0l4,18l0,11l-4,15l-6,7l-2,0l-2,4l-4,3l-5,2l-6,0l15,-12l6,-9l3,-11l0,-14l-1,-14z" fill="#37236A" id="svg_133" transform="translate(1151,1131)"/>
  <path d="m0,0l8,0l11,4l16,9l13,11l4,5l-1,1l-33,5l-5,0l0,3l-2,0l1,-5l4,-1l4,1l0,-2l2,-1l16,-2l4,-3l-1,-4l-2,-1l0,-2l-6,-2l-11,-7l-8,-5l-8,-1l-7,-1l1,-2z" fill="#38236E" id="svg_134" transform="translate(1303,765)"/>
  <path d="m0,0l13,0l0,1l-11,1l-9,8l-9,15l-5,10l32,0l8,3l14,3l1,6l-8,2l-1,3l0,14l2,2l-6,0l1,-3l1,-17l2,-1l6,0l1,-5l-15,-1l-4,-2l-22,-2l-15,0l1,-6l6,-9l9,-14l3,-3l1,-4l4,-1z" fill="#362365" id="svg_135" transform="translate(793,780)"/>
  <path d="m0,0l1,0l0,12l-3,12l-4,7l-3,4l-2,0l-1,4l-9,11l-5,5l-7,6l-5,5l-4,2l-2,4l-3,0l-2,4l-3,0l0,2l-4,1l-2,4l-8,5l-6,1l3,-3l15,-10l11,-9l8,-7l7,-6l7,-8l10,-13l8,-16l2,-7l1,-10z" fill="#3A2375" id="svg_136" transform="translate(1584,294)"/>
  <path d="m0,0l1,0l2,7l1,3l0,14l-4,17l0,6l-3,7l-7,10l-8,10l-8,7l-3,3l-2,-1l10,-10l11,-15l5,-10l4,-16l1,-5l0,-27z" fill="#392371" id="svg_137" transform="translate(1481,861)"/>
  <path d="m0,0l1,2l-10,19l-9,19l-10,19l-12,24l-12,20l-8,11l-1,2l-2,0l-1,3l-1,-2l12,-17l9,-15l5,-9l3,-9l5,-9l2,0l2,-6l22,-44l5,-8z" fill="#3B237A" id="svg_138" transform="translate(597,561)"/>
  <path d="m0,0l4,0l-1,4l-5,5l1,-4l-6,1l-30,10l-24,4l-15,0l-17,-4l-7,-3l4,-1l9,3l12,2l17,0l19,-3l33,-11l6,-3z" fill="#3D2380" id="svg_139" transform="translate(1478,432)"/>
  <path d="m1000,961l1,2l6,-1l6,1l-1,5l-3,8l-1,1l-6,0l-5,-4l-2,-3l0,-4l5,-5z" fill="#6B75EB" id="svg_140" transform="matrix(1 0 0 1 0 0)"/>
  <path d="m1117,966l4,1l13,0l1,4l-5,6l-4,2l-3,3l-4,0l-2,-8l-2,0l1,-7l1,-1z" fill="#696FE9" id="svg_141" transform="matrix(1 0 0 1 0 0)"/>
  <path d="m0,0l8,0l-2,5l-8,8l-9,7l-2,0l-2,4l-18,12l-4,2l-3,0l-1,3l-2,0l1,3l0,5l4,5l-1,2l-9,-11l2,-4l2,0l1,-3l23,-14l14,-11l10,-9l1,-3l-12,4l-6,0l0,-1l13,-4z" fill="#392370" id="svg_142" transform="translate(1532,466)"/>
  <path d="m1043,966l4,1l0,7l-6,7l-5,0l-6,-8l-2,-1l0,-5l13,0l2,-1z" fill="#6A74EA" id="svg_143" transform="matrix(1 0 0 1 0 0)"/>
  <path d="m1029,957l10,0l5,3l3,4l-1,3l-5,1l-11,0l-2,-1l-1,2l-1,-2l0,-7l3,-3z" fill="#bf055f" id="svg_144" transform="matrix(1 0 0 1 0 0)"/>
  <path d="m0,0l6,3l0,2l4,2l21,13l10,5l7,4l-1,4l-7,9l0,-3l3,-8l-2,-2l-4,-1l0,-2l-6,-1l-10,-7l-4,-3l0,-2l-6,-1l-6,-4l0,-2l-2,0l-3,-6z" fill="#3A2375" id="svg_145" transform="translate(585,481)"/>
  <path d="m0,0l2,1l-7,4l-9,4l-4,0l-1,3l-2,1l-9,1l-5,2l-24,4l-17,0l-16,-1l-5,-1l0,-1l41,0l30,-7l20,-7l6,-3z" fill="#362464" id="svg_146" transform="translate(1234,917)"/>
  <path d="m0,0l0,3l-6,9l-12,13l-12,11l-12,9l-5,2l4,-6l14,-11l18,-18l4,-2l4,-8l3,-2z" fill="#38236C" id="svg_147" transform="translate(1491,941)"/>
  <path d="m0,0l19,0l-1,5l-3,2l-1,3l-3,0l0,2l-10,0l-3,-8l0,-3l2,-1z" fill="#6B75EB" id="svg_148" transform="translate(1147,968)"/>
  <path d="m0,0l2,0l5,15l3,7l2,17l0,31l-1,11l-1,0l-1,-34l-1,-12l-4,-17l-4,-15l0,-3z" fill="#392373" id="svg_149" transform="translate(1494,677)"/>
  <path d="m0,0l5,0l7,6l5,6l2,1l0,2l4,2l8,9l6,5l8,10l-1,2l-19,-19l-4,-3l0,-2l-4,-2l-10,-9l-7,-7l0,-1z" fill="#6971EA" id="svg_150" transform="translate(1394,505)"/>
  <path d="m0,0l5,2l13,10l11,11l3,5l2,1l3,-9l4,-5l5,-4l5,-5l3,-2l-2,4l-7,7l-1,2l-2,0l-1,3l-2,1l-3,8l-2,9l-1,2l-2,0l0,-11l-2,0l-6,-8l-3,-3l0,-2l-4,-2l0,-2l-4,-2l-12,-8l0,-2z" fill="#362364" id="svg_151" transform="translate(1036,341)"/>
  <path d="m0,0l1,0l2,15l1,17l0,36l2,-1l-1,4l-4,-1l-1,-6l1,-32l-1,-32z" fill="#4424A1" id="svg_152" transform="translate(1192,991)"/>
  <path d="m0,0l5,3l6,5l0,3l-11,-1l-18,-1l-5,-1l-1,3l-2,0l2,-6l20,0l4,-5z" fill="#3D2380" id="svg_153" transform="translate(1328,852)"/>
  <path d="m0,0l0,3l-14,14l-2,3l-2,0l-4,8l3,7l4,4l3,1l12,-6l14,-11l7,-7l0,3l-11,11l-15,10l-6,3l-6,-2l-5,-6l-3,-8l7,-9l18,-18z" fill="#3D2380" id="svg_154" transform="translate(1468,450)"/>
  <path d="m1088,967l3,1l14,1l-1,6l-3,1l-1,3l-7,1l-4,-5l-2,-7l1,-1z" fill="#6A74EB" id="svg_155" transform="matrix(1 0 0 1 0 0)"/>
  <path d="m0,0l10,0l2,2l-1,4l-5,13l-1,8l-26,4l-8,1l3,-3l12,-3l4,-2l12,-1l4,-10l3,-8l0,-3l-9,-1l0,-1z" fill="#43239C" id="svg_156" transform="translate(795,823)"/>
  <path d="m0,0l32,0l12,3l10,1l0,1l-30,0l-24,-3l0,-2z" fill="#362464" id="svg_157" transform="translate(1033,1326)"/>
  <path d="m0,0l2,2l0,3l2,0l5,16l1,4l0,9l-2,-3l0,-6l-2,0l-5,-7l0,-3l-2,0l-1,-6l2,-9z" fill="#37236B" id="svg_158" transform="translate(1478,574)"/>
  <path d="m0,0l10,2l3,-1l0,2l7,1l9,6l13,9l-3,1l-10,-6l-11,-4l-15,-7l-3,-3z" fill="#362464" id="svg_159" transform="translate(841,591)"/>
  <path d="m0,0l5,2l9,0l4,-1l-1,5l-2,0l-2,6l-1,2l-5,-1l-6,-7l-2,-5l1,-1z" fill="#6C78EC" id="svg_160" transform="translate(1057,967)"/>
  <path d="m0,0m-5,1l5,0l-3,3l-18,3l-36,0l-22,-3l0,-1l15,1l8,1l30,0l5,-3l16,-1z" fill="#3A2374" id="svg_161" transform="translate(1113,1325)"/>
  <path d="m0,0l15,15l5,6l8,7l0,2l4,2l5,6l-6,-2l-4,-4l0,-2l-4,-2l0,-2l-6,-3l0,-2l-2,0l-5,-6l-3,-2l-1,-3l-5,-5l-1,-5z" fill="#38236F" id="svg_162" transform="translate(945,1313)"/>
  <path d="m0,0l13,1l9,2l0,2l9,2l7,1l6,4l0,2l-5,-1l-9,-4l-14,-4l-17,-1l-10,1l1,-3l10,-2z" fill="#3A2374" id="svg_163" transform="translate(1387,608)"/>
  <path d="m0,0l1,0l2,15l1,11l0,41l1,6l-3,-4l-1,-3l0,-43l-1,-9l0,-14z" fill="#3D2380" id="svg_164" transform="translate(905,1191)"/>
  <path d="m0,0l1,2l-1,3l-2,0l-3,9l0,8l3,9l3,5l-1,2l-6,-8l-3,-1l-4,-8l0,-3l2,0l1,-3l2,0l2,-5l6,-10z" fill="#362364" id="svg_165" transform="translate(991,1141)"/>
  <path d="m0,0l1,0l-1,14l-5,24l-6,16l-1,0l0,-6l6,-21l5,-26l1,-1z" fill="#3A2375" id="svg_166" transform="translate(1532,789)"/>
  <path d="m0,0m4,0l2,1l-14,7l-21,8l-7,2l-4,-1l5,-3l17,-5l7,-4l8,-4l7,-1z" fill="#38236E" id="svg_167" transform="translate(1151,1310)"/>
  <path d="m993,957l13,1l8,4l0,1l-12,0l-1,-1l-3,4l-2,0l-1,2l-3,-4l0,-6l1,-1z" fill="#bf055f" id="svg_168" transform="matrix(1 0 0 1 0 0)"/>
  <path d="m0,0l6,0l-2,2l-27,9l-20,5l-4,-1l4,-2l7,-2l7,0l0,-2l17,-5l6,-2l6,0l0,-2z" fill="#412497" id="svg_169" transform="translate(1484,349)"/>
  <path d="m0,0l2,3l3,9l11,8l10,8l1,3l-2,3l-2,0l3,4l-1,2l-3,-2l1,-11l-12,-6l-1,-3l-6,-2l-3,-4l-1,-3l0,-9z" fill="#3B237B" id="svg_170" transform="translate(1270,727)"/>
  <path d="m0,0l1,0l-1,10l-4,16l0,6l9,-6l7,-5l2,1l-10,8l-2,5l-7,3l-2,-1l2,-16l5,-21z" fill="#38236F" id="svg_171" transform="translate(1382,963)"/>
  <path d="m0,0l2,3l4,20l1,13l0,27l-1,0l-2,-29l-3,-22l-1,-12z" fill="#392373" id="svg_172" transform="translate(1527,726)"/>
  <path d="m0,0l1,0l0,12l-3,12l-4,7l-3,4l-2,0l-1,4l-9,11l-1,-3l11,-14l8,-16l2,-7l1,-10z" fill="#38236D" id="svg_173" transform="translate(1584,294)"/>
  <path d="m0,0l1,3l-9,15l-7,7l-4,5l-8,7l-9,8l-9,6l-2,-1l12,-9l10,-9l12,-12l8,-11l5,-9z" fill="#3D2380" id="svg_174" transform="translate(1207,1257)"/>
  <path d="m0,0l11,0l24,4l13,3l-4,1l-11,0l-17,-5l-26,-1l0,-1l10,-1z" fill="#4724AF" id="svg_175" transform="translate(1311,865)"/>
  <path d="m0,0l5,1l0,1l-21,4l-14,2l-5,0l1,-3l6,-2l4,1l8,-1l0,-2l15,0l1,-1z" fill="#3E2489" id="svg_176" transform="translate(1431,364)"/>
  <path d="m0,0l1,3l-2,6l-1,28l-2,11l-1,0l0,-37l3,-9l2,0l0,-2z" fill="#392371" id="svg_177" transform="translate(1515,854)"/>
  <path d="m0,0l5,1l10,6l-3,1l-3,-1l6,10l11,15l-1,2l-12,-16l-11,-14l-2,-4z" fill="#3A2376" id="svg_178" transform="translate(1406,706)"/>
  <path d="m0,0l2,1l-2,9l-11,17l-2,2l-4,-1l8,-11l9,-17z" fill="#39296C" id="svg_179" transform="translate(534,653)"/>
  <path d="m0,0l10,2l15,6l11,5l0,2l-10,-3l-11,-4l-5,-3l-11,-3l1,-2z" fill="#38286B" id="svg_180" transform="translate(534,280)"/>
  <path d="m0,0l4,1l-32,11l-6,2l1,-3l19,-9l6,-1l-1,2l9,-3z" fill="#4F25D3" id="svg_181" transform="translate(723,911)"/>
  <path d="m0,0l1,2l-13,25l-8,13l-8,11l-1,2l-2,0l-1,3l-1,-2l12,-17l9,-15l12,-22z" fill="#3D2380" id="svg_182" transform="translate(565,624)"/>
  <path d="m0,0l7,6l11,12l4,6l-1,2l-6,-5l-5,-6l0,-2l-2,0l-5,-6l0,-2l-2,0l-1,-5z" fill="#392370" id="svg_183" transform="translate(1448,734)"/>
  <path d="m0,0l22,3l1,2l-14,-1l-28,-1l0,-2l19,-1z" fill="#43249C" id="svg_184" transform="translate(1336,824)"/>
  <path d="m0,0l1,4l-3,4l-2,0l-1,4l-2,0l-1,4l-4,4l11,2l0,1l-6,1l-10,0l1,-4l10,-11l6,-9z" fill="#3A2375" id="svg_185" transform="translate(1520,449)"/>
  <path d="m0,0l7,0l3,2l-4,1l-7,-1l-2,12l2,0l6,8l2,3l12,1l0,1l-13,0l-8,-10l-3,-3l0,-6l3,-7l2,-1z" fill="#3B237B" id="svg_186" transform="translate(817,854)"/>
  <path d="m0,0l1,0l3,18l0,6l-4,-4l-3,-9l-2,-4l1,-3l2,2l2,-6z" fill="#3D2380" id="svg_187" transform="translate(1488,608)"/>
  <path d="m0,0l2,3l3,16l-2,2l-12,0l-12,-3l0,-1l9,0l15,2l-2,-6l-1,-13z" fill="#392370" id="svg_188" transform="translate(1385,852)"/>
  <path d="m0,0l2,1l-4,2l0,2l-9,7l-4,2l-1,3l-7,6l-3,3l0,-3l6,-8l13,-10l7,-5z" fill="#372369" id="svg_189" transform="translate(1129,831)"/>
  <path d="m0,0l3,4l5,12l3,3l2,10l4,1l0,2l2,1l-3,1l-1,6l-2,-4l-1,-8l-3,-1l-2,-9l-7,-15l0,-3z" fill="#392373" id="svg_190" transform="translate(1459,788)"/>
  <path d="m0,0l4,2l11,11l4,6l0,2l-5,-1l-9,-6l2,-1l4,1l-3,-5l-6,-5l-2,-4z" fill="#392370" id="svg_191" transform="translate(1426,609)"/>
  <path d="m0,0m-4,1l4,0l0,2l-16,6l-10,7l-9,7l0,-3l12,-10l15,-8l4,-1z" fill="#3D2380" id="svg_192" transform="translate(1147,822)"/>
  <path d="m0,0l2,2l7,24l1,6l0,8l-1,0l-6,-22l-2,-11l-1,-7z" fill="#3A2376" id="svg_193" transform="translate(895,1151)"/>
  <path d="m0,0l5,0l7,2l20,4l3,2l2,8l-1,4l-3,-9l-1,-2l-24,-5l-5,-1l0,-2l-3,-1z" fill="#3A2377" id="svg_194" transform="translate(1348,832)"/>
  <path d="m0,0l6,3l0,2l4,2l19,12l-2,1l-9,-4l-1,-3l-6,-1l-6,-4l0,-2l-2,0l-3,-6z" fill="#392373" id="svg_195" transform="translate(585,481)"/>
  <path d="m0,0l1,2l-2,11l-1,13l-2,0l-1,-9l-1,-6l3,-7l3,-4z" fill="#38236E" id="svg_196" transform="translate(1099,830)"/>
  <path d="m0,0l6,0l7,2l1,6l-8,2l-1,3l0,14l2,2l-6,0l1,-3l1,-17l2,-1l6,0l1,-5l-15,-1l3,-2z" fill="#412590" id="svg_197" transform="translate(813,819)"/>
  <path d="m0,0l5,5l9,12l11,13l2,4l-7,-6l-7,-9l-5,-4l-2,-5l-5,-4l-1,-6z" fill="#3B2379" id="svg_198" transform="translate(918,1279)"/>
  <path d="m0,0l12,4l2,1l0,2l7,2l-4,1l-8,-4l-4,0l5,7l-1,3l-9,-13l0,-3z" fill="#3A2376" id="svg_199" transform="translate(1531,670)"/>
  <path d="m0,0l1,0l0,6l-16,3l-9,3l-8,1l3,-3l12,-3l4,-2l12,-1l1,-4z" fill="#3A2478" id="svg_200" transform="translate(798,842)"/>
  <path d="m0,0l9,0l9,1l0,1l-22,3l-5,0l0,3l-2,0l1,-5l4,-1l4,1l0,-2l2,-1z" fill="#402492" id="svg_201" transform="translate(1325,795)"/>
  <path d="m0,0l8,0l5,2l4,-1l7,1l0,-2l5,0l-3,3l-4,0l0,2l-12,0l-10,-4l0,-1z" fill="#3B237C" id="svg_202" transform="translate(1258,640)"/>
  <path d="m0,0l8,0l-2,5l-8,8l-11,8l-2,-1l14,-11l5,-5l1,-3l-12,4l-6,0l0,-1l13,-4z" fill="#3A2374" id="svg_203" transform="translate(1532,466)"/>
  <path d="m0,0l5,2l13,10l11,11l-1,2l-8,-7l0,-2l-4,-2l0,-2l-4,-2l-12,-8l0,-2z" fill="#392370" id="svg_204" transform="translate(1036,341)"/>
  <path d="m0,0l2,3l6,18l0,22l-1,0l0,-21l-2,0l-3,-9l0,-7l-2,0l0,-6z" fill="#392373" id="svg_205" transform="translate(992,1080)"/>
  <path d="m0,0l11,0l0,2l9,1l0,1l-17,0l-11,1l1,-2l7,-3z" fill="#42249A" id="svg_206" transform="translate(1067,1213)"/>
  <path d="m0,0l2,1l-2,3l-12,6l-8,7l-1,-3l5,-5l5,-4l11,-5z" fill="#392372" id="svg_207" transform="translate(1122,695)"/>
  <path d="m0,0l8,0l11,4l11,6l-1,2l-5,-2l-10,-6l-8,-1l-7,-1l1,-2z" fill="#38236F" id="svg_208" transform="translate(1303,765)"/>
  <path d="m0,0l12,7l11,8l2,4l-9,-5l-16,-12l0,-2z" fill="#392371" id="svg_209" transform="translate(1423,715)"/>
  <path d="m0,0l1,2l-8,14l-4,4l0,-8l3,-4l3,0l2,-4l3,-4z" fill="#362464" id="svg_210" transform="translate(1430,1054)"/>
  <path d="m0,0l0,3l-6,9l-12,13l-6,6l-2,-1l13,-13l8,-10l2,-5l3,-2z" fill="#3C237D" id="svg_211" transform="translate(1491,941)"/>
  <path d="m0,0l1,0l-1,12l-2,11l0,11l-3,0l-1,-5l5,-25l1,-4z" fill="#362364" id="svg_212" transform="translate(747,867)"/>
  <path d="m0,0l0,3l-12,12l-11,9l-4,2l6,-7l6,-5l3,-4l5,-3l7,-7z" fill="#362365" id="svg_213" transform="translate(1461,935)"/>
  <path d="m0,0l1,3l0,8l-1,2l-23,6l-3,-1l2,0l0,-2l13,-3l1,-1l9,0l0,-11l1,-1z" fill="#40248F" id="svg_214" transform="translate(791,876)"/>
  <path d="m0,0l10,0l0,6l-1,0l0,-5l-17,3l-8,2l-10,0l4,-2l22,-4z" fill="#42249B" id="svg_215" transform="translate(786,855)"/>
  <path d="m0,0l2,2l2,9l2,0l2,-10l1,0l-1,10l-3,5l-4,-2l-1,-5l0,-9z" fill="#38236D" id="svg_216" transform="translate(1488,794)"/>
  <path d="m0,0l3,1l-2,5l0,6l2,2l0,6l-5,-2l0,-14l2,-4z" fill="#362464" id="svg_217" transform="translate(819,828)"/>
  <path d="m0,0l9,0l-2,2l-17,5l-1,1l-6,0l3,-3l11,-3l3,-2z" fill="#3F2B86" id="svg_218" transform="translate(1478,320)"/>
  <path d="m0,0l2,1l-12,11l-5,5l-4,1l-2,-2l14,-10l7,-6z" fill="#3A2376" id="svg_219" transform="translate(1445,948)"/>
  <path d="m0,0l6,3l7,8l-1,2l-4,-2l-2,1l-6,-9l0,-3z" fill="#392372" id="svg_220" transform="translate(1474,636)"/>
  <path d="m0,0m-4,1l4,0l0,4l-4,-1l-11,3l-4,0l2,-4l2,-1l11,-1z" fill="#402490" id="svg_221" transform="translate(1184,798)"/>
  <path d="m0,0l13,0l16,4l2,3l-10,-2l-21,-4l0,-1z" fill="#4524A7" id="svg_222" transform="translate(1016,804)"/>
  <path d="m0,0l7,1l13,4l9,2l0,2l-10,-1l-9,-4l-7,-1l-3,-3z" fill="#4A24BF" id="svg_223" transform="translate(1359,873)"/>
  <path d="m0,0l17,1l18,3l0,1l-11,-1l-18,-1l-5,-1l-1,3l-2,0l2,-5z" fill="#4F25D3" id="svg_224" transform="translate(1304,858)"/>
  <path d="m0,0l1,0l-1,10l-4,16l0,6l4,-1l-1,3l-5,1l0,-10l6,-25z" fill="#3D2380" id="svg_225" transform="translate(1382,963)"/>
  <path d="m0,0l4,1l-3,11l-7,14l-1,-3l6,-15l1,-8z" fill="#362464" id="svg_226" transform="translate(761,824)"/>
  <path d="m0,0l2,0l2,24l2,5l0,5l-1,-3l-2,0l-2,-11l-1,-20z" fill="#37236A" id="svg_227" transform="translate(918,1193)"/>
  <path d="m0,0l2,4l4,18l0,7l-2,-4l-2,-5l-2,-15l0,-5z" fill="#3A2376" id="svg_228" transform="translate(871,1069)"/>
  <path d="m0,0l1,0l-1,14l-2,0l-1,9l-2,8l-1,-4l5,-26l1,-1z" fill="#37236B" id="svg_229" transform="translate(1532,789)"/>
  <path d="m0,0m-1,1l1,3l-5,4l-1,6l3,1l-3,1l-5,-1l1,-6l9,-8z" fill="#362366" id="svg_230" transform="translate(814,757)"/>
  <path d="m0,0l1,3l-8,19l-5,7l-1,-2l4,-9l2,0l2,-6l5,-12z" fill="#3B237B" id="svg_231" transform="translate(1514,423)"/>
  <path d="m0,0l3,1l0,5l-5,2l-4,-1l1,-4l5,-3z" fill="#3D2380" id="svg_232" transform="translate(878,734)"/>
  <path d="m0,0l5,0l-3,2l-4,1l-3,4l-11,-1l0,-1l5,0l0,-2l11,-3z" fill="#38236E" id="svg_233" transform="translate(761,415)"/>
  <path d="m0,0l2,1l-3,1l1,3l0,5l4,5l-1,2l-9,-11l2,-4l4,-2z" fill="#362464" id="svg_234" transform="translate(1490,505)"/>
  <path d="m0,0l1,0l0,12l-3,12l-5,4l6,-18l1,-10z" fill="#392373" id="svg_235" transform="translate(1584,294)"/>
  <path d="m0,0l0,3l-5,6l-8,7l-3,3l-2,-1l10,-10l4,-5l4,-3z" fill="#3A2376" id="svg_236" transform="translate(1468,926)"/>
  <path d="m0,0l1,2l-2,20l1,4l-2,3l-2,0l2,-16l1,-12l1,-1z" fill="#4E24CF" id="svg_237" transform="translate(1572,897)"/>
  <path d="m0,0l13,0l0,1l-11,1l-9,8l-2,3l-2,-1l6,-7l1,-4l4,-1z" fill="#372368" id="svg_238" transform="translate(793,780)"/>
  <path d="m0,0l4,1l-18,6l-3,-1l1,-3l5,-2l3,1l5,-1l3,-1z" fill="#512CD5" id="svg_239" transform="translate(723,911)"/>
  <path d="m0,0l4,1l1,3l4,2l5,6l-6,-2l-4,-4l0,-2l-4,-2l0,-2z" fill="#392372" id="svg_240" transform="translate(968,1339)"/>
  <path d="m0,0l2,0l0,2l4,2l5,9l0,5l-3,-4l-7,-11l-1,-3z" fill="#402491" id="svg_241" transform="translate(1541,686)"/>
  <path d="m0,0l14,2l0,1l-14,2l-5,0l1,-3l4,-2z" fill="#4924B7" id="svg_242" transform="translate(1401,367)"/>
  <path d="m0,0l1,3l2,0l3,10l2,4l-1,5l-2,-3l-5,-15l0,-4z" fill="#392371" id="svg_243" transform="translate(922,1224)"/>
  <path d="m0,0l3,1l1,14l-1,7l-1,0l-2,-22z" fill="#38236E" id="svg_244" transform="translate(1388,882)"/>
  <path d="m0,0l5,0l-3,2l-19,6l-2,0l0,-2l11,-3l2,-2l6,-1z" fill="#412498" id="svg_245" transform="translate(1151,808)"/>
  <path d="m0,0l5,5l6,10l0,2l-3,-1l-8,-14l0,-2z" fill="#392370" id="svg_246" transform="translate(1499,665)"/>
  <path d="m0,0l2,0l3,12l1,9l-2,-3l-4,-15l0,-3z" fill="#3A2374" id="svg_247" transform="translate(1494,677)"/>
  <path d="m0,0l1,2l-7,14l-3,3l1,-5l6,-13l2,-1z" fill="#38236F" id="svg_248" transform="translate(1530,432)"/>
  <path d="m0,0l4,1l4,4l0,5l2,0l1,-3l1,2l-2,3l-3,-1l-5,-8l-2,-3z" fill="#362367" id="svg_249" transform="translate(1084,711)"/>
  <path d="m0,0l1,0l1,16l-2,-1l-1,-6l-2,0l0,-2l-2,0l1,-3l2,2l2,-6z" fill="#37236B" id="svg_250" transform="translate(1488,608)"/>
  <path d="m0,0l4,5l6,12l-1,2l-5,-8l-2,-3l0,-4l-2,0l0,-4z" fill="#3A2375" id="svg_251" transform="translate(832,966)"/>
  <path d="m0,0l21,2l2,2l-11,0l0,-2l-13,0l1,-2z" fill="#422399" id="svg_252" transform="translate(785,816)"/>
  <path d="m0,0l2,1l-1,8l-2,2l-2,-2l1,-7l2,0l0,-2z" fill="#392371" id="svg_253" transform="translate(1082,484)"/>
  <path d="m0,0l5,1l4,5l-4,1l-5,-4l0,-3z" fill="#2F2548" id="svg_254" transform="translate(1034,742)"/>
  <path d="m0,0l2,0l8,11l1,4l-5,-5l-6,-8l0,-2z" fill="#362464" id="svg_255" transform="translate(1420,721)"/>
  <path d="m0,0l8,0l-2,5l-2,-1l1,-3l-12,4l-6,0l0,-1l13,-4z" fill="#3D2380" id="svg_256" transform="translate(1532,466)"/>
  <path d="m0,0l9,0l7,1l0,3l-8,-1l-8,-2l0,-1z" fill="#4424A3" id="svg_257" transform="translate(1364,869)"/>
  <path d="m0,0l2,1l5,11l-1,2l-5,-5l-1,-3l0,-6z" fill="#392373" id="svg_258" transform="translate(1510,682)"/>
  <path d="m0,0l0,3l-12,11l-3,0l13,-13l2,-1z" fill="#372369" id="svg_259" transform="translate(1493,461)"/>
  <path d="m0,0l9,0l-4,2l-12,3l-4,-1l4,-2l7,-2z" fill="#4524A5" id="svg_260" transform="translate(1448,360)"/>
  <path d="m0,0l2,1l6,11l-1,2l-1,-3l-3,-1l-3,-5l0,-5z" fill="#3A2375" id="svg_261" transform="translate(1368,811)"/>
  <path d="m0,0l11,7l2,2l0,5l-2,-4l-6,-4l-5,-4l0,-2z" fill="#392371" id="svg_262" transform="translate(1250,697)"/>
  <path d="m0,0l9,4l-1,5l-4,3l2,-6l-2,-2l-4,-1l0,-3z" fill="#362464" id="svg_263" transform="translate(622,506)"/>
  <path d="m0,0l2,2l4,10l-1,4l0,-3l-2,0l-3,-8l0,-5z" fill="#392373" id="svg_264" transform="translate(889,1135)"/>
  <path d="m0,0l1,0l1,16l2,-1l-1,4l-4,-1l1,-18z" fill="#402392" id="svg_265" transform="translate(1194,1043)"/>
  <path d="m0,0l9,1l0,1l-7,0l1,9l-2,-3l-3,-7l2,-1z" fill="#38236F" id="svg_266" transform="translate(829,890)"/>
  <path d="m0,0m-2,1l11,1l0,1l-12,1l0,3l-2,0l1,-5l2,-1z" fill="#462AA6" id="svg_267" transform="translate(1319,796)"/>
  <path d="m0,0l2,3l3,9l2,3l-6,-3l-1,-3l0,-9z" fill="#3A2375" id="svg_268" transform="translate(1270,727)"/>
  <path d="m0,0l4,4l1,4l-5,-1l-4,-4l4,1l0,-4z" fill="#3D2380" id="svg_269" transform="translate(1440,622)"/>
  <path d="m0,0l1,0l3,16l-4,-4l0,-12z" fill="#3C237E" id="svg_270" transform="translate(1019,1215)"/>
  <path d="m0,0l0,3l-6,5l-5,3l-3,-1l9,-6l5,-4z" fill="#3D2380" id="svg_271" transform="translate(1142,1180)"/>
  <path d="m0,0l1,0l0,10l-3,5l-1,-4l1,-5l2,0l0,-6z" fill="#38236C" id="svg_272" transform="translate(1538,402)"/>
  <path d="m0,0l11,1l3,1l0,2l-10,-1l-4,-2l0,-1z" fill="#402491" id="svg_273" transform="translate(1374,878)"/>
  <path d="m0,0l6,0l0,2l-8,2l-4,-1l6,-3z" fill="#6C78EC" id="svg_274" transform="translate(701,828)"/>
  <path d="m0,0l8,0l5,2l-3,1l-8,0l-3,-2l1,-1z" fill="#3A2376" id="svg_275" transform="translate(1303,765)"/>
  <path d="m0,0l5,0l-2,3l-9,1l0,-2l6,-2z" fill="#3D2383" id="svg_276" transform="translate(1461,356)"/>
  <path d="m0,0l1,0l0,6l2,0l2,4l-1,3l-4,-4l0,-9z" fill="#40248F" id="svg_277" transform="translate(1114,968)"/>
  <path d="m0,0l5,1l6,8l-1,2l-2,-4l-3,-1l-1,-4l-4,-2z" fill="#3A2377" id="svg_278" transform="translate(1357,800)"/>
  <path d="m0,0l10,0l6,3l-3,1l-13,-3l0,-1z" fill="#4724B0" id="svg_279" transform="translate(819,775)"/>
  <path d="m0,0l3,0l3,7l0,5l-3,-4l-3,-6l0,-2z" fill="#412498" id="svg_280" transform="translate(1552,704)"/>
  <path d="m0,0l5,1l3,3l-3,0l2,5l-5,-5l-2,-4z" fill="#3D2380" id="svg_281" transform="translate(1406,706)"/>
  <path d="m0,0l7,0l1,2l-3,4l-2,-1l2,-3l-8,0l3,-2z" fill="#362464" id="svg_282" transform="translate(1535,464)"/>
  <rect fill="#2f2449" height="0" id="svg_283" transform="matrix(1 0 0 1 0 0) rotate(-90 285.016 494.023)" width="0" x="285.02" y="494.02"/>
 </g>
</svg>