<?xml version="1.0" encoding="UTF-8"?>
<svg version="1.1" viewBox="0 0 1700 1700" width="80" height="80" xmlns="http://www.w3.org/2000/svg">
<path transform="translate(1117,239)" d="m0 0 11 3 28 11 16 6 43 14 57 17 35 12 29 14 6 3 23 1h19l17-2 8-3 3 1-7 14-2 3h22l23-3 10-3 13-4 7-3 13-2 16-5 15-6 16-9 12-8 13-8 15-5 9 1 9 6 6 10 4 17 1 10v10l-2 19-5 23-12 36-8 19-5 8-2-1-2-26-5-10-5-4 2 5 1 14-2 10-5 12-2 3 1 4 5 5 3 5-1 7-7 13-14 17-11 14-8 11-2 4 1 8 7 19 18 40 11 25 12 27 26 58 8 16 6 9-2 4-6 4-4 1h-15l-4-1 5 16 7 26 4 25 3 39v57l-3 27-5 21-7 19-7 14-2 3-4-1-7-14h-1l-4 19-9 30-10 29-9 20-8 16-11 21-11 17-14 20-11 14-13 16-4 5h-2l-2 4-20 20-11 9-8 6-2-1 10-17 10-21 6-15 3-12v-4l-8 8-9 11-16 17-12 12-8 7-14 12-17 13-15 11-15 10-10 7-7 23-6 17-10 22-10 17-12 17-7 7h-2l1-8 3-15v-26l-3-11-1-4h-3l-1 7-7 21-8 16-12 20-11 16-12 17-8 10-12 14-14 14-11 7-7 3h-3l2-6 8-13 5-12 2-10-8 6-10 9-15 10-27 14-22 13-11 7-6 3-7-10-5-5-9-6-8-4-25-9-16-6v10l4 22-4-2-9-9-9-11-10-14-11-19-4-8-1-3-3 1-1 3v12l3 14v6l-5-2-13-12-9-11-11-14-15-20-8-12-9-14-12-22-10-22-8-21-8-26h-3l-2 9v18l4 28 7 26 6 15v2l-4-2-10-11-12-18-9-15-7-12-11-23-8-20-6-16-4-4-10-6-17-12-10-9-8-7-12-11-16-17-11-14-9-12-3-2 2 16 9 24 13 28 5 11-5-2-13-13-7-8-9-10-13-14-10-13-14-18-21-28-10-15-18-30-8-16-8-17-12-35-3-10-2-1 1 21 3 19 4 18v5l-5-5-11-23-8-21-9-30-8-28-7-32-4-26-3-23-3-40v-27l2-32 1-15v-12l-2-1-25-1-9-2-3-3 13-12 8-7 9-11 10-14 12-23 11-27 10-28 14-41 11-28 1-8-5-9-8-10-12-17-15-23 2-4 12-6-1-6-6-17-3-12-1-19-9 3-7 9-4 11v16l4 16v6l-4-2-7-14-4-14-1-7v-16l2-13 2-6v-7l-8-19-5-16-1-6v-17l4-16 4-9 5-7 8-4h10l14 4 33 15 34 14 29 10 26 7 23 3 9 2h7l-7-15-1-6 3-1 14 6 17 4 12 1 7-3 15-10 25-14 27-13 17-6 20-6 18-4 23-3 47-2 38-7 28-4 24-2h22l31 2 32 5 6 1-1-4-7-8-4-4z" fill="#2F2549"/>
<path transform="translate(1020,276)" d="m0 0 5 1 2-1h16 4l9 1 48 7 8 3 10 3 9 4 9 6 12 6 6 2 1 2 8 3 8 4 8 2v-4l-4-2-7-5v-2h-3l-5-6-1-4 1-2h2l-1-3 1-3 5-1 25 3 27 4 24 7 6 2 7 1 10 5h2v2l5 1 9 4 5 2v2l5 1v2l4 1 16 9 2 2v5l-2 3h-2l-3 6h-2l-2 5 1 3 10-3 7-1 77-2 9-1 2-1h12v3l-5 1v2l-3 1-1 2h-3l-1 3-3 1-1 2-3 1-1 2-7 3-1 2 35-6 30-7 27-9 19-8 22-12 17-12 13-11 12-12 7-6 5 1v4h2v12l-3 12-4 7-3 4h-2l-1 4-9 11-5 5-7 6-5 5-4 2-2 4h-3l-2 4h-3v2l-4 1-2 4-11 7-8 7-8 4h-2v2l-13 9-13 5-20 8-16 4-14 2h-19l-24-7-19-9-16-9-6-2 3 8 8 11 7 9 11 7 8 6 13 4 4 1h10l11 1 4 1h14l10-2 20-8 6-3 10-2 7-2 2 1-1 7-3 8-3 6-4 2v2l-7 4-6 10-3 4-1 4 2 3 6-1 9-3 9-6 8-8 6-4 8-12 7-15 9-21 6-10 5-5 5-3 1 1v8l-3 15-7 20-7 13-8 11-9 10-1 3 16-1v-2l13-4h8l-2 5-8 8-9 7h-2l-2 4-18 12-4 2h-3l-1 3h-2l1 3v5l4 5 4 7 7 10 5 8 5 5 5 9 7 13 3 6 3 4 5 13 6 15 5 14 5 13 3 7 5 17 4 9 4 11v5l-7-1-17-6-6-3h-4l5 7 2 6 8 12 8 18v2h2l1 8h2l5 17 2 16h2l3 32 1 18v71l-1 18-4 22-2 3h-2l2-16 1-12v-34l-3-20-5-13-3-6v-3h-3l-3 20-6 41-6 34-4 16-2 6h-2l1-27v-10l-3 2-10 26-10 23-10 21-12 20-8 12-14 20-10 14-8 10-11 14-9 9-3-1 2-8 7-14 3-8 1-4-5 2-2 6-7 7-10 13-9 10-9 11-12 12-8 7-4 5-9 7-10 9-5 4h-2v2l-9 7-3-1 1-7 6-16 3-14 1-15v-27l4-7 11-9 9-7 17-12 25-16 17-11 12-8 11-8 11-9 10-9 11-12 10-16 9-17 6-17 2-11 1-28 8-23 5-13 5-24 2-14v-27l-2-18-5-23-7-20-8-18-8-13-11-15-11-14-6-4 2 5 8 13 6 14 5 15 4 14 3 14 1 12v37l-2 16-4 16-4 12h-2l-6-16-9-19-13-19-15-16-5-6-25-16-10-6h-2l9 12 8 10 9 13v2h2l12 20 12 24 7 17 2 5 1 5 3 3 5 21 3 14 2 16v19l-4 18-4 9-7 11-9 11-11 11-17 13-22 14-17 12-11 8-3 1v-7l6-26 5-28 2-16 1-29-1-7-15-3-6-3-7-1-3-2v-2l-13-2-24-4h-21l1-3 4-4 4 1 18 1 21 3 15 4v2l8 1 4 1h12l1-2-4-18-3-12-6-2-22-4-6-2-7-1h-16l-15 4-8 6-14 3v2l-5 1v3l-6 2-1 6 15 6 1 2v6l-5 5-10 4-3 3-6 1-3 2-1 3 7 2-1 4-8 7-7 3-9 6-23 11-19 6-26 6h-33l-16-1-18-6-5-3-1-2v-7l5-9 5-10 6-10 6-11 9-11 6-9h2v-2h2l2-6 5-5 8-10 1-2h2v-2h-2l-1-2-13-1-6 2-11 2-2 4h-2v2l-9 7-4 2-1 3-7 6-3 3-2 1-6 16-6 8-7-1-8-11-6-10-10-18v-3h-2l-2-3-2-7-5-4-20-4-6 1-5 1-10-1-6-2 1 5 5 6 2 1v2l3 1 7 8 15 15 11 14 6 9 15 27v6l-2 3h-2v2l-13 5-10 3-16 4-6 1-19 1h-14l-14-1-16-3-21-8-21-9-15-9v-2l-3-1 1-7 7-3 11 1h15v-4l-10-1-12-3-23-4-8-3-2-3v-5l5-5 4-2 14-1h28l6 2 15 1-1-4-12-3-17-5-24-6h-15l-8-3-9-2-8-6-2-1-4-10-2-3v-9l2-4h11l16 4 9 3 10 1 2 2 11 3 11 5 5 2 18 8 10 4 4-1v-2l-5-2-18-11-17-8-8-4-9-5v-2l-6-2-5-3-8-1v-2l-9-2-9-4-2-8v-11l5-7 6-4 4-1h8l12 6 11 5 11 4 4 4 6 4v2l10 3v-6l-7-2-5-3v-2l-4-1-2-1v-2h-2l-3-3-12-8-3-4 1-5 4-5 5-5 8-5 13-3 3-3h2v-3l6-4h2v-3l-11-3h-19l-1-1v-5l9-6 6-2 2-4 11-7 5-2 9-6 11-3h9l17-4 20-2 5-2 4-6 2-4h3v-2l7-7 3-2h3v-2l14-7 13-3 11-2 2-1 21 1 19 3 5 2 13 5 6 4 9 7 4 5v2h2v2l4 2v2h3v2l20 6 13 4 9 3 14 7 1 2 9 5 5 4v2l4 2 11 6 1 1v5l-1 1-11-1h-18l-20 5-12 5-11 8v2l3 1 4-3 6-1 7-3 14-2 5 2-1 8-5 10-5 5-8 9h-2l-2 4-2 2-5 2-7 6-15 7-8 3-6 7h-2l-4 4-7 1-9-2-18 4h-6l-1-1-10-1-16-6-16-2-12-2-23-1-20-3-6-3-10-8-8-7-6-6v-2h-2l-4-5v-2h-2l-7-8-1-3-6-2 2 4 8 13 3 6 2 9 3 5 1 6 6 12 7 8v2l3 1v2l4 2 5 2-4-7v-2l-2-1 1-3 2-1 22 1 3 2v2h7l21 5 12 4 16 8 7 3 1 2 6 3 2 9 2 15 1 8h4l-1-15-1-6 3-7 5-5 6-3h2v-2l11-5 17-5 25-8h3l1-4 3-2 19-2-1 5-3 4h2v2l6-4 5-7 6-12 3-4 3-11 5-11 4-9 1-2h2l2-5 5-3 6-1h9l14 4 15 10 1 3-5 5-12 6-10 8-4 1v2h-3v2l-10 8-8 6h-2l-1 3h-2l-6 7-1 2 4-1 17-10 14-8 17-9 19-7h9l6 4v2l4 2 7 10v5l-4 4-6 2-10 2-14 6v3l7 1v-2l5-2 28-2 2 2 2 11 5 3 25 2 12 2 6 2 14 2-4-10-9-15-4-5-19 1-15 1-11 1v-4l27-4 11-2-6-7-10-8-16-9-11-4h-8l-1 2h-5l-4-5v-2h2l1-4-5-5-10-8-6-4-3-5-3-11-6-12-2-7-5-4-5-5-2-4 1-1h24l16-2 11-3 11-4 16-8 11-8 10-10 10-13 5-9 6-10 5-10 3-2 15-1 13 2 17 5 16 9 6 3-6-9v-2l-4-2-7-7-5-2-6-5-3-5v-2l8-3 9-1 13-6 10-3 1-4-13-5-5-2-21-2-23 1-24 3-28 8-18 7-13 5-19 8-4 2-9 4h-5l-1 2-4 2h-4l2-10 3-7 2-5 8-16 5-13 3-9 5-12 3-6v-4l-5 5-8 9-2 4h-2l-3-9-4-3-1-3-2-1-3-5-7-6-2-5-8-2-2 1-17-5-7-1-1-1h-19l-1 1 12 5 4 4 12 5 10 9 8 6 6 8 3 7 1 7v11l-5 22-6 15-10 18-6 9h-2l-1 3h-2v2l-14 7-7 2-9 1-13-2-9-4-13-7-6-4-3-3-12-6v-2h-2l1 7 2 5 2 1-4 2-14-5-8-2-6-4-5-6-5-5-9-6-4-11-1-1-1-13 5-15 6-16 4-6 3-1 1-5 4-6 6-10 3-4h2l1-4 10-10 8-5 9-8 2-1 1-3-8 2-12 5-11 6-8 6-1 2h-2v2l-9 7-6 1-1 5-8 15-4 2-3-5-1-4-4-4-1-11h3l4-16 4-10 1-8-3 1-2 8h-2l-4 18-2 6-8 1h-6l-6-5v-2l-5-2-10-6-7-4-5-1 1 6 5 2 4 5 2 1v2h2l7 9 5 6 3 3 5 8 7 12 6 14 2 6 1 14v8l-3 12-3 5h-2l-3 9-4 4-13 7-8 3-10 4h-5l-3-3-2-4-8 1-8 4h-3v2l-14 5-17 3-18-2-8-3-6-3v-2l-6-2-5-7-5-4-7-13-2-3-1-5h-2l-2-7-5-10-2-10-1-13 2-13 6-12 8-9 11-9 7-5 12-5 5-3v-2l-13 2-15 5-16 8-7 5-7 8-5 11-4 2-10-7-6-4-5-2h-6l3 9 1 7 4 1 10 15 11 22 4 9 7 15-1 5-7-3-16-11-9-6-8-3-4 1-9-4-17-8-21-7-24-5-22-2h-12l-22 1v2l-17 3-10 3v4l16 4 9 4 10 2 16 1 2 3-5 5-9 6-8 6-5 5-4 7-2 3 1 1 9-1 25-8 11-1h9l5-1h13l9 4 6 7 2 6h2l7 11 4 5 5 5 5 6 11 8 13 5 10 1 11 3 11 1 3 1 20 1 7 1 1 3h-2l-2 5-4 5h-2v2l-8 8h-2l-1 9-6 5-3 3-4-1-2-2h-7l-10 4-10 6-10 7-5 3-11 8-7 6-1 2h-2v2l-6 5h-2l-1 3-3 3-1 4 11 1 10 3 14 4 8 2 1 6h-2l-1 3-5-1-8-4-13-2-12-3-25-2h-20l-7 11-8 11-6 9-4 8-1 3 30-2h32l22 2 6 1-1 4h-10l-9-2-17-1h-32l-21 1v2l-7 3-8 20-5 10-3 11 12-3 27-9 11-3 44-7 15 1 6 5-3 1h-9l-2 7v6l8 9 2 3 14 1 2 3v6l-1 1h-9v4l10 19 16 24 9 14 9 15 15 31 9 24 7 25 3 12 4 24 2 20 3 73 2 24 4 24 10 30 7 16 8 13 6 8 2 4 4 2 9 6 16 8 17 8 22 7 25 4 8 1h36l23-4 18-6 23-10 16-11 10-9 4-4h2l1-3h2l2-4 7-8 7-12 7-14 3-7 2 1-3 15-3 10-11 24-10 16-12 16-8 9-8 7-4 2v2l-10 7-11 7-12 6-23 8-20 4-11 1h-26l-11-1-12-3-13-4-18-7-13-10-7-6-6-7-7-6-7-8-8-9-18-22-10-14-8-16-1-3v-41l-2-20-3-20-9-30-8-21-5-13-4-15-5-25-7-27-9-27-8-20-11-24-8-15-10-17-11-17-12-19-3-6-3-1-2-4h-8l-21 6 1 2h-7v2l-7 1-1 8-1 30 2 15 4 18 1 9-4 1-10-6-5-5-14-10-14-12-10-8-2-1v-2l-4-2-5-10-6 1-9 4-5-1v-2l9-5 9-3 1-3-8-6-6-11-3-6v-3h-2l-4-13-2-10v-29l3-3h2l1-11 3-8 3-10 13-26 6-10 1-3h2l1-6h2l2-6 12-16 2-3h2l2-4 9-12 7-8 5-9-2-1-10 5-14 10-9 6-3 1v2l-4 3h-2l-1 3-5 4-7 9-10 11-9 11-10 13-5 7h-2l-3-10-4-14-3-20v-9l-1-4 1-24 3-12 1-14 3-10 5-13 6-12 7-11 6-10 1-4 1-13 5-13 6-21 5-9 10-14 4-7h2l2-4 9-9 2-3h2l2-4 10-10 8-7 10-7 18-13 9-7 9-5 15-6 18-4 4-2 13-1 12 3 13 4-3-9-3-1v-2l-5-2v-2l-6-2v-2l-5-1-13-4-9-2h-13l-13 2-20 8-13 7-3 3-8 4-12 9-4 4h-3v2l-8 6-9 7-3 1v2l-8 7-11 12-11 18-9 20-4 19v24l3 13 1 4-9 7-9 6h-2l-2 4-7 8-6 7-5 7-1 3-3 3-4 5-1 2h-2v-6l1-4 2-14-2-14h-3l-4 1-2 5-4 4h-2l-1 3-7 6-11 6-8 7-17 12-5 5-9 7-3 3-12 9-5 3-6 1-1-3h2l2-5h2l2-4 9-11 5-4 1-2h2l2-5 8-11 13-23 18-36 9-17 8-16 6-11 7-11 16-22 5-13-2-2-4-1v-2l-6-1-10-7-4-3v-2l-6-1-6-4v-2h-2l-4-4-12-9-1-2-3-1-4-4-2-5h2v-2l10 2 14 3 6-1-2-8h-2l-6-9-8-17-4-11-2-10v-8l4-1 11 7 7 8 1 3h2l11 19 10 13 11 11 7 8 12 9 5 3 6 3 9-2 3-3-9-10-10-10v-2h-2l-3-7 3-3 20 2h43l24-4 5-3h2v-2l6-3h2l1-3 8-4 6-1 3-1 2-3h3v-2l4-3 1-3-18 2-4 3h-18l-7 1h-30l-13-2-30-7-18-6-13-6-17-9-9-6v-2l-5-2-5-4-8-6v-2l-4-2-8-8v-2h-2v-2h-2l-3-4v-2l-3-1-6-8-11-13-5-8v-2h-2l-5-12v-7l6-3 6-1 10 3 5 1 8 4 4 6 18 10 12 7 11 6 11 7 11 6 10 5 11 4 9 4 8 3 24 4 20 3h8l-3-5 1-3h13l25-3 11-2 28-3h16l16 3 9 2 10 3 9 3 2 2h5l-5-8-7-8-2-4-3-3v-2l-4-1-8-3v-2l-4-1-6-3v-2l-3 1-4-2-1-5 3-5 5-3h3v-2h3v-2l14-6h5v-2l17-5 14-4 24-4 21-2h25l17 2 18 6 8 4 12 5 2 1v2l4 1 13 6v2h3v2h2v2l6 2 5 2-1-7-3-1-3-4v-2l-4-2-6-7v-6l-4-2-4-3-3-1-3-8-1-2 3-3z" fill="#3D2380"/>
<path transform="translate(1082,484)" d="m0 0 2 1-1 8-5 14-4 12h-3l2 11 5 6 2 6 3-1 8-15 2-5 7-3 6-5h2v-2h2l2-4 10-7 14-7 8-3h6l-1 4-8 6-7 6-6 4-8 8-1 3h-2l-2 4-4 6-3 5-5 10-5 5-5 12-7 21 1 13 2 3 2 9 5 2 9 7 4 6 5 4 4 2 12 3 9 3 2-1-5-8 1-5h2v2l5 2 8 4 4 4 14 7 7 4 8 3 11 1 12-2 12-5 5-2v-2l3-3h2l2-5 4-5 12-24 4-12 4-18v-11l-2-9-4-8v-2l-3-1-5-5-8-7-6-5-11-4-6-5-10-4-1-2 2-1h19l1 1 14 3 10 3 3-1 7 3 4 6 3 2v2l4 2 1 4 3 1 2 4 4 4 1 7 2-1 3-5 10-12h2l1 4-7 15-3 11-4 9-7 14-3 7-3 9-2 3-2 8 1 2 7-4 9-3 6-3 12-5 13-5 14-6 27-9 20-5 19-2 27-1 17 2 16 6 3 3-2 4-13 4-10 5-12 2-5 1 5 8 5 4 5 2 12 12 4 6v2l-5-1-9-6-11-5-17-5-17-1-10 2-9 17-8 14-13 15-8 8-10 7-9 5-7 3-13 5-13 3-20 1h-16l2 4 5 5 6 5 2 8 6 13 3 11 5 4 11 8 6 5 1 3-2 3h-2l4 6 5 1 1-3h8l11 4 16 9 13 11 4 5-1 1-33 5h-5v4l11-2 28-2h6l7 9 10 18v4l-14-1-11-3-15-2-17-1-5-3-2-6-2-7-19 1-9 1-5 1v2h-7l-1-4 15-7 18-4 1-8-7-10-7-6-2-1h-9l-21 8-23 12-11 7-14 8-2-1 2-5 4-2 1-3h2l5-5 6-4h2l1-3 4-1 1-3h2v-2h3v-2l8-5 8-6 13-7 1-5-5-2-10-7-14-4h-9l-9 2-4 6h-2l-2 6-6 15-3 7-2 7-6 9-3 6-5 7-4 3h-2v-2l-3 1 5-10-8 2-11 1-3 2-1 3-31 10-14 4-9 4h-2v2l-10 5-4 6-1 8 1 2v15h-4l-3-12-2-18-3-3-4-2v-2l-5-1-16-8-11-4-19-5-12-2-3-3-24-1 1 4 3 6 1 3-5-1-7-6-9-12-5-10-2-8-3-5-2-9-8-14-4-5 1-3 6 3 7 8 1 3h2l4 5v2h2l7 8 8 7 10 8 5 2 20 3 23 1 28 4 16 6 10 1 1 1 12-1 13-3 8 2 7-1 10-8 4-4 13-5 11-6 5-5 5-2 5-5 8-9 5-5 5-12 1-5-8-1-14 3-6 3-5 1-4 2-3-2 1-3 11-8 12-5 20-5h18l11 1v-5l-11-6-4-3v-2l-4-2-7-5-4-2-3-3-15-7-15-4-11-4-5-1-7-3v-2h-3l-4-4v-2h-2l-4-6-11-9-11-5-6-2-5-2-19-3h-9l-12-1-6 2-12 2-13 4-7 4h-2v2l-6 3h-2l-2 5-3 1v2l-3 1-3 6-4 5-14 2-15 2-12 3h-9l-13 4-8 6-7 3-9 6-3 3-9 5-3 2v5h19l9 3 2 1v3l-6 4h-2v3l-4 1-1 3-15 4-8 6h-2l-2 5-3 4 1 5 11 8 5 3v2h2v2l6 2v2l4 1 8 4 1 4-1 2-6-1-4-2-4-4-6-4v-2l-11-3-11-5-12-6h-8l-7 3-3 1-2 4-2 5v9l1 8 18 6v2h8l11 6v2l5 2 8 4 15 7 15 8 14 9 1 3-5 1-20-8-8-4-6-2-12-6-9-2-3-2-14-2-11-4-12-2h-8l-1 3v9l3 4 2 9 5 2 5 4 15 4 4 1h14l17 5 28 7 7 3 1 4h-15l-7-2h-34l-9 2-4 2-2 3 1 7 8 3 23 4 22 5v4l-2 1h-13l-11-1-6 2-1 7 2 1v2l5 2 14 8 29 12 12 4 17 2 10 1h14l19-1 15-3 15-4 12-5h3v-2h2l1-9-8-14-11-20-7-8-9-11-21-21v-2l-4-2-5-7 1-3 10 2h10l4-2 14 2 9 2 6 5 3 10h2l7 14 8 14 7 10 4 4h5l5-7 4-10 3-7 4-1 2-4 6-5 5-5 7-6h2v-2l6-5 16-4 13 1v3h2v2h-2l-2 4-6 8-5 5-3 6h-2v2h-2l-2 4-6 9-6 7-6 11-7 12-4 8-5 9v9l5 2 18 6 16 1h33l30-7 20-7 25-13 3-3 7-3 7-6v-3l-6-2 1-4 6-3h5l2-4 11-3 2-4v-8l-9-3-7-3 2-6 3-2h3v-3l5-1v-2l8-3 8-2 6-5 15-4h16l12 2 7 2 20 4 3 2 5 19 2 12-2 2h-12l-12-3v-2l-11-2-9-2-27-3h-9-3l-4 5 10-1h11l24 4 13 3v2h-6v10l-3 12-9 13-4 5h-2l-2 5-6 7h-2l-2 4-5 8-4 10-4 14-1 29-3 12-6 17-5 9-3 9-6 16-4 9-8 30-6 27-5 23-5 32-3 30-2 21-2 7-3 16-4 14-4 8-5 15-4 6-7 6-9 4-6 7-9 11-4 4h-2l-2 4-3 1-3 3h-2v2l-8 7-12 12-5 4h-2l-2 4-7 6-12 9-12 8-12 11h-2l-1 3-15 6-14 5h-17l-10-2-6-2-16-9-5-4v-2l-5-2-4-4-5-2v-2h-2l-4-6-8-5v-2l-5-2-1-3h-2l-5-5-3-6 4 2 7 5 26 10 15 3 2 1 11 1h26l11-1 23-5 25-9 14-8 12-9h2v-2l8-7 13-13 10-14 12-20 10-22 5-21v-2l-3 6-10 19-7 11-7 8-8 7-8 8-21 14-26 11-18 5-18 3h-36l-28-4-21-6-15-6-21-11-11-6-5-4-7-9-7-11-8-16-9-25-4-15-4-28-2-34-2-54-3-26-4-21-6-24-9-27-13-28-9-17-13-21-8-11-10-16-9-17-1-4 3-1h8v-6l-1-2-14-1-8-10-3-3v-6l3-7 2-1h9l-5-4-16-1-31 5-12 2-24 7-20 7h-6l2-11 5-10 8-20 4-3h4v-2l21-2h32l17 1 9 2h10l1-3-15-1-13-1h-32l-16 1h-14l1-6 8-13 7-9 10-15h20l25 2 12 3 13 2 8 4 5 1 1-2h2l-1-6-11-2-16-4-5-2-11-2 1-6 10-9h2v-2h2l2-4 11-9 8-6 7-4 10-7 12-6 4-1h7l3 3h5l2-4 4-3 2-9 4-2 4-6h2v-2l5-5 4-6v-2l-27-1-3-1-16-2-11-3-9-1-14-7-8-7-6-7v-2l-4-2-9-13v-2h-2l-6-10-3-3-8-3h-13l-5 1h-15l-21 6-13 4-7-1 4-7 4-6 3-1 2-4 14-10 5-3 1-3-1-1-16-1-10-2-12-5-10-2-3-2v-4l14-5 13-1v-2l27-2 16 1 18 2 23 5 22 8 15 8 8 2 3-1v2l7 1 9 6 13 9 9 5 1-4-8-16-7-17-12-21-3-3-2-4-3-1-2-4-2-12 6-1 10 5 5 4 6 4 4-2 4-10 5-6h2l1-3 11-7 14-7 18-5h8l1 3-15 7-8 4-11 10-5 4-7 10-4 11-1 14 2 15 5 12 2 3v5h2l3 7 2 2 6 12 7 6v3l3 1 5 3v2l6 2 8 3 19 2 16-3 12-4h2v-2l14-6h5l5 7 8-1 11-5 7-3 10-5h2l2-5 3-7h2l2-5 3-13v-14l-2-9-5-14-9-16-5-8v-2l-4-2-9-11-1-3h-2v-2l-4-2-8-8v-4h5l14 8 8 5v2l4 2 2 2h10l2-1 2 1 2-9 3-13 1-2h2l2-8h2z" fill="#2F2449"/>
<path transform="translate(1073,636)" d="m0 0 21 1 19 3 5 2 13 5 6 4 9 7 4 5v2h2v2l4 2v2h3v2l20 6 13 4 9 3 14 7 1 2 9 5 5 4v2l4 2 11 6 1 1v5l-1 1-11-1h-18l-20 5-12 5-11 8v2l3 1 4-3 6-1 7-3 14-2 5 2-1 8-5 10-5 5-8 9h-2l-2 4-2 2-5 2-7 6-15 7-8 3-6 7h-2l-4 4-7 1-9-2-18 4h-6l-1-1-10-1-16-6-16-2-12-2-23-1-20-3-6-3-10-8-8-7-6-6v-2h-2l-4-5v-2h-2l-7-8-1-3-6-2 2 4 8 13 3 6 2 9 3 5 1 6 6 12 7 8v2l3 1v2l4 2 5 2-4-7v-2l-2-1 1-3 2-1 22 1 3 2v2h7l21 5 12 4 16 8 7 3 1 2 6 3 2 9 2 15 1 8h4l-1-15-1-6 3-7 5-5 6-3h2v-2l11-5 17-5 25-8h3l1-4 3-2 19-2-1 5-3 4h2v2l6-4 5-7 6-12 3-4 3-11 5-11 4-9 1-2h2l2-5 5-3 6-1h9l14 4 15 10 1 3-5 5-12 6-10 8-4 1v2h-3v2l-10 8-8 6h-2l-1 3h-2l-6 7-1 2 4-1 17-10 14-8 17-9 19-7h9l6 4v2l4 2 7 10v5l-4 4-6 2-10 2-14 6v3l7 1v-2l5-2 28-2 2 2 2 11 5 3 25 2 12 2 1 2-14-1h-29l-3 5 2 1-6 2-7 5-14 3v2l-5 1v3l-6 2-1 6 15 6 1 2v6l-5 5-10 4-3 3-6 1-3 2-1 3 7 2-1 4-8 7-7 3-9 6-23 11-19 6-26 6h-33l-16-1-18-6-5-3-1-2v-7l5-9 5-10 6-10 6-11 9-11 6-9h2v-2h2l2-6 5-5 8-10 1-2h2v-2h-2l-1-2-13-1-6 2-11 2-2 4h-2v2l-9 7-4 2-1 3-7 6-3 3-2 1-6 16-6 8-7-1-8-11-6-10-10-18v-3h-2l-2-3-2-7-5-4-20-4-6 1-5 1-10-1-6-2 1 5 5 6 2 1v2l3 1 7 8 15 15 11 14 6 9 15 27v6l-2 3h-2v2l-13 5-10 3-16 4-6 1-19 1h-14l-14-1-16-3-21-8-21-9-15-9v-2l-3-1 1-7 7-3 11 1h15v-4l-10-1-12-3-23-4-8-3-2-3v-5l5-5 4-2 14-1h28l6 2 15 1-1-4-12-3-17-5-24-6h-15l-8-3-9-2-8-6-2-1-4-10-2-3v-9l2-4h11l16 4 9 3 10 1 2 2 11 3 11 5 5 2 18 8 10 4 4-1v-2l-5-2-18-11-17-8-8-4-9-5v-2l-6-2-5-3-8-1v-2l-9-2-9-4-2-8v-11l5-7 6-4 4-1h8l12 6 11 5 11 4 4 4 6 4v2l10 3v-6l-7-2-5-3v-2l-4-1-2-1v-2h-2l-3-3-12-8-3-4 1-5 4-5 5-5 8-5 13-3 3-3h2v-3l6-4h2v-3l-11-3h-19l-1-1v-5l9-6 6-2 2-4 11-7 5-2 9-6 11-3h9l17-4 20-2 5-2 4-6 2-4h3v-2l7-7 3-2h3v-2l14-7 13-3 11-2z" fill="#352463"/>
<path transform="translate(1489,559)" d="m0 0 5 2 11 8 13 17 7 10 7 12 8 17 15 39 2 10-1 4-7-1-18-6 7 11 9 13 5 9 6 12 1 5h2l1 8h2l5 17 2 16h2l3 32 1 18v71l-1 18-4 22-2 3h-2l2-16 1-12v-34l-3-20-5-13-3-6v-3h-3l-3 20-6 41-6 34-4 16-2 6h-2l1-27v-10l-3 2-10 26-10 23-10 21-12 20-8 12-14 20-10 14-8 10-11 14-9 9-3-1 2-8 7-14 3-8 1-4-5 2-2 6-7 7-10 13-9 10-9 11-12 12-8 7-4 5-9 7-10 9-5 4h-2v2l-9 7-3-1 1-7 6-16 3-14 1-15v-27l4-7 11-9 9-7 17-12 25-16 17-11 12-8 11-8 11-9 10-9 11-12 10-16 9-17 6-17 2-11 1-28 8-23 5-13 5-24 2-14v-27l-2-18-5-23-7-20-8-18-8-13-11-15-11-14-6-4 2 5 8 13 6 14 5 15 4 14 3 14 1 12v37l-2 16-4 16-4 12h-2l-6-16-9-19-13-19-15-16-5-6-25-16-10-6h-2l9 12 8 10 9 13v2h2l12 20 12 24 7 17 2 5 1 5 3 3 5 21 3 14 2 16v19l-4 18-4 9-7 11-9 11-11 11-17 13-22 14-17 12-11 8-3 1v-7l6-26 5-28 2-16 1-29-1-7-15-3-6-3-7-1-3-2v-2l-13-2-24-4h-21l1-3 4-4 4 1 18 1 21 3 15 4v2l8 1 4 1h12l1-2-4-18-3-12-6-2-22-4-6-2-7-1h-16l-7 2h-5l2-5 1-1h29l29 3 4 1-4-10-9-15-4-5-19 1-15 1-11 1v-4l27-4 11-2-6-7-10-8-16-9-11-4h-8l-1 2h-5l-4-5v-2h2l1-4-5-5-10-8-6-4-3-5-3-11-6-12-2-7-5-4-5-5-2-4 1-1h24l16-2 11-3 11-4 16-8 11-8 10-10 10-13 5-9 6-10 5-10 3-2 15-1 13 2 17 5 16 9 6 3-6-9v-2l-4-2-7-7-7-6 4-3 15-3 21-5 6-2 5 1 5 8 7 15 4 9 3 7-1-11-4-25-6-20-1-7h4l2 1 4 7 11 14v2h2l-2-7-8-15-4-8z" fill="#4E24D2"/>
<path transform="translate(1082,484)" d="m0 0 2 1-1 8-5 14-4 12h-3l2 11 5 6 2 6 3-1 8-15 2-5 7-3 6-5h2v-2h2l2-4 10-7 14-7 8-3h6l-1 4-8 6-7 6-6 4-8 8-1 3h-2l-2 4-4 6-3 5-5 10-5 5-5 12-7 21 1 13 2 3 2 9 5 2 9 7 4 6 5 4 4 2 12 3 9 3 2-1-5-8 1-5h2v2l5 2 8 4 4 4 14 7 7 4 8 3 11 1 12-2 12-5 5-2v-2l3-3h2l2-5 4-5 12-24 4-12 4-18v-11l-2-9-4-8v-2l-3-1-5-5-8-7-6-5-11-4-6-5-10-4-1-2 2-1h19l1 1 14 3 10 3 3-1 7 3 4 6 3 2v2l4 2 1 4 3 1 2 4 4 4 1 7 2-1 3-5 10-12h2l1 4-7 15-3 11-4 9-7 14-3 7-3 9-2 3-2 8 1 2 7-4 9-3 6-3 12-5 13-5 14-6 27-9 20-5 19-2 27-1 17 2 16 6 3 3-2 4-13 4-10 5-12 2-5 1 5 8 5 4 5 2 12 12 4 6v2l-5-1-9-6-11-5-17-5-17-1-10 2-9 17-8 14-13 15-8 8-10 7-9 5-7 3-13 5-13 3-20 1h-16l2 4 5 5 6 5 2 8 6 13 3 11 5 4 11 8 6 5 1 3-2 3h-2l4 6 5 1 1-3h8l11 4 16 9 13 11 4 5-1 1-33 5h-5v4l11-2 28-2h6l7 9 10 18v4l-14-1-11-3-15-2-17-1-5-3-2-6-2-7-19 1-9 1-5 1v2h-7l-1-4 15-7 18-4 1-8-7-10-7-6-2-1h-9l-21 8-23 12-11 7-14 8-2-1 2-5 4-2 1-3h2l5-5 6-4h2l1-3 4-1 1-3h2v-2h3v-2l8-5 8-6 13-7 1-5-5-2-10-7-14-4h-9l-9 2-4 6h-2l-2 6-6 15-3 7-2 7-6 9-3 6-5 7-4 3h-2v-2l-3 1 5-10-8 2-11 1-3 2-1 3-31 10-14 4-9 4h-2v2l-10 5-4 6-1 8 1 2v15h-4l-3-12-2-18-3-3-4-2v-2l-5-1-16-8-11-4-19-5-12-2-3-3-24-1 1 4 3 6 1 3-5-1-7-6-9-12-5-10-2-8-3-5-2-9-8-14-4-5 1-3 6 3 7 8 1 3h2l4 5v2h2l7 8 8 7 10 8 5 2 20 3 23 1 28 4 16 6 10 1 1 1 12-1 13-3 8 2 7-1 10-8 4-4 13-5 11-6 5-5 5-2 5-5 8-9 5-5 5-12 1-5-8-1-14 3-6 3-5 1-4 2-3-2 1-3 11-8 12-5 20-5h18l11 1v-5l-11-6-4-3v-2l-4-2-7-5-4-2-3-3-15-7-15-4-11-4-5-1-7-3v-2h-3l-4-4v-2h-2l-4-6-11-9-11-5-6-2-5-2-19-3h-9l-12-1-6 2-12 2-13 4-7 4h-2v2l-6 3h-2l-2 5-3 1v2l-3 1-3 6-4 5-14 2-15 2-12 3h-9l-13 4-8 6-7 3-9 6-3 3-9 5-3 2v5h19l9 3 2 1v3l-6 4h-2v3l-4 1-1 3-15 4-8 6h-2l-2 5-3 4 1 5 11 8 5 3v2h2v2l6 2v2l4 1 8 4 1 4-1 2-6-1-4-2-4-4-6-4v-2l-11-3-11-5-12-6h-8l-7 3-3 1-2 4-2 5v9l1 8 18 6v2h8l11 6v2l5 2 8 4 15 7 15 8 14 9 1 3-5 1-20-8-8-4-6-2-12-6-9-2-3-2-14-2-11-4-12-2h-8l-1 3v9l3 4 2 9 5 2 5 4 15 4 4 1h14l17 5 28 7 7 3 1 4h-15l-7-2h-34l-9 2-4 2-2 3 1 7 8 3 23 4 22 5v4l-2 1h-13l-11-1-6 2-1 7 2 1v2l5 2 14 8 29 12 12 4 17 2 10 1h14l19-1 15-3 7-1-3 2-13 4-22 3h-32l-12-2-15-3v-2l-7-1v-2l-3-1v-2l-5-1-11-6-15-8-9-6-9-7-3-5 4-3 13-1-1-2-13-3-16-2-5-3-2-4v-5l8-7 11-4 11-1 19-1-1-2-11-2-21-2-17-3-14-2-14-1 3-11 4-20 4-8 6-5 5-3-2-10-3 2-1-5-11-2-16-4-5-2-11-2 1-6 10-9h2v-2h2l2-4 11-9 8-6 7-4 10-7 12-6 4-1h7l3 3h5l2-4 4-3 2-9 4-2 4-6h2v-2l5-5 4-6v-2l-27-1-3-1-16-2-11-3-9-1-14-7-8-7-6-7v-2l-4-2-9-13v-2h-2l-6-10-3-3-8-3h-13l-5 1h-15l-21 6-13 4-7-1 4-7 4-6 3-1 2-4 14-10 5-3 1-3-1-1-16-1-10-2-12-5-10-2-3-2v-4l14-5 13-1v-2l27-2 16 1 18 2 23 5 22 8 15 8 8 2 3-1v2l7 1 9 6 13 9 9 5 1-4-8-16-7-17-12-21-3-3-2-4-3-1-2-4-2-12 6-1 10 5 5 4 6 4 4-2 4-10 5-6h2l1-3 11-7 14-7 18-5h8l1 3-15 7-8 4-11 10-5 4-7 10-4 11-1 14 2 15 5 12 2 3v5h2l3 7 2 2 6 12 7 6v3l3 1 5 3v2l6 2 8 3 19 2 16-3 12-4h2v-2l14-6h5l5 7 8-1 11-5 7-3 10-5h2l2-5 3-7h2l2-5 3-13v-14l-2-9-5-14-9-16-5-8v-2l-4-2-9-11-1-3h-2v-2l-4-2-8-8v-4h5l14 8 8 5v2l4 2 2 2h10l2-1 2 1 2-9 3-13 1-2h2l2-8h2z" fill="#2F2448"/>
<path transform="translate(1181,292)" d="m0 0 15 1 21 4 15 4 19 7 19 10 8 4 15 10 3 4-3 1-2 4-4 5-4 8 1 7 7 12 14 16 11 12 11 11 7 9 10 11 8 8-1 4-9-1-15-2h-14l-12 3-10 6-13 13-5 7-3 10-2 19h-4l-4-4v-2l-5-2-19-8-7-2v3l5 2 12 8-1 4-6-1-15-4h-16l-16 4-9 4-6 2-1 3-2 1-1 6 12-2 10 1 11 4 20 14 6 9 5 11 2 11v15l-3 12-6 12-11 13-10 7-14 6-8 2h-26l-16-4-5-3-7-8-9-12-5-10-3-13v-24l4-14 7-17 4-5 5-9 9-11 10-8 16-10 19-9 17-8-4-2-9-1h-22l-19 3-15 5-17 8-11 7-11 10-8 11-8 13-4 6h-3v-8l2-6 3-14 6-15 7-11 5-7-4 2-5 6h-2l-2 5-8 14-5 10-3 9h-2l-3-5-3-24v-28l2-16 5-20 4-11 4-7 6-12 8-12 9-9 15-10 16-6 16-3h28l18 1h2l3-13 2-2h3l4 6 4 1-5-12-7-11-6-6v-2l-4-2-9-8-1-4z" fill="#4E24D2"/>
<path transform="translate(690,584)" d="m0 0 5 2 1 3 5 2 13 5 17 4 1 2-3 5-11 8-6 8-4 4h-2l-2 5-8 14-1 7 6-2 19-11 16-6 3-2 24-8 10-2h13l6 3 6 7 12 16 12 13 8 7 19 10 13 4 20 3h6l1 4-13 6-10 4-19 9-14 8-16 11-13 11h-2l-1 3-10 8-5 5-2 3h-2l-2 4-4 3v4l22 2 20 4 6 2 14 4 8 2 1 6h-2l-1 3-5-1-8-4-13-2-12-3-25-2h-20l-7 11-8 11-6 9-4 8-1 3 30-2h32l22 2 6 1-1 4h-10l-9-2-17-1h-32l-21 1v2l-7 3-8 20-5 10-3 11 12-3 27-9 11-3 44-7 15 1 6 5-3 1h-9l-2 7v6l8 9 2 3 14 1 2 3v6l-1 1h-9v4l10 19 16 24 9 14 9 15 15 31 9 24 7 25 3 12 4 24 2 20 3 73 2 24 4 24 10 30 7 16 8 13 6 8 2 4 4 2 9 6 16 8 17 8 22 7 25 4 8 1h36l23-4 18-6 23-10 16-11 10-9 4-4h2l1-3h2l2-4 7-8 7-12 7-14 3-7 2 1-3 15-3 10-11 24-10 16-12 16-8 9-8 7-4 2v2l-10 7-11 7-12 6-23 8-20 4-11 1h-26l-11-1-12-3-13-4-18-7-13-10-7-6-6-7-7-6-7-8-8-9-18-22-10-14-8-16-1-3v-41l-2-20-3-20-9-30-8-21-5-13-4-15-5-25-7-27-9-27-8-20-11-24-8-15-10-17-11-17-12-19-3-6-3-1-2-4h-8l-50 14-16 5-3-1 25-10 13-5 15-4 3-1v-2l13-3 1-1h9v-11l2-2 3-19-17 3-8 2-15 1-35 10-5 1v2l-9 3-1 13-1 2-1 11-1 2-3-1-3-8-1-12v-2l-7 2-4-1 9-6h2l-1-3v-22l1-15-1-2-11 2-18 6-1-2 19-8 11-4 3-1v-6l4-14 5-21v-2l-6-2v-2l9-4 2-1 2-8 10-19 8-14 14-22 6-7 10-13 7-9 5-5 9-10 8-10-10 3-22 6-21 8-16 8-11 6-12 8-16 15-6 5-3-2 1-6 7-9 6-7 8-13-8 7-10 12-7 8-12 20-5 9-4 4-2-3v-10l2-25 7-31 6-16 3-9 8-19 2-3 4 1v16h2l2-9 3-11 1-23 1-13z" fill="#4E24D2"/>
<path transform="translate(921,304)" d="m0 0h41l2 2-6 4-16 6-16 10-13 9-15 13-1 2 11-1 23-5 13-1h9l21 4 17 6 9 5 6 4 9 7 6 5v2h2l7 10 7 13 8 24 4 25 2 26v7l-5 1-15-4h-16l-9 3-12 7v3l10 6 10 8 9 9 9 13 7 14 2 14v22l-4 17-5 13-9 14-4 4h-2v2l-10 7-12 5-7 1-7-3-21-4-18-7-10-7-8-6-7-8-5-11-2-5-1-8v-11l3-10 7-11 8-8 16-8 10-2-4-2h-15l-1-3 2-4 10-5 11-2h14l5 1-1-4-8-11-9-6-5-3-15-3h-16l-13 3-12 6-6 5-3 4h-2l-2 4h-3v-5l7-13 9-10 15-10 15-6 9-1-5-5-15-9-31-14-16-5-10-2-20-2-22 2-17 4h-4l-1-4 8-7 14-8 11-4 10-4 16-2h29l-5-5-9-6-24-12-17-5-22-3-7-1h-36l-1-3 8-3 20-3 11-1h25l15 2 19 4 19 8 9 4-3-7-8-10-6-9-13-15-5-5-5-4-5-5v-2h-2v-4l21-6 18-5 16-3 21-2z" fill="#4F25D3"/>
<path transform="translate(1073,636)" d="m0 0 21 1 19 3 5 2 13 5 6 4 9 7 4 5v2h2v2l4 2v2h3v2l20 6 13 4 9 3 14 7 1 2 9 5 5 4v2l4 2 11 6 1 1v5l-1 1-11-1h-18l-20 5-12 5-11 8v2l3 1 4-3 6-1 7-3 14-2 5 2-1 8-5 10-5 5-8 9h-2l-2 4-2 2-5 2-7 6-15 7-22 7-20 3-7 2h-21l-8-4-11-3-20-3-19-1-26-4-7-3-10-10-6-2v-3l-5-1v-2l-4-2-4-4v-2l-4-2-7-8-12-12 2-3 14-1 7 3 15 5 8 4v2l10 1-7-5-4-4-3-2v-2l-5-2-9-4-8-5v-2h-2v-3h-23l-19-3-1-5 4-4h2l2-4 7-4 11-6 8-5 13-4 17-4 20-2 5-2 4-6 2-4h3v-2l7-7 3-2h3v-2l14-7 13-3 11-2z" fill="#3D2380"/>
<path transform="translate(1124,1021)" d="m0 0 9 4 5 1 6 5v3h2l3 6 4 2 1 9-1 9-4 16-3 11v20l3 19 3 11 1 8v14l-4 13-8 10-11 8-14 4-4 1h-88l-13-3-10-6-7-7-6-10-1-3v-11l6-16 5-11 1-5v-22l-10-30-3-8 1-8 5-4 5-2 4-5 6-3 5-1 1-1 8-1 14 1 8 3 5 5v2l6 2 3 4v2l4 1v2h3l2 5 4 1 1-2 5 2h4l4-13v-3l4-2 6-9 11-9 8-6 3-1z" fill="#4F25D3"/>
<path transform="translate(1325,830)" d="m0 0h16l12 2 7 2 20 4 3 2 5 19 2 12-2 2h-12l-12-3v-2l-11-2-9-2-27-3h-9-3l-4 5 10-1h11l24 4 13 3v2h-6v10l-3 12-9 13-4 5h-2l-2 5-6 7h-2l-2 4-5 8-4 10-4 14-1 29-3 12-6 17-5 9-3 9-6 16-4 9-8 30-6 27-5 23-5 32-3 30-2 21-2 7-3 16-4 14-4 8-5 15-4 6-7 6-9 4-6 7-9 11-4 4h-2l-2 4-3 1-3 3h-2v2l-8 7-12 12-5 4h-2l-2 4-7 6-12 9-12 8-12 11h-2l-1 3-15 6-14 5h-17l-10-2-6-2-16-9-5-4v-2l-5-2-4-4-5-2v-2h-2l-4-6-8-5v-2l-5-2-1-3h-2l-5-5-3-6 4 2 7 5 26 10 15 3 2 1 11 1h26l11-1 23-5 25-9 14-8 12-9h2v-2l8-7 13-13 10-14 12-20 10-22 5-21v-2l-2 2v-8l3-10 2-9 2-7 3-29v-41l1-16 3-16 3-21 8-46 5-18 5-16 9-19 7-11 8-12 5-9 9-14 5-10 8-9 12-18h2l2-6 3-4h2l2-9v-13l1-2h-2v-2h-25l1-6 3-5 9-2h2l3-11 3-2 3-5 4-4z" fill="#362364"/>
<path transform="translate(803,852)" d="m0 0h17l2 2-7 1-2 7v6l8 9 2 3 14 1 2 3v6l-1 1h-9v4l10 19 16 24 9 14 9 15 15 31 9 24 7 25 3 12 4 24 2 20 3 73 2 24 4 24 10 30 7 16 8 13 6 8 2 4 4 2 9 6 16 8 17 8 22 7 25 4 8 1h36l23-4 18-6 23-10 16-11 10-9 4-4h2l1-3h2l2-4 7-8 7-12 7-14 3-7 2 1-3 15-3 10-11 24-10 16-12 16-8 9-8 7-4 2v2l-10 7-11 7-12 6-23 8-20 4-11 1h-26l-11-1-12-3-13-4-18-7-13-10-7-6-6-7-7-6-7-8-8-9-18-22-10-14-8-16-1-3v-41l-2-20-3-20-9-30-8-21-5-13-4-15-5-25-7-27-9-27-8-20-11-24-8-15-10-17-11-17-12-19-3-6-3-1-2-4h-8l-50 14-16 5-3-1 25-10 13-5 15-4 3-1v-2l13-3 1-1h9v-11l2-2 3-19-17 3-8 2h-10l4-2z" fill="#4E24D2"/>
<path transform="translate(1557,820)" d="m0 0 1 2h2l4 9 5 13 3 20v34l-2 17-2 11 2 1-4 10-4 1-2-2-3-7-4-2-4 9-3 10-2 7-1 7-4 10-3 12-2 7-3 10-8 17-6 10-5 1-2-3 1-13 1-2-5 1-9 8-9 13-10 13-1 2h-2l-2 4-6 7-12 16-5 6-5 5-12 13-6 8-7 8-8 7-8 9-8 7-16 16-8 7-8 3-7-1-3-4h-2v2l-5 5-4 2-2 4-23 23-12 11-6 5h-5l-3-4 1-28 3-38 6-28 6-21 5-10 5-13 6-13 8-16 7-13 8-15 5-8 3-2h4v5l-6 12-3 8-4 11-1 12 7-2 14-10 13-10h2v-2l16-10 9-6 6-3 19-12 15-10 11-9 8-7 14-14 4-2 4-8 4-2-2 4-4 7-14 15-11 10-12 9-10 7-15 10-22 14-17 11-14 10-11 9-9 7-3 6v27l-1 15-4 18-3 7-3 8v4l4-2 5-4h2v-2l10-8 10-9 4-3h2l2-4 6-5 17-17 9-11 9-10 10-13 6-7 2-4 5-2-1 7-7 15-4 10v2l4-2 8-8 9-12 9-11 12-17 11-16 11-17 12-21 13-28 14-36 4-2 1 18-2 19h2l2-10 4-16 4-26 5-31 4-30z" fill="#362364"/>
<path transform="translate(796,447)" d="m0 0h13l16 4 11 4v2l6 2 3 3 5 4 3 6v3l-6-1-13-4-10-1-12 2-9 3-13 3-15 6-13 9-10 8-10 7-11 8-16 15-11 12-7 8h-2l-2 5-7 11-6 8-4 8-6 21-4 11-1 13-3 7-6 10-7 11-8 18-2 9-2 5-1 14-3 12-1 25 1 6 1 13 3 16 5 19v2l5-5 4-6 11-14 10-11 7-8 8-10 8-7h2v-2l10-7 21-14 6-2 2 3-9 13-8 9-7 10h-2l-2 4-11 15-3 6h-2l-1 6h-2l-1 5-7 11-8 18-4 7-3 10-3 12-1 5-4 3v29l5 21v2h2l4 9 7 12 7 5-2 4-4 2-3-1 1-5-8-13-8-17-4-12-1-6v-30l2-2 5-22 5-11 5-13 8-13 6-12 14-21 4-4 9-12 1-4-5 2-3 3-5 3-9 7-6 4-10 9-7 8-5 5-8 11-9 15-3 1-3-4-5-16-5-21-2-17v-22l1-21 3-9 5-16 4-10 2-4h2l1-5 7-14-1-5-9 4h-2v2l-4 4-8 14-8 10-1 2h-2l-3 10-5 13-5 18-2 9-2 20-1 18-2 14-2 19-2 13-2 19-3 24-2 11-2 12-3 7h-3l-2-5-4-35-1-20v-24l1-15v-8l2-9 1-9h-3l-2 4-1 3h-2l-1 6-4 6-2 1-2 6-3 1-2-2-1-7 5-18 6-19 3-9 5-14 6-16 8-18 1-6-9 6-10 4-5 3-7 3-19 10-22 11-11 2v-3h2v-2l6-5 7-8 2-1-2 4-5 6-1 2h-2l2 2 9-3 11-9 4-1 2-4 9-7 3-1 1-3 14-10 9-7 3-3 10-5 3-1 2-4 3-3h2l2-4 6-6 4-2 2 2 2 15-2 16-2 7h2l2-5h2l2-5h2l1-4 8-11 8-8 4-6 18-12 1-3-3-9-1-8v-22l4-19 11-24 10-15 7-7 7-8 3-3h2v-2l13-10 5-4h2v-2h3l1-3 16-12 8-4 3-3 21-10 11-4z" fill="#362464"/>
<path transform="translate(1240,743)" d="m0 0h7l6 2 14 8 1 4-2 3-11 6-19 12-3 1v2l-10 8h-2v2l-6 5h-2l-2 4-10 10-5 6-1 6 17-12 21-13 32-16 14-5 9-1 6 7 7 6v2l3 1-1 4-14 7-17 7-16 8-13 6-12 7-14 8-1 3 2 1 4-1 11-6 13-4 22-5 6-2 23-2 5 2 2 4-1 8-8 5-37 9-30 8-14 6-9 5-1 2 9-2 15-4 19-3h27l10 2 5 3-2 5-5 3-13 2-16 3-12 4-19 8-9 5-2 3 22-3 12-1h13l3 3h-2v2l-16 10-16 8-15 6-22 6-12 2-16 1h-11l-14-2-14-3-8-5-2-2-1-5 3-7 4-2v-3h2l1-5 10-16 6-7h2v-2h2l2-6 8-9 6-9 7-7h2l2-5 7-9 1-2h2l2-5 6-8 9-13 6-10 8-11 8-16 7-11 7-8z" fill="#4F25D3"/>
<path transform="translate(1164,692)" d="m0 0 15 3 14 4 6 4-1 4-13 2-15 3-10 3v2l-5 2-7 4-1 3 6-2 18-7 9-2h6l-2 4h-2v2l-13 8-6 3-8 7-3 6-2 11h-2l-1 4-3 4-1 4 9-4 13-8h2v-2l11-7h2v-2l15-6 6-2 4 1v7l-4 6-10 9-9 8-11 8-14 8-18 7-21 3-7 2h-14l-5-2-12-3-17-5-22-1-17-3-17-6-14-9-7-6v-2l-4-2-4-4-7-9v-4l3-1 17 6 13 6 14 7 8 5 1-3-7-8v-2l-3-1-2-5 8 1 16 8 9 6 9 5 3 1-5-9-11-11-4-5-10-8-16-8-17-5-14-4-16-2-21-2-3-3v-2l20-7 16-3h34l24 4 15 4 11 6 11 7 5 2-2-7 1-3 6 4 4 5 3 5 3-1 4-6 8-9 9-6 8-4 6-1 20-1 14-2z" fill="#4E24D2"/>
<path transform="translate(873,774)" d="m0 0 8 1 13 4 16 6 4 3 5 1 12 4 8 4v2l4 1 5 4 11 6 11 7 8 6 10 4 4 3v2l4 2v2l4 2 4 4v2l4 2v2l4 2v2l4 2 22 22 1 2 4 2 5 8 3 6 2 13-1 9-4 3-7 2-3 2-20 4-11 2-23 1-17-2-17-3-22-8-9-4-14-9-1-4 1-1h54v-2l-20-8-16-5-20-5-9-3v-3h-2v-2l3-2h23l14 2 15 3 9 3 8 2 6 1 10 5 7 1-1-3-11-8-8-7-19-10-12-5-9-3-16-4-14-4-33-7-14-4-2-4v-10l1-2h9l13 4 32 10 17 6 12 4 17 5 12 5 9 6 7 3-3-5-2-4-6-3v-2l-4-2-10-7-14-9-15-10-5-3-5-4-18-8-15-7-10-5-4-4 1-5 4-5z" fill="#4F25D3"/>
<path transform="translate(814,478)" d="m0 0h9l13 2 12 5 13 10 8 11 4 9 3 16v6h-4l-7-6-11-6-9-5-15-3h-14v3l9 7 5 3 14 11 9 11 9 12 8 12 5 9 7 11 4 7v4l-4 1-13-10-21-14-14-8-16-7-21-6-18-3h-44l-20 3-11 3-8 4-5-1 2-7 5-8 9-9h2l2-4 9-9 5-6 4-4h2l2-4 8-7 14-9 12-8 17-9 15-5z" fill="#4F25D3"/>
<path transform="translate(1578,289)" d="m0 0 5 1 1 4v10l-4 12-6 11-11 14-11 12-8 7-13 10-11 8-16 9-19 8-21 7-11 2-6 2-18 3h-25l-19-4-15-6-23-13-11-7-4-4-2-6-8-3-11-6 2-4 5-2 7-1 77-2 9-1 2-1h12v3l-5 1v2l-3 1-1 2h-3l-1 3-3 1-1 2-3 1-1 2-7 3-1 2 35-6 30-7 27-9 19-8 22-12 17-12 13-11 12-12z" fill="#4E24D2"/>
<path transform="translate(1321,470)" d="m0 0h13l16 3 5 2v2l10 3 2 1v2l6 2 7 4v2l8 4v2l4 2 10 9 5 5 6 5v2l4 2 8 9 6 5 8 10 5 5 9 10 8 11v3l-8-2-3-2-10-4-26-7-5-1-16-1h-14l-19 2-16 4-16 5-20 8-24 12-1-4 8-14 8-16 5-12 2-10 2-24-13 5-8 7-4 5-4-1v-8l7-17 5-10 4-5 8-7 7-5z" fill="#4F25D2"/>
<path transform="translate(935,737)" d="m0 0 7 3 5 4 5 7 2 12 2 5h2l5 15 11 18 15 20 5 5 5 6 2 1 3 5 3 2v2l4 2 7 4v2l5 2 7 8 4 5 5 4 8 11 6 12 9 15v7l-4 4-20 9-16 4-6 1-19 1h-14l-14-1-16-3-21-8-21-9-15-9v-2l-3-1 1-7 7-3 11 1h15v-4l-10-1-12-3-23-4-8-3-2-3v-5l5-5 4-2 14-1h28l6 2 15 1-1-4-12-3-17-5-24-6h-15l-8-3-9-2-8-6-2-1-4-10-2-3v-9l2-4h11l16 4 9 3 10 1 2 2 11 3 11 5 5 2 18 8 10 4 4-1v-2l-5-2-18-11-17-8-8-4-9-5v-2l-6-2-5-3-8-1v-2l-9-2-9-4-2-8 1-9h2v-3l7-6 3-1h8l7 4 7 3 6 4 9 4 19 9 14 7 12 7 5 1-3-7-4-6-2-1v-2h-2l-3-5-6-3-5-5-9-5v-2l-3-1-1-2-10-2-6-4-2-3 5-8 5-5 8-3h14zm-62 37-5 4-2 3 1 5 4 4 23 10 16 8 7 4 3 3 9 5 15 10 11 7 8 6 3 1v2l4 3h2l2 4 3 5-7-3-11-7-16-6-20-6-18-6-25-8-17-6-5-1h-9l-1 2v10l2 4 14 4 33 7 20 6 10 2 9 3 16 7 18 10 7 7 10 7v2l-7-1-13-6-7-1-21-6-21-3h-23l-3 2v2h2l1 4 21 5 16 5 20 7 5 3h2v2h-54l-1 3 5 5 13 8 16 6 17 5 18 3 12 1 22-1 12-2 19-4 5-3 7-2 3-5v-9l-3-12-7-12-4-2-7-8-18-18h-2l-2-4h-2l-2-4h-2l-2-4-4-4h-2l-2-4h-2l-2-4-9-4-9-5-8-6-13-8-7-4-2-2h-3v-2l-8-4-18-6-10-5-15-5-12-3z" fill="#3D2380"/>
<path transform="translate(742,453)" d="m0 0 6 1-2 1 1 3-12 9-14 12-10 8-7 8-11 9-8 8-9 11-4 6-6 5-2 3h-2v3h-2l-2 5-3 5-8 8-3 6-9 14-5 10-3 1-1-1v-7l11-23 8-15-5 3-13 18-7 10-8 10-7 11-7 10-11 15-1 3h-2l-2 5-7 10-5 6-4 7-10 14-9 9-4 5h-2v2l-4 3h-4l-1-4 2-3h2l2-5 8-11 13-23 18-36 9-17 8-16 6-11 7-11 8-11 13-18 4-5v-3l-16-8-18-11-7-5v-2l-4-2-8-7-2-5 2-1 1 2 4-1 15 3 17 8 12 6 12 4 9 2h15l13-4 9-5 3-3 1-6-5-1-6-4-3-4 1-5 21 1h17v-2l14-3z" fill="#4F25D3"/>
<path transform="translate(944,1214)" d="m0 0 4 1 3 3v2l3 1 1 4 3 1 2 2 7 6 6 7 12 7 9 3 6 1 4-1 2-4h15l16 5 10 3 13 1 51-1 12-3 1-2 7-4 2-2h7l3 3 2 4 3 1 13-1 10-2v-2l3-1 2-3h3l2-4 6-2 3 5-1 7-10 10h-2l-2 4-4 4h-2l-2 4-10 6-10 4-24 5-14 3-19 3-18 2h-13l-6-1-18-1-13-2-12-4-3-2-10-2-9-6-10-4-9-7-10-11-3-9h-2l-3-7-8-16-1-5z" fill="#362464"/>
<path transform="translate(788,1010)" d="m0 0h4l5 10 4 13 4 10 8 25 5 15 5 12 6 15 9 28 6 22 3 23-1 13-4-1-8-9-7-10-5-6-2-1v-2l-4-2-9-9-8-7-9-8v-2l-5-2-4-3v-2l-4-2-1-3-4-2-9-9-3-5v-2h-2l-6-9-4-4v-2h-2l-4-7-2-10 4-2 10 7 5 5 6 4 4 5 5 3h6v-7l-5-6-6-11-3-9-8-16-5-11-3-8v-4l5 1 9 9 7 5 4 6 9 17h2v-34z" fill="#362464"/>
<path transform="translate(633,889)" d="m0 0 4 1 6 16 4 9 7 21 3 5v2l3 1 5 10 10 21 6 14 8 16 6 13 5 14 9 16 5 11 8 21 3 15 5 8 5 16 2 7v5l-4 1-5-5-9-10-7-8-13-16-10-15-15-20-5-9-7-11-8-16-8-17-4-9-6-19-5-21-2-18-1-16 1-19 3-13z" fill="#362464"/>
<path transform="translate(554,310)" d="m0 0 6 2 20 12 22 13 15 10 3 1v2l4 1 13 8 3 1v2l4 1 16 8 8 3 11 5 27 9 25 3h25l18-2 1 2-6 4v4l14-1 19-6 9-2 8-4h6l1 2-9 6-13 5-17 8-21 8-16 4-13 2-23 1-18-2-13-3-2-1 1-3 2-1h9l7 1v-2l-16-2-20-5-20-8-13-6-14-8-13-9-13-12-4-5-12-12v-2h-2l-6-9-7-10-6-11z" fill="#4E24D2"/>
<path transform="translate(1027,271)" d="m0 0h24l22 3 28 6 23 8 12 5 6 4 13 6 4 1-2-4-10-8-2-1 1-6 6-2h22l7 1 4 1h5l10 2 11 1h9l23 5 8 3 4 1v2l5 1 4 1v2l5 1 26 13 10 6v2l4 1 11 6 3 4-2 5-8 11-2 3 7-1-2 2-9 2-1-4 3-5h2l3-6h2l1-8-8-5-9-5-4-2v-2l-5-1v-2l-5-1-9-4-5-2v-2l-3 1-9-5-10-2-23-7-31-5-27-3h-3v6h-2l1 6 4 4v2h3v2l4 2 7 5v4l-8-1-8-4-9-4v-2l-9-2-15-9-14-7-12-3-9-3-37-5-10-1-5-1-3 1-1-1h-16l-3 1-4-1-8 1 1 4 2 4v4l5 1 6 5 2 7 6 7 8 8 2 5-1 2-5-1-6-3v-2h-2v-2h-3v-2l-4-1-13-6v-2l-7-2-7-3-8-4-18-6-17-2h-28l-26 3-24 5-18 6h-5v2l-9 3-10 3v2h-3v2l-9 5v3h-2l1 5 7 1 2 2 8 4v2l5 1 7 3 1 4 4 2 3 5 8 10 1 4-5 1-3-3-12-3-9-3-18-3-8-1h-12l-28 3-25 4-19 1h-5l2 4v3l-9 1-31-5-15-3-13-5-8-4-7-3-11-5-10-6-16-10-8-4-18-10-9-6-2-5-7-2-3-2-7-1-7-2-6 2-5 1 2 10 3 9h2l7 11 12 14 4 6 5 5v2h2v2h2l7 8 5 4 5 5 13 9v2l4 2 16 9 12 6 15 6 13 4 17 4 14 3 9 1h30l14-1v1l-13 2-19 1h-8l-20-2-15-4-20-5-19-7-14-7-10-6-7-4-10-8-11-8-13-12-5-5-8-7-5-6v-2h-2l-6-8v-2h-2l-3-5-7-11-2-8v-9l3-7 2-2 5-1h7l17 8 9 6 19 11v2l6 1 5 5 12 7h2l3 3 16 9 13 5 8 3 21 8 5 1h7l2-6 4-1 16 1 16 2 7 1h26l16-1 17-3h30l24 4 11 3-1-3-5-5-9-8-12-7-16-5-4-4 1-5h2v-2l10-8h2v-2l9-4 17-4 11-4 17-5 40-6 20-1h19l25 4 16 5 12 5 13 9 7 6h2l-1-5-5-5-4-5-13-9v-2l-4-2-9-6v-2h-2l1-4 5-2z" fill="#362364"/>
<path transform="translate(1536,392)" d="m0 0 2 1v8l-3 15-7 20-7 13-8 11-9 10-1 3 22-3 9-3h3l-1 4-7 7-20 15-20 12-7 4 6 8 5 7 5 5 7 11 4 7v2h2l1 5-5-1v-2l-4-1-13-9-24-16-5-3-3-5v-3l2-2 7-3-4-1h-11l-6-2-9-5-5-4-6-10-1-11 2-5v-4h-19l-14-4-8-4-20-12-4-4v-2l-5-2v-2h-2v-4l3-1 17 11 14 5 13 3h15l24-4 34-11 2 1-2 5-9 11-18 18-4 7 5 10 3 3 5 1 14-8 10-8 8-8 8-10 8-12 7-15 9-21 6-10 5-5z" fill="#4F25D3"/>
<path transform="translate(950,741)" d="m0 0 6 3 7 8 1 3h2l4 5v2h2l7 8 8 7 10 8 5 2 20 3 23 1 28 4 16 6 10 1 1 1 12-1 13-3 8 2 7-1 5-4 8-6 22-7 10-7 7-4 5-5 5-3h2l1 4-5 16-3 8-1 6-8 11h-2v-2l-3 1 5-10-8 2-11 1-3 2-1 3-31 10-14 4-9 4h-2v2l-10 5-4 6-1 8 1 2v15h-4l-3-12-2-18-3-3-4-2v-2l-5-1-16-8-11-4-19-5-12-2-3-3-24-1 1 4 3 6 1 3-5-1-7-6-9-12-5-10-2-8-3-5-2-9-8-14-4-5z" fill="#2F2449"/>
<path transform="translate(1234,740)" d="m0 0h9l14 4 15 10 1 3-5 5-12 6-10 8-4 1v2h-3v2l-10 8-8 6h-2l-1 3h-2l-6 7-1 2 4-1 17-10 14-8 17-9 19-7h9l6 4v2l4 2 7 10v5l-4 4-6 2-4-1 11-6v-3l-5-5-8-7-2-3-13 2-12 5-32 16-19 12-14 10-3 1v-6l14-15 4-5 6-5h2v-2l8-6 4-2v-2l17-11 13-8 3-1 1-6-5-2-10-6-9-1-9 2-6 5-11 17-8 16-8 11-6 10-7 10-9 13h-2l-2 5-8 11-8 7-8 11-6 7-3 6h-2l-1 4-7 6-10 17-1 3h-2v3l-5 5-1 5 2 5 4 3 9 3 13 3 10 1h11l16-1 16-3 20-6 15-6 21-11 7-5h2l1-3-2-1h-13l-17 2-7 1h-10l2-4 16-8 17-7 16-4 10-2 10-1 5-3 1-4-7-3-7-1h-27l-19 3-18 5h-6l2-4 13-6 13-5 26-7 37-9 7-4 1-8-2-4-8-1-19 2-15 4-21 5-16 8-5 2-1-6 10-6 17-10 16-8 9-4h3l1 2 7 1v-2l5-2 28-2 2 2 2 11 5 3 25 2 12 2 1 2-14-1h-29l-3 5 2 1-6 2-7 5-14 3v2l-5 1v3l-6 2-1 6 15 6 1 2v6l-5 5-10 4-3 3-6 1-3 2-1 3 7 2-1 4-8 7-7 3-9 6-23 11-19 6-26 6h-33l-13-2-17-5-6-4-2-6 8-16 9-15 3-6 7-9 7-6 2-3h2l2-4 7-9 12-11 8-10 7-11h2v-2h2l2-5 7-9 4-7 6-10 2-3 3-11 5-11 4-9 1-2h2l2-5 5-3z" fill="#3C237F"/>
<path transform="translate(761,778)" d="m0 0h20l25 2v1l-11 1-9 8-9 15-5 10h32l8 3 14 3 1 6-8 2-1 3v14l7 3v2h2l-1 3-5-4-16-1-31 5-12 2-24 7-20 7h-6l2-11 5-10 8-20 4-3h4v-2l21-2h32l17 1 9 2h10l1-3-15-1-13-1h-32l-16 1h-14l1-6 8-13 7-9z" fill="#3D2384"/>
<path transform="translate(1027,283)" d="m0 0 24 1 24 3 16 4 19 7 10 4 11 6v2l5 2 11 6 2 4-1 1h-8l-4-1h-10l-11 2-8 3-14 7-10 8-6 8-4 9-3 8-5-1-7-8-11-10-13-8-11-5-12-4-16-4-1-2 1-2h12l37 5 1 2h10l-1-5-8-15-8-10-6-6v-2l-4-2-3-3z" fill="#4F25D3"/>
<path transform="translate(1121 1e3)" d="m0 0h19l9 3 10 7 7 14v14l-6 15-9 20-4 17v10l3 21 1 9-2-3-3-14-1-8v-20l6-21 2-10v-14l-5-2-2-6h-2l-3-5-5-3h-5v-2l-4-1-3-1-10 2-7 6-6 4-8 7-5 8-4 1 1 3-4 13-5 1-5-2-5 1-2-3v-3h-3v-2l-4-1-3-5-6-3-5-5v-2l-7-1-5-1-11-1-7 1-3 2-6 1-5 4-5 5-5 2-2 4 1 8 1 5-2-1-4-13-1-26 2-9h9l8-3 1-1 15-2h10l16 5 11 8 5 5 8 11 5 10 2 1 3-15 5-11 8-11 11-10 8-5z" fill="#3D2380"/>
<path transform="translate(796,450)" d="m0 0h11l15 3 12 5 5 4-1 4h-24l-14 2-25 8-13 8-3 3h-3l-2 4-15 12-9 4-4 5h-2l-1 4-7 6-5 5-6 9-9 9-3 4h-2l-3 9-7 10-7 11-6 20-2 3-5-1-2-11v-8l6-25 7-17 7-10 1-2h2l2-4h2l2-5 3-1 1-5 4-3h3l2-6 11-8 4-2 1-3 12-7 8-6 16-8v-3l15-6 1-2 15-6z" fill="#2F2548"/>
<path transform="translate(1326,456)" d="m0 0h23l17 4 15 6 7 4 8 4v2l4 2v2h2l1 2 4 2v2l5 2 7 4v2h3v2h2l4 8 6 5v2l4 2 4 4v2h2l5 8 7 9v2h2l4 6 5 7 8 18 3 5-1 15h2l4 7 1 3h2l1 9h2l3 18v6l-4-4-3-9-7-15-4-8-3-7-6-11-4-7-5-5-9-10-6-7v-2l-3-1-9-11-7-6-7-8-2-1v-2l-4-2-4-5-8-7-9-7-1-2-7-4v-2l-4-1-7-4-2-1v-2l-10-3-2-1v-2l-15-3v-2l-10-1h-10l-4 1h-13l-4 2-2-4 5-4 13-6z" fill="#2F244A"/>
<path transform="translate(1082,484)" d="m0 0 2 1-1 8-5 14-4 12h-3l2 11 5 6 2 6 3-1 8-15 2-5 7-3 6-5h2v-2h2l2-4 10-7 14-7 8-3h6l-1 4-8 6-7 6-6 4-8 8-1 3h-2l-2 4-4 6-3 5-5 10-5 5-5 12-7 21 1 13 2 3 2 9 5 2 9 7 4 6 5 4 4 2 12 3 9 3 2-1-5-8 1-5h2v2l5 2 8 4 4 4 14 7 7 4 8 3 11 1 12-2 12-5 5-2v-2l3-3h2l2-5 4-5 12-24 4-12 4-18v-11l-2-9-4-8v-2l-3-1-5-5-8-7-6-5-11-4-6-5-10-4-1-2 2-1h19l1 1 14 3 10 3 3-1 7 3 4 6 3 2v2l4 2 1 4 3 1 2 4 4 4 1 7 2-1 3-5 10-12h2l1 4-7 15-3 11-4 9-7 14-3 7-3 9-2 3-2 8 1 2 7-4 9-3 6-3 12-5 13-5 14-6 7-1-3 2-15 6-23 10-17 9-12 7-4 4h-4v-6l7-15 6-16 5-11 4-12-5-3-2-16-4-7-4-4v-2l-4-2-4-4v-2l-5-2-14-6-12-3-5 1 13 5 11 9 1 4 3 1v2l3 1 7 15 2 7v12l-2 11-5 16-4 11-8 16-8 13-8 7-12 6-13 3h-10l-16-5-20-12-8-5v4l2 4-1 4-9-1-9-4-18-6-6-4-3-1-5-5-9-7-3-16-3-8 3-9 8-26 6-12 9-15 4-5 5-5 6-7 9-7 6-4v-3l-9 3-12 7-9 10-4 4-4 6-8 7-7 10-2 2-4-1-7-14-5-2-8-5-5-3-3-5-13-9-4-1 3 5 4 4v2l4 2 10 13 11 18 8 17 3 6 2 12-1 9-6 17-2 4h-2l-2 5-3 5-10 6-20 8-11 5-13 2-5-5v-2l-9 3-3-1 7-2v-2l14-6h5l5 7 8-1 11-5 7-3 10-5h2l2-5 3-7h2l2-5 3-13v-14l-2-9-5-14-9-16-5-8v-2l-4-2-9-11-1-3h-2v-2l-4-2-8-8v-4h5l14 8 8 5v2l4 2 2 2h10l2-1 2 1 2-9 3-13 1-2h2l2-8h2z" fill="#362364"/>
<path transform="translate(1557,820)" d="m0 0 1 2h2l4 9 5 13 3 20v34l-2 17-1 7h-1v-16l1-4v-30l-2-4v-5h-2l-1-5h-4l-2 4v3l-4 11-5 17-2 6-2 13-4 20-2 6-2 9-6 17h-3l-1-3 1-14h-5l-1 4h-2l-2 6h-2l-2 5-4 8-5 5-3 5-1 2h-2l-2 6-4 9-2 1-2 5-4 7h-2l-2 5-3 1-2 5-7 11h-2l-2 4-8 9-7 10-2 3h-2v4l-9 7-7 9-4 7-5 5-5 1-2-3v-9l-9 5-4 6h-2l-2 5-5 5-5 2-2 4-10 7-4 2v2l-4 3h-2v2l-8 7-4 5-9 6-1 2-5 2-1 2h-5l-1-3 4-13 7-18v-11l-3-4 1-10 4-16v-11l3-5 12-11 16-12 14-10 19-12 24-15 10-7 2 1-5 4-15 10-22 14-17 11-14 10-11 9-9 7-3 6v27l-1 15-4 18-3 7-3 8v4l4-2 5-4h2v-2l10-8 10-9 4-3h2l2-4 6-5 17-17 9-11 9-10 10-13 6-7 2-4 5-2-1 7-7 15-4 10v2l4-2 8-8 9-12 9-11 12-17 11-16 11-17 12-21 13-28 14-36 4-2 1 18-2 19h2l2-10 4-16 4-26 5-31 4-30z" fill="#3C237F"/>
<path transform="translate(855,773)" d="m0 0h1v9l1 8 18 6v2h8l11 6v2l5 2 8 4 15 7 15 8 14 9 1 3-5 1-20-8-8-4-6-2-12-6-9-2-3-2-14-2-11-4-12-2h-8l-1 3v9l3 4 2 9 5 2 5 4 15 4 4 1h14l17 5 28 7 7 3 1 4h-15l-7-2h-34l-9 2-4 2-2 3 1 7 8 3 23 4 22 5v4l-2 1h-13l-11-1-6 2-1 7 2 1v2l5 2 14 8 29 12 12 4 17 2 10 1h14l19-1 15-3 7-1-3 2-13 4-22 3h-32l-12-2-15-3v-2l-7-1v-2l-3-1v-2l-5-1-11-6-15-8-9-6-9-7-3-5 4-3 13-1-1-2-13-3-16-2-5-3-2-4v-5l8-7 11-4 11-1 19-1-1-2-11-2-21-2-17-3-14-2-14-1 3-11 4-20 4-8 6-5 5-3-2-12 4-9z" fill="#362464"/>
<path transform="translate(744,567)" d="m0 0h12l22 2 28 6 22 8 13 7-3 1-14-7-24-7-26-5-16-1h-15l-24 4-5 1 2 6 9 3 25 4 4 4-2 4-17 10-2 3h-2v7l-3 1-1 4h6l16-6 16-4 10-1h15l7 3 8 11 4 6v2h2v3l3 1 8 10 11 12 5 4 13 6 6 2 12 1 7 2 25 3h22l3 1 1 3-16 16-2 3h-2l-1 3h-2l-2 5-4 5-4 14-6 13-4 5-10 6-17 3-13 3-3 2h-6l2-5 5-6h2l2-4 4-6h2v-2h2v-2h2v-5l-11 7-19 14-10 9h-2v2l-5 4-1 6 3 1-3 1-5-1 1-6 10-9h2v-2h2l2-4 11-9 8-6 7-4 10-7 12-6 4-1h7l3 3h5l2-4 4-3 2-9 4-2 4-6h2v-2l5-5 4-6v-2l-27-1-3-1-16-2-11-3-9-1-14-7-8-7-6-7v-2l-4-2-9-13v-2h-2l-6-10-3-3-8-3h-13l-5 1h-15l-21 6-13 4-7-1 4-7 4-6 3-1 2-4 14-10 5-3 1-3-1-1-16-1-10-2-12-5-10-2-3-2v-4l14-5 13-1v-2z" fill="#362464"/>
<path transform="translate(1076,631)" d="m0 0 5 1 20 2 12 2 17 6 9 6 11 8 3 4v2l4 2 7 6 11 4 17 4 9 4 7 3 10 5 14 10 9 7v2l4 2 7 7 3 6-1 1-10-1-11-2h-13l-11 2-2 3 10 2 1 1-1 7-3 8 5-2 3-3 4-9h8l6 5v2l12 2 9 4 9 7 5 4-1 5-10 6-5 5-8 7-4 1-4 2v2h-2v4l8-4 8-5 13-4 10-4 3-1h8l5 3 4 1 4 7 3 9 1 1v6l-4 1 1-7-7-10-7-6-2-1h-9l-21 8-23 12-11 7-14 8-2-1 2-5 4-2 1-3h2l5-5 6-4h2l1-3 4-1 1-3h2v-2h3v-2l8-5 8-6 13-7 1-5-5-2-10-7-14-4h-9l-9 2-4 6h-2l-2 6-6 15-3 7-2 7-6 9-3 6-5 7-2-1 5-7 3-13 4-9 2-10v-2l-9 6h-2l-2 4-10 6-9 5-19 6-2-1 9-4 16-8 7-6 5-2 5-5 8-9 5-5 5-12 1-5-8-1-14 3-6 3-5 1-4 2-3-2 1-3 11-8 12-5 20-5h18l11 1v-5l-11-6-4-3v-2l-4-2-7-5-4-2-3-3-15-7-15-4-11-4-5-1-7-3v-2h-3l-4-4v-2h-2l-4-6-11-9-11-5-6-2-5-2-19-3h-9l-12-1-6 2-12 2-13 4-7 4h-2v2l-6 3h-2l-2 5-3 1v2l-3 1-3 6-4 5-14 2-15 2-12 3h-5l1-2 13-4 24-4 4-1 2-6 4-5h2v-2l13-10 14-7 16-5 1-1z" fill="#362464"/>
<path transform="translate(808,398)" d="m0 0 2 1-2 5-4 4-8 7-4 2v2l-10 7-11 9-17 9-24 8-25 3-6 1h-18l-17-2h-8v5h2l1 4h2v2l4 2 7 8 3 5-1 4-5 3-6 2h-8l-8-3-9-6v-2h-3v-2l-4-2-9-7-1-3-4-2-5-5-6-5-8-11-3-6-12-21-6-2 3 11 5 9 4 5 4 6 3 3 8 16 3 4 1 4-2 2-13-2-22-5 2 5 5 5 6 4 7 5v2l4 2 21 13 10 5 7 4-1 4-7 9v-3l3-8-2-2-4-1v-2l-6-1-10-7-4-3v-2l-6-1-6-4v-2h-2l-4-4-12-9-1-2-3-1-4-4-2-5h2v-2l10 2 14 3 6-1-2-8h-2l-6-9-8-17-4-11-2-10v-8l4-1 11 7 7 8 1 3h2l11 19 10 13 11 11 7 8 12 9 5 3 6 3 9-2 3-3-9-10-10-10v-2h-2l-3-7 3-3 20 2h43l24-4 5-3h2v-2l6-3h2l1-3 8-4 6-1 3-1 2-3h3v-2l4-3 1-3-18 2-4 3-11-1v-1h5v-2l18-5 19-7 10-5 8-2z" fill="#362364"/>
<path transform="translate(1303,765)" d="m0 0h8l11 4 16 9 13 11 4 5-1 1-33 5h-5v4l11-2 28-2h6l7 9 10 18v4l-14-1-11-3-15-2-17-1-5-3-2-6-2-7-19 1-9 1-5 1v2h-7l-1-4 15-7 16-4 6-2-2-7-5-13-1-3-4-2 1-4 5 1z" fill="#2F244A"/>
<path transform="translate(1312,807)" d="m0 0 2 2 2 11 5 3 25 2 12 2 1 2-14-1h-29l-3 5 2 1-6 2-7 5-14 3v2l-5 1v3l-6 2-1 6 15 6 1 2v6l-5 5-10 4-3 3-6 1-3 2-1 3 7 2-1 4-8 7-4 1 8-8 1-2-39 3-6 1-4-2 4-3 20-9 14-4 30-5 3-4v-5l-9-4-5-1h-27l-21 4h-6v-2l8-4 15-5 11-3h3v-2l37-9 7-4 1-8-2-4-8-1-19 2-15 4-21 5-16 8-5 2-1-6 10-6 17-10 16-8 9-4h3l1 2 7 1v-2l5-2z" fill="#362364"/>
<path transform="translate(928,961)" d="m0 0 5 1 8 14 1 2h3l6-11h7l5 5 5-1 1-2h2l-1 8-4 20-2 19-1 3v42l-5-5-8-7-3-7-4-4-2-7h-2l-1-6h-2l-7-21-5-22-2-10v-8z" fill="#6B77EB"/>
<path transform="translate(1387,608)" d="m0 0 13 1 9 2v2l9 2 7 1 6 4v2l-5-1-9-4-14-4-17-1-10 2-9 17-8 14-13 15-8 8-10 7-9 5-7 3-13 5-13 3-20 1h-16l2 4 5 5 6 5v5l-2-4-6-4-10-8-14-10-1-5 3-2 18-3h12l7 2h14l15-4 17-7 6-5 5-2v-2l4-3h2v-2l8-6 3-4h2l8-16 3-8 5-5 10-3 9-1z" fill="#3D2380"/>
<path transform="translate(1584,294)" d="m0 0h1v12l-3 12-4 7-3 4h-2l-1 4-9 11-5 5-7 6-5 5-4 2-2 4h-3l-2 4h-3v2l-4 1-2 4-11 7-8 7-8 4h-2v2l-13 9-13 5-20 8-16 4-14 2h-19l-24-7-19-9-16-9-6-2 3 8 8 11 7 9 11 7 8 6 13 4 4 1h10l11 1 4 1h14l10-2 20-8 6-3 10-2 7-2 2 1-1 7-3 8-3 6-4 2v2l-7 4-6 10-3 4-1 4 2 3 6-1 9-3 9-6 8-8 3-1-2 4-9 10-8 7-14 9-6 2-5-3-4-5-3-8 7-9 18-18 8-11 1-2-6 1-30 10-24 4h-15l-17-4-12-5-5-5-10-7-7-5-3-1-8-11-5-5-12-17-1-6 1-1h5l5 4 3 1v2l5 2 11 7 12 7 12 6 21 6 12 1 25-2 18-5 10-3 10-5 7-3 14-8 16-10 6-5 15-10 11-9 8-7 7-6 7-8 10-13 8-16 2-7z" fill="#362364"/>
<path transform="translate(1325,830)" d="m0 0h16l12 2 7 2 20 4 3 2 5 19 2 12-2 2h-12l-12-3v-2l-11-2-9-2-27-3h-9-3l-4 5 10-1h11l24 4 13 3-4 1h-11l-17-5-28-1 1-6 3-5 9-2h2l3-11 3-2 3-5 4-4z" fill="#362368"/>
<path transform="translate(1184,798)" d="m0 0h4l-1 5-3 4h2v2l5-3-2 4-4 6h-2v2h-2l-2 5-8 11-12 13-7 6-7 10-5 5-8 7-5 7-6 12-6 10-7 14 2 6 8 4 18 5v1h-7l-18-6-5-3-1-2v-7l5-9 5-10 6-10 6-11 9-11 6-9h2v-2h2l2-6 5-5 8-10 1-2h2v-2h-2l-1-2-13-1-6 2-11 2-2 4h-2v2l-9 7-4 2-1 3-7 6-7 7-1 2h-2l1-20 3-13 7-4h2v-2l11-5 17-5 25-8h3l1-4 3-2z" fill="#362364"/>
<path transform="translate(1332,608)" d="m0 0h2l-2 9-5 13-6 10-13 13-9 6-13 5-16 3h-10l-19-5-8-4-1-4 10-4 13-7h3v-2l6 1 4 2 12 1v-2l7-2 1-5 6-11 19-9 6-2 10-5z" fill="#A41F8E"/>
<path transform="translate(765,819)" d="m0 0h32l22 2 6 1-1 4h-10l-9-2-17-1h-32l-21 1v2l-7 3-8 20-5 10-3 11 12-3 27-9 11-3 44-7 15 1 6 5-3 1-4-2h-17l-39 7-24 6-23 7h-2v2l-9 3-1 13-1 2-1 11-1 2-3-1-3-8-1-12v-2l-7 2-4-1 9-6h2l-1-3v-22l1-15-1-2-11 2-18 6-1-2 19-8 11-4 7-2 38-7z" fill="#4F25D3"/>
<path transform="translate(1239,949)" d="m0 0 1 2-1 15h-2l-1 13-3 10-5 12-4 10-1 5h-2l-3 10-5 10h-2v3h-2l-1 5h-2l-1 5h-2l-1 4h-2l-2 5-3 2v-37l-2-26-2-13v-9l9-6 7-1 4 5 4 18 1 2 3-3 9-20 8-17z" fill="#6B76EB"/>
<path transform="translate(1124,1256)" d="m0 0h9l3 4 2 9-4 4-10 4-7 6-6 2-13 2-17 1h-29l-6-2-10-4-9-5-7-3v-2l-2-1 1-1 14-1 4-1 21 2 27-2 16-5 15-5z" fill="#3D2380"/>
<path transform="translate(1050,680)" d="m0 0 17 1 11 3 12 5 7-1 9-4 15-3 11 1 15 5 4 3v2l-10 2-17 2-9 3-9 6-3 4h-2l-1 6-4 5-2 3-3-1-5-8-5-5-2-4-15-6-9-3-19-5h-9l-3-1-1-4 3-2z" fill="#2F2448"/>
<path transform="translate(825,607)" d="m0 0 11 3v2l9 2 14 8 3 8 4 6 8 4 6 2h9l7-3h6l10 6 12 9v3h-2v2l-8 2-18 2-17-2-4-1v-2l-7-1-8-3-10-6-11-10v-3l-3-1v-3h-2v-3h-2l-5-13v-2h-2z" fill="#A31F8E"/>
<path transform="translate(1121,1213)" d="m0 0 3 1-2 13-4 8-7 5h-14l-2-1h-7l-3 1h-8l-2-2h-6l-2 2h-8l-3-2h-5l-3 2h-17l-7-6-3-9-1-10 4 2 1 2 9 3h12l11-3 6-2 7-1 17 1 11 4 10 1 8-4 3-1z" fill="#A41F8E"/>
<path transform="translate(1570,296)" d="m0 0h3l-1 4-9 11-7 7-9 5-5 5-11 7-9 6-8 4-2 2-7 3-11 6-24 10-18 5-12 3-23 3-12 2-16 1-3-1-15-1-5-2 3-3 5-1v-2l9-4 17-9 9-5 15-2-1 3h-3v2l-3 1-1 2h-3l-1 3-3 1-1 2-3 1-1 2-7 3-1 2 35-6 30-7 27-9 19-8 22-12 17-12 13-11 7-7z" fill="#6B76EB"/>
<path transform="translate(961,1140)" d="m0 0 4 4 3 9v3h2l8 16 9 14 1 3 2 1 2 4 4 3 1 3 4 3-1 4-8 4-6-1-8-9-2-1 1 7v10l-3 10h-3v-2h-2l-2-5-2-1-4-10-1-4h-2l-2-10v-5h-2l-1-7v-13l2-12 4-10z" fill="#6A73EA"/>
<path transform="translate(1181,1144)" d="m0 0 2 2 4 16 1 9v19l-1 7h-2l-1 14h-2l-1 5-4 8-6 5-6-9v-9l2-7v-4l-12 8-5-1-8-3 1-5 9-10 8-10 8-11 6-10 1-2h2l3-9z" fill="#6A73EA"/>
<path transform="translate(1066,663)" d="m0 0 17 1 10 2 16-1h10l11 3 15 6 8 6v2l3 1 3 4-1 3-9-3-14-5-8-2h-9l-9 2-10 4-4 2-8-1-12-5-8-2h-20l-5 1h-7l1-4 1-2h2v-2l8-5 12-4z" fill="#4E24D2"/>
<path transform="translate(761,778)" d="m0 0h20l25 2v1l-11 1-9 8-9 15-5 10h32l8 3 14 3 1 6-8 2-1 3v14l2 2h-6l1-3 1-17 2-1h6l1-5-15-1-13-1h-32l-16 1h-14l1-6 8-13 7-9z" fill="#3D2383"/>
<path transform="translate(787,856)" d="m0 0h8v9l-2 10-2 2-1 11-9 1-7 2-7 1v2l-6 3-16 4h-3l-1-5 5-25 2-6 2-1h8l1-3 16-2z" fill="#2F244A"/>
<path transform="translate(1239,937)" d="m0 0h4l-1 7-2 5-4 7-11 22-6 14-4 2-5-21-3-4-7 1-8 5-1 6-2-4-7-22 1-2 34-9 18-6z" fill="#A41F8E"/>
<path transform="translate(1120,999)" d="m0 0h21l14 7 7 6 6 11 1 4v10l-3 11-6 10-4 9-4 11-3 9v19l4 25 4 18v11l-4 15-6 7h-2l-2 4-4 3-5 2h-6l15-12 6-9 3-11v-14l-3-22-3-21v-10l4-17 13-29 2-6v-14l-7-14-9-6-9-3h-19l-12 2-10 7-9 8-8 11-5 13-3 12-4-2-4-9-8-11-1-3-4-2-12-8-14-4h-10l-15 2-5 3-10 1-3-1-1 16 1 19 2 10-4-1-2-27 1-14 3-11 5-7 11-6h8l1 5-8 6v2l15-1h11l12 3 8 5 11 8 8 9 4 6v2h4l2-10 6-11 6-8 6-5 5-5 10-6z" fill="#362464"/>
<path transform="translate(1535,681)" d="m0 0 4 2 10 15 8 16 2 7h2l1 8h2l5 17 2 16h2l3 32 1 18v71l-1 18-3 17-3 3 2-22 1-9v-30l-1-29-3-29-6-32-7-27-10-33-8-20z" fill="#6B76EB"/>
<path transform="translate(970,328)" d="m0 0h14l31 3 15 6 6 3v3l5 2 11 8 7 8 6 7v2h2l1 7-1 4h2l3-13 3-7 3-3h2l2-4 8-8 14-8 11-4 18-3h17l-3 2-26 5-16 5-9 5-7 6h-2v3h-2l-5 10-4 16-3 9-2 9h-4l-3-12-6-12-12-18-7-7-14-7-17-6-19-4-22-3-2-2z" fill="#2F2449"/>
<path transform="translate(912,1095)" d="m0 0 2 4 1 23 1 1 1 31 2 32 3 31 6 20 5 10 4 7 4 11 9 17 4 5v2l4 2 4 5 26 14 8 4 14 4 6 1 5 3 10 3 6 1h28l12 3h10l5-2 16-1 19-5 9-4 18-9 7-6 9-5 6-4 6-8 5-4h2l2-4h2v-2l5-3 8-13 2-2-1 5-9 14-7 8-8 7-8 8-21 14-26 11-18 5-18 3h-36l-28-4-21-6-15-6-21-11-11-6-5-4-7-9-7-11-8-16-9-25-4-15-4-28-2-34-2-54z" fill="#38236E"/>
<path transform="translate(993,803)" d="m0 0h23v2h7l21 5 12 4 16 8 7 3 1 2 6 3v20l4 15v7l-6 1-4-7-5-13-4-10-4-6-3-3-3-5-7-5-16-6-25-2-8-2-4-3-3-1-1-2-5-3z" fill="#4E24D2"/>
<path transform="translate(920,935)" d="m0 0 11 3 44 15 1 1-1 8-3 8-3-1-2 4-5-1-4-4-7-1-2 5-4 7-4-1-7-13-1-3-8 1-3 1-2-8-1-19z" fill="#A41F8E"/>
<path transform="translate(1342,452)" d="m0 0h10l13 3 9 3 26 13 1 3 4 2 5 3v2l4 2 5 4 7 6 3 5 7 6v2l4 2v2l5 2 4 8 3 5v2h2l5 7 2 1v3h2l7 12 3 9 5 12-1 3-13-26-6-8v-2h-2l-8-11-4-6v-2h-2l-2-5-4-2-10-10-2-6h-2v-2h-3l-3-3-9-5-1-2-4-2v-2h-2l-4-4v-2l-4-1-10-5-12-5-4-2-17-4h-23l-13 3-14 7v3h3l5-1h9l4-1h10l10 2v1h-23l-9 2-11 8-3 1h-7l-7 7-3-1 4-11 11-10 21-10 10-3z" fill="#362364"/>
<path transform="translate(1220,1231)" d="m0 0 2 1-1 12-2 6-2 12-2 2-4 12-2 5-3 5-5 13-5 9-3 6-4 4h-2l-1 5-4 1-1 3-6 5-5 5-10 9-17 10-9 5-8 3-9 4-5 2h-7v2l-6 3-22 5h-33l-13-3-13-5-12-5-16-8-8-7h3l8 6 26 10 15 3 2 1 11 1h26l11-1 23-5 25-9 14-8 12-9h2v-2l8-7 13-13 10-14 12-20 10-22 5-21-1-7z" fill="#3D2380"/>
<path transform="translate(1335,832)" d="m0 0h18l7 2 20 4 3 2 2 8 2 17 1 6h-8l-14-3-8-10-5-2v-2h-2l-4-5-2-1v-2l-3-1-7-10-2-2z" fill="#2F2448"/>
<path transform="translate(761,824)" d="m0 0h43l1 4-5 13-3 6-12 1-10 4-7 2-6 2h-8v-9l6-15z" fill="#2F2448"/>
<path transform="translate(1282,845)" d="m0 0h6l-3 2h-2v3l-6 2-1 6 15 6 1 2v6l-5 5-10 4-3 3-6 1-3 2-1 3 7 2-1 4-8 7-4 1 8-8 1-2-39 3-6 1-4-2 4-3 20-9 14-4 30-5 3-4v-5l-9-4-5-1h-27l-21 4h-6v-2l8-4 15-5 19-5z" fill="#362464"/>
<path transform="translate(1180,801)" d="m0 0 3 1-6 3-6 6h-5l-2 4-5 4-22 7-16 9-9 8-9 12-5 8h-2l1-20 3-13 7-4h2v-2l11-5 17-5 35-11z" fill="#4F25D3"/>
<path transform="translate(1481,429)" d="m0 0 4 1-1 7-3 8-3 6-4 2v2l-7 4-6 10-3 4-1 4 2 3 6-1 9-3 9-6 8-8 3-1-2 4-9 10-8 7-14 9-6 2-5-3-4-5-3-8 7-9 18-18 8-11 1-2-6 1-30 10-24 4h-15l-17-4-7-3 4-1 9 3 12 2h17l19-3 33-11 3-2h3l1-3z" fill="#362364"/>
<path transform="translate(825,607)" d="m0 0 11 3v2l9 2 14 8 3 8 6 9-6-1-8-5 3 7 10 10 7 4v3l11 2v1l-10-1-14-4-11-7-11-10v-3l-3-1v-3h-2v-3h-2l-5-13v-2h-2z" fill="#6B76EB"/>
<path transform="translate(803,852)" d="m0 0h17l2 2-7 1-2 7v6l8 9 2 3 14 1 2 3v6l-2-3-1-4h-9l-18 2-27 6-14 4-3-1h2v-2l13-3 1-1h9v-11l2-2 3-19-17 3-8 2h-10l4-2z" fill="#4F25D3"/>
<path transform="translate(1050,680)" d="m0 0 17 1 11 3 12 5 7-1 9-4 15-3 11 1 15 5 4 3v2l-10 2-17 2 2-2 7-1-1-3-2-1h-11l-10 3-21-1-8-4-18-4h-9v4l4 2 6 5 8 3 11 8 3 4v2l5 2 2 4v4h2l1-3 1 2-2 3-3-1-5-8-5-5-2-4-15-6-9-3-19-5h-9l-3-1-1-4 3-2z" fill="#362464"/>
<path transform="translate(1481,861)" d="m0 0h1l2 7 1 3v14l-4 17v6l-3 7-7 10-11 14-11 11-11 9-10 7h-2l-1 4h-5l-2 6-3 2-9 2-13 10-6 4h-2l-1 4-7 3-2-1-1-3v-7l4-15 2-12 2-6 3-23 2-10 2-20v-11l-1-11 3 1 1 14-1 22-4 27-7 36-2 7v6l9-6 11-8 36-24 10-8 10-9 10-11 7-10 5-10 4-16 1-5z" fill="#37236B"/>
<path transform="translate(1363,747)" d="m0 0 31 1 17 2 16 5 8 2v1h-12l-25-3h-35l-27 2-22 4-7 3-4 2-1 2h-5l-4-5v-2l9-5 22-5 14-2z" fill="#6B77EB"/>
<path transform="translate(1371,610)" d="m0 0 6 1-4 3-9 4-4 5-8 17-15 16-13 11-9 4-15 6-10 3-10 2-18 1h-9l-9 2-1 5 6 5v2l5 2 9 7v5l-2-4-6-4-10-8-14-10-1-5 3-2 18-3h12l7 2h14l15-4 17-7 6-5 5-2v-2l4-3h2v-2l8-6 3-4h2l8-16 3-8 5-5z" fill="#362464"/>
<path transform="translate(923,743)" d="m0 0 9 2 8 7v2l4 2v2h2l4 9 3 5 6 11 3 4v4h-5l-9-8-2-1v-2h-2v-2l-4-1-5-5-17-12-1-3h-2l-3-4 1-5 6-4z" fill="#4F25D3"/>
<path transform="translate(965,327)" d="m0 0h24l6 1v1h-25l-3 2 22 3 23 5 20 8 9 6 7 7 14 22 5 13 1 6h2l4-15 4-13 2-9 5-7h2v-3l12-9 4-1-4 4-9 7-7 10-3 12-2 12-3 7-5 13h-3l-2-3-2-15-8-16-8-11-7-4-2-1v-2l-6-2v-2l-6-2-9-4-30-7-8-3-10-2h-14l-7 2h-6l-1-2 4-1 3-3 9-3z" fill="#362464"/>
<path transform="translate(1511,546)" d="m0 0 4 4 5 9 7 13 3 6 3 4 5 13 6 15 5 14 5 13 3 7 5 17 4 9 4 11v5l-7-1-11-4 3-1 10 2-1-6-8-15-10-26-2-5-3-9-5-12-8-15-6-11-3-6-1-8 2-3-4-9-5-9z" fill="#362464"/>
<path transform="translate(767,770)" d="m0 0 30 1 17 2 10 3 14 4 8 2 1 6h-2l-1 3-5-1-8-4-6-1v-2l-8-1-19-3-11-1-36-1-28 3-5 1h-7l4-4 8-2 15-3z" fill="#6B75EB"/>
<path transform="translate(976,1200)" d="m0 0 4 2 6 7 6 1 6-3h2l-1-6 3 1v2l4 1 1 5-5 12-12 20-5 1-5-4-8-10v-2h2l2-10z" fill="#A31F8E"/>
<path transform="translate(1318,615)" d="m0 0 2 1-7 11-11 12-10 7-15 7-5 1h-22l-10-1 4-4 11-6h3v-2l6 1 4 2 12 1v-2l7-2 1-5 6-11 19-9z" fill="#6A72EA"/>
<path transform="translate(1167,1199)" d="m0 0h1l-1 9-1 3v9l4 6 2 5-9 10-4 3-4-2-8-16-7-15v-8l2-1v2l4 1 5 2 6-1 8-6z" fill="#A41F8E"/>
<path transform="translate(743,907)" d="m0 0h3l-1 8-1 30 2 15 4 18 1 9-4 1-10-6-5-5-14-10-14-12-10-8-2-1v-2l-4-2-5-10-6 1-9 4-5-1v-2l9-5 2 1-1 2 7-3h6l4 6v2h2l5 8 6 4 7 7 8 5 5 5 6 3 9 4 2 1 1-13-1-17v-19l-1-9-2-5z" fill="#362464"/>
<path transform="translate(991,802)" d="m0 0h24v1l-22 1 1 2 4 2v2l5 1 4 3 17 2 14 1 16 6 8 6 6 8 5 8 3 8 6 15 2 4h6l-3-15-2-7v-12l1-6h1l2 18 2 12h4l-1-15-1-6 3-7 4-4-2 13-2 20h2l1-3 1 2-6 8-4 8-1 1h-5l-6-9-14-28v-2h-2v-3h-2l-3-5-5-5-6-4-11-3-29-2-6-3-7-6-2-3z" fill="#3C237E"/>
<path transform="translate(1296,814)" d="m0 0 13 4 2 5-1 7-6 8-8 4-8 3-25 5h-5l4-2 33-8 7-4 1-8-2-4-8-1-19 2-15 4-21 5-16 8-5 2-1-6 10-6 17-10 10-5 3 1-16 9-2 2h6l6-3 11-3 3-2 8-2 15-2 3-2z" fill="#3D2380"/>
<path transform="translate(991,1141)" d="m0 0 1 2-4 12v11l5 10 9 10 11 6 11 2 88 1-1 2-13 2-11 3-12-1h-22l-7 1-11-2-15-3-13-3-8-5-7-8-7-10-3-1-4-8v-3h2l1-3h2l2-5z" fill="#37236B"/>
<path transform="translate(1135,1154)" d="m0 0h2l-2 6-9 10h-2v2l-13 8-8 3-10 2-12 1h-12l-15-3-14-6-9-6-1-3 8 1 7 3 9 1v2l9 1 24 2 14-1 9-5 6-1v-2l6-3 8-6z" fill="#6C78EC"/>
<path transform="translate(1204,552)" d="m0 0 4 3 3 7v11l-2 8-6 10-5 6-10 7-9 3h-11l-15-6v-2h-2v-2h-2l-1-3 5-1 13 4 7 2v-2l10-2 10-6 6-7 4-8 1-3z" fill="#6C78EC"/>
<path transform="translate(1129,326)" d="m0 0h9l25 4 13 1 5 2v2l-26 2-20 1-4 1-16 2-9 3-3-1 14-5 18-4 12-2h-14l-18 3-15 6-11 7-8 8-1 2h-2l-1 3-2 1-3 8-2 9-1 2h-2v-11h-2l-6-8-3-3v-2l-4-2v-2l-4-2-12-8v-2l5 2 13 10 11 11 3 5 2 1 3-9 4-5 5-4 5-5 8-6 9-6 7-4h5l3-1v-2l9-1z" fill="#362464"/>
<path transform="translate(939,505)" d="m0 0h9l1 3-15 7-8 4-11 10-5 4-7 10-4 11-1 14 2 15 5 12 2 3v5h2l3 7 2 2 6 12 7 6v3l3 1 5 3v2l6 2 8 3 19 2 13-1v1l-11 2h-16l-12-3-9-4-10-7-7-8-7-11-6-13-5-15-3-17v-14l2-9 3-6 7-10 11-10 14-9 5-2-3-1-4-1z" fill="#362464"/>
<path transform="translate(1305,859)" d="m0 0 5 1 18 1 21 3 15 4v2l8 1 20 5 16 6 20 7 8 4 1 2-9-1-8-3-22-7-13-4-12-3-17-5-27-5-7-1h-21l1-3 2-2z" fill="#6A74EA"/>
<path transform="translate(1075,641)" d="m0 0h16l21 4 10 4 3 3v3l-4 1-16-2-8 1-3 4-6-1-4-3-13-3-7-1-1-2 5-5z" fill="#4F25D3"/>
<path transform="translate(1316,827)" d="m0 0h29l19 2 1 1 23 4 31 10 13 5 15 7 9 5-3 1-42-15-23-7-21-5-26-4h-16l-7 2h-5l2-5z" fill="#6B75EB"/>
<path transform="translate(1120,1211)" d="m0 0h4v2l-4 2-4 4-8 4-13-2-8-3-17-1-11 2-8 3-5 1h-12l-10-4-4-5 12 1 9-3h9l13 2 4-1h15l16 2 20-2z" fill="#3B247B"/>
<path transform="translate(1121,1213)" d="m0 0 3 1-3 6-3 3-15 6-8-1-14-5h-11l-6 3h-25l-16 2-2-3-1-10 4 2 1 2 9 3h12l11-3 6-2 7-1 17 1 11 4 10 1 8-4 3-1z" fill="#6B77EB"/>
<path transform="translate(827,882)" d="m0 0h9l2 5v3h-7l-5-1-12 1-30 5-54 15-16 5-3-1 25-10 13-5 37-10 23-5z" fill="#6B77EB"/>
<path transform="translate(1413,569)" d="m0 0 13 1 11 1 16 6 3 3-2 4-13 4-10 5-12 2-5 1 5 8 5 5-5-2-6-5-6-4v-4l5-2 16-3 13-4 5-5-6-4-6-1-15-1h-30l-23 3-23 6-9 2 2-2 25-8 13-3 19-2z" fill="#362464"/>
<path transform="translate(894,527)" d="m0 0 2 1-7 10-4 13-4 1-3-5-2-1v-2l-5-2-4-3-5 1v3l8 12 7 9 8 18 6 14 2 9 4 8-1 5-5-1-2-2h4l-1-6-9-19-5-12-12-21-3-3-2-4-3-1-2-4-2-12 6-1 10 5 5 4 6 4 4-2 4-10z" fill="#362464"/>
<path transform="translate(1355,795)" d="m0 0h21l24 2 26 5 21 6 16 6-3 1-17-5-9-2-7-2-18-2-2-1-15-2-15-1h-25l-21 2-9 2h-6v-4l27-4z" fill="#717CEC"/>
<path transform="translate(1e3 729)" d="m0 0 13 1 7 3 8 3 7 5v2h2v2l4 1 6 8 4 5v2l-5-1-14-10-11-6-11-4-15-4-4-4z" fill="#362364"/>
<path transform="translate(1207,1257)" d="m0 0 1 3-9 15-7 7-4 5-8 7-9 8-17 11-26 11-18 5-18 3h-36l-22-3v-1l15 1 8 1h30l5-3 16-1 19-5 9-4 18-9 7-6 9-5 6-4 6-8 5-4h2l2-4h2v-2l5-3 8-13z" fill="#362364"/>
<path transform="translate(805,848)" d="m0 0 16 1 6 5-3 1-4-2h-17l-39 7-24 6-23 7-21 8-3-1 16-8 35-12 18-5z" fill="#6B77EB"/>
<path transform="translate(937,581)" d="m0 0 4 1 4 7v3l4 2 8 5 11 1 8-2 10-6 7-6 2-3h3l-1 6-7 8-8 6-6 3-5 1h-12l-11-4-8-9-3-7z" fill="#6B77EB"/>
<path transform="translate(1406,706)" d="m0 0 5 1 10 6-3 1-3-1 6 10 9 12 5 5 1 3 4 2 6 7 4 11 6 9 3 8 4 9 5 12 4 16 4 1v2l2 1-3 1-1 6-2-4-1-8-3-1-2-9-7-15-11-23-6-11-7-11v-2h-2l-7-11-10-13-9-11z" fill="#37236B"/>
<path transform="translate(1150,957)" d="m0 0h15l3 4v7l-3 5-3 2-1 3h-3v2h-10l-3-8 1-11z" fill="#A41F8E"/>
<path transform="translate(914,913)" d="m0 0 16 6 14 6 12 4 17 2 10 1h14l19-1 15-3 7-1-3 2-13 4-22 3h-32l-12-2-15-3v-2l-7-1v-2l-3-1v-2l-5-1-11-6z" fill="#362464"/>
<path transform="translate(1120,958)" d="m0 0h14l4 3-1 6-5 8-6 4-3 3h-4l-2-8h-2v-9l2-5z" fill="#A41F8E"/>
<path transform="translate(1344,474)" d="m0 0 11 1v2l10 3 2 1v2l6 2 7 4v2l8 4v2l4 2 10 9 5 5 6 5v2l4 2 8 9 6 5 8 10-1 2-19-19-4-3v-2l-4-2-10-9-7-7v-2l-4-1-12-9-21-13-13-6z" fill="#6F77EB"/>
<path transform="translate(895,1151)" d="m0 0 2 2 7 24 4 28 1 12v41l4 9 5 10-1 2-6-10v-2l-3-1-5-10v-10l2-14-2-46-3-9-4-19z" fill="#362367"/>
<path transform="translate(765,819)" d="m0 0h32l22 2 6 1-1 4h-10l-9-2-17-1h-32l-21 2-28 5-8 2-4-1 6-3 38-7z" fill="#6F7BEC"/>
<path transform="translate(1491,941)" d="m0 0v3l-6 9-12 13-12 11-12 9-10 5-15 10-16 10-25 16-13 10-9 7-2-1 9-8 12-9h2v-2l16-10 9-6 6-3 19-12 15-10 11-9 8-7 14-14 4-2 4-8z" fill="#362464"/>
<path transform="translate(1388,882)" d="m0 0 3 1 1 14-1 22-4 27-7 36-2 7v6l9-6 7-5 2 1-10 8-2 5-7 3-2-1-1-3v-7l4-15 2-12 2-6 3-23 2-10 2-20v-11z" fill="#38236C"/>
<path transform="translate(806,824)" d="m0 0 18 2v1l-8 1v17l-2 3h10l1 3h2l-1 3-5-4-21-1v-7l5-13z" fill="#4E24D0"/>
<path transform="translate(1057,959)" d="m0 0h13l5 2 1 7-2 5h-2l-2 6-1 2-5-1-6-7-3-6v-6z" fill="#A41F8E"/>
<path transform="translate(1137,702)" d="m0 0h6l-5 4-15 9-8 7-10 14-8 21-2-1 1-11 5-14 9-12 7-7 12-7z" fill="#6C78EC"/>
<path transform="translate(1088,960)" d="m0 0h16l2 1 1 5-4 10h-2l-1 3-7 1-4-5-3-6v-8z" fill="#A2208F"/>
<path transform="translate(1573,769)" d="m0 0 3 3 4 34v57l-2 24-1 9h-1v-84l-2-29z" fill="#4324A0"/>
<path transform="translate(1180,801)" d="m0 0 3 1-16 8-23 7-24 7-9 4-6 1 2-3h2v-2l11-5 17-5 35-11z" fill="#6A74EA"/>
<path transform="translate(1478,430)" d="m0 0m-2 1h2v2l-11 5-28 9-19 3h-17l-16-3-13-5v-3l13 4 4 1h10l11 1 4 1h14l10-2 20-8 6-3z" fill="#362464"/>
<path transform="translate(855,796)" d="m0 0 7 1 6 3 11 3 11 5 13 5 12 6v2l-8-1-19-7-16-5-5-3-10-3-2-1z" fill="#2F2548"/>
<path transform="translate(1041,1212)" d="m0 0h9l12 2 1 2-3 1-3 3-11 3h-12l-10-4-4-5 12 1z" fill="#3A2478"/>
<path transform="translate(1179,803)" d="m0 0 2 1-2 3h-2l-2 4-5 5-10 5-27 9h-2l-2 4h-2v2l-9 7-4 2-1 3-7 6-3 3v-3l6-8 5-6 10-8 15-8 20-6 6-5 1-2 6-2z" fill="#3E2385"/>
<path transform="translate(991,1141)" d="m0 0 1 2-4 12v11l5 10 9 10 11 6 8 1v1h-14l-8-5-7-8-7-10-3-1-4-8v-3h2l1-3h2l2-5z" fill="#3A2377"/>
<path transform="translate(1006,804)" d="m0 0h10l25 5 15 5 16 8 7 3 1 2 3 1 2 3-1 3-12-8-10-5-15-6-13-3-6-2-15-2-7-3z" fill="#6B77EB"/>
<path transform="translate(1536,389)" d="m0 0 5 1-2 22-8 22-7 14-6 9h-2l-1 4h-2l-1 4-4 4 11 2v1l-6 1h-10l1-4 10-11 10-16 6-14 5-15 2-12v-8l-5 3-3 1-2 4-1-3h2l1-4 4-4z" fill="#392372"/>
<path transform="translate(1151,1131)" d="m0 0h2l4 18v11l-4 15-6 7h-2l-2 4-4 3-5 2h-6l15-12 6-9 3-11v-14z" fill="#37236A"/>
<path transform="translate(1303,765)" d="m0 0h8l11 4 16 9 13 11 4 5-1 1-33 5h-5v3h-2l1-5 4-1 4 1v-2l2-1 16-2 4-3-1-4-2-1v-2l-6-2-11-7-8-5-8-1-7-1z" fill="#38236E"/>
<path transform="translate(793,780)" d="m0 0h13v1l-11 1-9 8-9 15-5 10h32l8 3 14 3 1 6-8 2-1 3v14l2 2h-6l1-3 1-17 2-1h6l1-5-15-1-4-2-22-2h-15l1-6 6-9 9-14 3-3 1-4z" fill="#362365"/>
<path transform="translate(1584,294)" d="m0 0h1v12l-3 12-4 7-3 4h-2l-1 4-9 11-5 5-7 6-5 5-4 2-2 4h-3l-2 4h-3v2l-4 1-2 4-8 5-6 1 3-3 15-10 11-9 8-7 7-6 7-8 10-13 8-16 2-7z" fill="#3A2375"/>
<path transform="translate(1481,861)" d="m0 0h1l2 7 1 3v14l-4 17v6l-3 7-7 10-8 10-8 7-3 3-2-1 10-10 11-15 5-10 4-16 1-5z" fill="#392371"/>
<path transform="translate(597,561)" d="m0 0 1 2-10 19-9 19-10 19-12 24-12 20-8 11-1 2h-2l-1 3-1-2 12-17 9-15 5-9 3-9 5-9h2l2-6 22-44z" fill="#3B237A"/>
<path transform="translate(1478,432)" d="m0 0h4l-1 4-5 5 1-4-6 1-30 10-24 4h-15l-17-4-7-3 4-1 9 3 12 2h17l19-3 33-11z" fill="#3D2380"/>
<path transform="translate(1e3 961)" d="m0 0 1 2 6-1 6 1-1 5-3 8-1 1h-6l-5-4-2-3v-4z" fill="#6B75EB"/>
<path transform="translate(1117,966)" d="m0 0 4 1h13l1 4-5 6-4 2-3 3h-4l-2-8h-2l1-7z" fill="#696FE9"/>
<path transform="translate(1532,466)" d="m0 0h8l-2 5-8 8-9 7h-2l-2 4-18 12-4 2h-3l-1 3h-2l1 3v5l4 5-1 2-9-11 2-4h2l1-3 23-14 14-11 10-9 1-3-12 4h-6v-1z" fill="#392370"/>
<path transform="translate(1043,966)" d="m0 0 4 1v7l-6 7h-5l-6-8-2-1v-5h13z" fill="#6A74EA"/>
<path transform="translate(1029,957)" d="m0 0h10l5 3 3 4-1 3-5 1h-11l-2-1-1 2-1-2v-7z" fill="#A41F8E"/>
<path transform="translate(585,481)" d="m0 0 6 3v2l4 2 21 13 10 5 7 4-1 4-7 9v-3l3-8-2-2-4-1v-2l-6-1-10-7-4-3v-2l-6-1-6-4v-2h-2z" fill="#3A2375"/>
<path transform="translate(1234,917)" d="m0 0 2 1-7 4-9 4h-4l-1 3-2 1-9 1-5 2-24 4h-17l-16-1-5-1v-1h41l30-7 20-7z" fill="#362464"/>
<path transform="translate(1491,941)" d="m0 0v3l-6 9-12 13-12 11-12 9-5 2 4-6 14-11 18-18 4-2 4-8z" fill="#38236C"/>
<path transform="translate(1147,968)" d="m0 0h19l-1 5-3 2-1 3h-3v2h-10l-3-8v-3z" fill="#6B75EB"/>
<path transform="translate(1494,677)" d="m0 0h2l5 15 3 7 2 17v31l-1 11h-1l-1-34-1-12-4-17-4-15z" fill="#392373"/>
<path transform="translate(1394,505)" d="m0 0h5l7 6 5 6 2 1v2l4 2 8 9 6 5 8 10-1 2-19-19-4-3v-2l-4-2-10-9-7-7z" fill="#6971EA"/>
<path transform="translate(1036,341)" d="m0 0 5 2 13 10 11 11 3 5 2 1 3-9 4-5 5-4 5-5 3-2-2 4-7 7-1 2h-2l-1 3-2 1-3 8-2 9-1 2h-2v-11h-2l-6-8-3-3v-2l-4-2v-2l-4-2-12-8z" fill="#362364"/>
<path transform="translate(1192,991)" d="m0 0h1l2 15 1 17v36l2-1-1 4-4-1-1-6 1-32z" fill="#4424A1"/>
<path transform="translate(1328,852)" d="m0 0 5 3 6 5v3l-11-1-18-1-5-1-1 3h-2l2-6h20z" fill="#3D2380"/>
<path transform="translate(1468,450)" d="m0 0v3l-14 14-2 3h-2l-4 8 3 7 4 4 3 1 12-6 14-11 7-7v3l-11 11-15 10-6 3-6-2-5-6-3-8 7-9z" fill="#3D2380"/>
<path transform="translate(1088,967)" d="m0 0 3 1 14 1-1 6-3 1-1 3-7 1-4-5-2-7z" fill="#6A74EB"/>
<path transform="translate(795,823)" d="m0 0h10l2 2-1 4-5 13-1 8-26 4-8 1 3-3 12-3 4-2 12-1 4-10 3-8v-3l-9-1z" fill="#43239C"/>
<path transform="translate(1033,1326)" d="m0 0h32l12 3 10 1v1h-30l-24-3z" fill="#362464"/>
<path transform="translate(1478,574)" d="m0 0 2 2v3h2l5 16 1 4v9l-2-3v-6h-2l-5-7v-3h-2l-1-6z" fill="#37236B"/>
<path transform="translate(841,591)" d="m0 0 10 2 3-1v2l7 1 9 6 13 9-3 1-10-6-11-4-15-7z" fill="#362464"/>
<path transform="translate(1057,967)" d="m0 0 5 2h9l4-1-1 5h-2l-2 6-1 2-5-1-6-7-2-5z" fill="#6C78EC"/>
<path transform="translate(1113,1325)" d="m0 0m-5 1h5l-3 3-18 3h-36l-22-3v-1l15 1 8 1h30l5-3z" fill="#3A2374"/>
<path transform="translate(945,1313)" d="m0 0 15 15 5 6 8 7v2l4 2 5 6-6-2-4-4v-2l-4-2v-2l-6-3v-2h-2l-5-6-3-2-1-3-5-5z" fill="#38236F"/>
<path transform="translate(1387,608)" d="m0 0 13 1 9 2v2l9 2 7 1 6 4v2l-5-1-9-4-14-4-17-1-10 1 1-3z" fill="#3A2374"/>
<path transform="translate(905,1191)" d="m0 0h1l2 15 1 11v41l1 6-3-4-1-3v-43l-1-9z" fill="#3D2380"/>
<path transform="translate(991,1141)" d="m0 0 1 2-1 3h-2l-3 9v8l3 9 3 5-1 2-6-8-3-1-4-8v-3h2l1-3h2l2-5z" fill="#362364"/>
<path transform="translate(1532,789)" d="m0 0h1l-1 14-5 24-6 16h-1v-6l6-21 5-26z" fill="#3A2375"/>
<path transform="translate(1151,1310)" d="m0 0m4 0 2 1-14 7-21 8-7 2-4-1 5-3 17-5 7-4 8-4z" fill="#38236E"/>
<path transform="translate(993,957)" d="m0 0 13 1 8 4v1h-12l-1-1-3 4h-2l-1 2-3-4v-6z" fill="#A41F8E"/>
<path transform="translate(1484,349)" d="m0 0h6l-2 2-27 9-20 5-4-1 4-2 7-2h7v-2l17-5 6-2h6z" fill="#412497"/>
<path transform="translate(1270,727)" d="m0 0 2 3 3 9 11 8 10 8 1 3-2 3h-2l3 4-1 2-3-2 1-11-12-6-1-3-6-2-3-4-1-3z" fill="#3B237B"/>
<path transform="translate(1382,963)" d="m0 0h1l-1 10-4 16v6l9-6 7-5 2 1-10 8-2 5-7 3-2-1 2-16z" fill="#38236F"/>
<path transform="translate(1527,726)" d="m0 0 2 3 4 20 1 13v27h-1l-2-29-3-22z" fill="#392373"/>
<path transform="translate(1584,294)" d="m0 0h1v12l-3 12-4 7-3 4h-2l-1 4-9 11-1-3 11-14 8-16 2-7z" fill="#38236D"/>
<path transform="translate(1207,1257)" d="m0 0 1 3-9 15-7 7-4 5-8 7-9 8-9 6-2-1 12-9 10-9 12-12 8-11z" fill="#3D2380"/>
<path transform="translate(1311,865)" d="m0 0h11l24 4 13 3-4 1h-11l-17-5-26-1v-1z" fill="#4724AF"/>
<path transform="translate(1431,364)" d="m0 0 5 1v1l-21 4-14 2h-5l1-3 6-2 4 1 8-1v-2h15z" fill="#3E2489"/>
<path transform="translate(1515,854)" d="m0 0 1 3-2 6-1 28-2 11h-1v-37l3-9h2z" fill="#392371"/>
<path transform="translate(1406,706)" d="m0 0 5 1 10 6-3 1-3-1 6 10 11 15-1 2-12-16-11-14z" fill="#3A2376"/>
<path transform="translate(534,653)" d="m0 0 2 1-2 9-11 17-2 2-4-1 8-11z" fill="#39296C"/>
<path transform="translate(534,280)" d="m0 0 10 2 15 6 11 5v2l-10-3-11-4-5-3-11-3z" fill="#38286B"/>
<path transform="translate(723,911)" d="m0 0 4 1-32 11-6 2 1-3 19-9 6-1-1 2z" fill="#4F25D3"/>
<path transform="translate(565,624)" d="m0 0 1 2-13 25-8 13-8 11-1 2h-2l-1 3-1-2 12-17 9-15z" fill="#3D2380"/>
<path transform="translate(1448,734)" d="m0 0 7 6 11 12 4 6-1 2-6-5-5-6v-2h-2l-5-6v-2h-2z" fill="#392370"/>
<path transform="translate(1336,824)" d="m0 0 22 3 1 2-14-1-28-1v-2z" fill="#43249C"/>
<path transform="translate(1520,449)" d="m0 0 1 4-3 4h-2l-1 4h-2l-1 4-4 4 11 2v1l-6 1h-10l1-4 10-11z" fill="#3A2375"/>
<path transform="translate(817,854)" d="m0 0h7l3 2-4 1-7-1-2 12h2l6 8 2 3 12 1v1h-13l-8-10-3-3v-6l3-7z" fill="#3B237B"/>
<path transform="translate(1488,608)" d="m0 0h1l3 18v6l-4-4-3-9-2-4 1-3 2 2z" fill="#3D2380"/>
<path transform="translate(1385,852)" d="m0 0 2 3 3 16-2 2h-12l-12-3v-1h9l15 2-2-6z" fill="#392370"/>
<path transform="translate(1129,831)" d="m0 0 2 1-4 2v2l-9 7-4 2-1 3-7 6-3 3v-3l6-8 13-10z" fill="#372369"/>
<path transform="translate(1459,788)" d="m0 0 3 4 5 12 3 3 2 10 4 1v2l2 1-3 1-1 6-2-4-1-8-3-1-2-9-7-15z" fill="#392373"/>
<path transform="translate(1426,609)" d="m0 0 4 2 11 11 4 6v2l-5-1-9-6 2-1 4 1-3-5-6-5z" fill="#392370"/>
<path transform="translate(1147,822)" d="m0 0m-4 1h4v2l-16 6-10 7-9 7v-3l12-10 15-8z" fill="#3D2380"/>
<path transform="translate(895,1151)" d="m0 0 2 2 7 24 1 6v8h-1l-6-22-2-11z" fill="#3A2376"/>
<path transform="translate(1348,832)" d="m0 0h5l7 2 20 4 3 2 2 8-1 4-3-9-1-2-24-5-5-1v-2z" fill="#3A2377"/>
<path transform="translate(585,481)" d="m0 0 6 3v2l4 2 19 12-2 1-9-4-1-3-6-1-6-4v-2h-2z" fill="#392373"/>
<path transform="translate(1099,830)" d="m0 0 1 2-2 11-1 13h-2l-1-9-1-6 3-7z" fill="#38236E"/>
<path transform="translate(813,819)" d="m0 0h6l7 2 1 6-8 2-1 3v14l2 2h-6l1-3 1-17 2-1h6l1-5-15-1z" fill="#412590"/>
<path transform="translate(918,1279)" d="m0 0 5 5 9 12 11 13 2 4-7-6-7-9-5-4-2-5-5-4z" fill="#3B2379"/>
<path transform="translate(1531,670)" d="m0 0 12 4 2 1v2l7 2-4 1-8-4h-4l5 7-1 3-9-13z" fill="#3A2376"/>
<path transform="translate(798,842)" d="m0 0h1v6l-16 3-9 3-8 1 3-3 12-3 4-2 12-1z" fill="#3A2478"/>
<path transform="translate(1325,795)" d="m0 0h9l9 1v1l-22 3h-5v3h-2l1-5 4-1 4 1v-2z" fill="#402492"/>
<path transform="translate(1258,640)" d="m0 0h8l5 2 4-1 7 1v-2h5l-3 3h-4v2h-12l-10-4z" fill="#3B237C"/>
<path transform="translate(1532,466)" d="m0 0h8l-2 5-8 8-11 8-2-1 14-11 5-5 1-3-12 4h-6v-1z" fill="#3A2374"/>
<path transform="translate(1036,341)" d="m0 0 5 2 13 10 11 11-1 2-8-7v-2l-4-2v-2l-4-2-12-8z" fill="#392370"/>
<path transform="translate(992,1080)" d="m0 0 2 3 6 18v22h-1v-21h-2l-3-9v-7h-2z" fill="#392373"/>
<path transform="translate(1067,1213)" d="m0 0h11v2l9 1v1h-17l-11 1 1-2z" fill="#42249A"/>
<path transform="translate(1122,695)" d="m0 0 2 1-2 3-12 6-8 7-1-3 5-5 5-4z" fill="#392372"/>
<path transform="translate(1303,765)" d="m0 0h8l11 4 11 6-1 2-5-2-10-6-8-1-7-1z" fill="#38236F"/>
<path transform="translate(1423,715)" d="m0 0 12 7 11 8 2 4-9-5-16-12z" fill="#392371"/>
<path transform="translate(1430,1054)" d="m0 0 1 2-8 14-4 4v-8l3-4h3l2-4z" fill="#362464"/>
<path transform="translate(1491,941)" d="m0 0v3l-6 9-12 13-6 6-2-1 13-13 8-10 2-5z" fill="#3C237D"/>
<path transform="translate(747,867)" d="m0 0h1l-1 12-2 11v11h-3l-1-5 5-25z" fill="#362364"/>
<path transform="translate(1461,935)" d="m0 0v3l-12 12-11 9-4 2 6-7 6-5 3-4 5-3z" fill="#362365"/>
<path transform="translate(791,876)" d="m0 0 1 3v8l-1 2-23 6-3-1h2v-2l13-3 1-1h9v-11z" fill="#40248F"/>
<path transform="translate(786,855)" d="m0 0h10v6h-1v-5l-17 3-8 2h-10l4-2z" fill="#42249B"/>
<path transform="translate(1488,794)" d="m0 0 2 2 2 9h2l2-10h1l-1 10-3 5-4-2-1-5z" fill="#38236D"/>
<path transform="translate(819,828)" d="m0 0 3 1-2 5v6l2 2v6l-5-2v-14z" fill="#362464"/>
<path transform="translate(1478,320)" d="m0 0h9l-2 2-17 5-1 1h-6l3-3 11-3z" fill="#3F2B86"/>
<path transform="translate(1445,948)" d="m0 0 2 1-12 11-5 5-4 1-2-2 14-10z" fill="#3A2376"/>
<path transform="translate(1474,636)" d="m0 0 6 3 7 8-1 2-4-2-2 1-6-9z" fill="#392372"/>
<path transform="translate(1184,798)" d="m0 0m-4 1h4v4l-4-1-11 3h-4l2-4 2-1z" fill="#402490"/>
<path transform="translate(1016,804)" d="m0 0h13l16 4 2 3-10-2-21-4z" fill="#4524A7"/>
<path transform="translate(1359,873)" d="m0 0 7 1 13 4 9 2v2l-10-1-9-4-7-1z" fill="#4A24BF"/>
<path transform="translate(1304,858)" d="m0 0 17 1 18 3v1l-11-1-18-1-5-1-1 3h-2z" fill="#4F25D3"/>
<path transform="translate(1382,963)" d="m0 0h1l-1 10-4 16v6l4-1-1 3-5 1v-10z" fill="#3D2380"/>
<path transform="translate(761,824)" d="m0 0 4 1-3 11-7 14-1-3 6-15z" fill="#362464"/>
<path transform="translate(918,1193)" d="m0 0h2l2 24 2 5v5l-1-3h-2l-2-11z" fill="#37236A"/>
<path transform="translate(871,1069)" d="m0 0 2 4 4 18v7l-2-4-2-5-2-15z" fill="#3A2376"/>
<path transform="translate(1532,789)" d="m0 0h1l-1 14h-2l-1 9-2 8-1-4 5-26z" fill="#37236B"/>
<path transform="translate(814,757)" d="m0 0m-1 1 1 3-5 4-1 6 3 1-3 1-5-1 1-6z" fill="#362366"/>
<path transform="translate(1514,423)" d="m0 0 1 3-8 19-5 7-1-2 4-9h2l2-6z" fill="#3B237B"/>
<path transform="translate(878,734)" d="m0 0 3 1v5l-5 2-4-1 1-4z" fill="#3D2380"/>
<path transform="translate(761,415)" d="m0 0h5l-3 2-4 1-3 4-11-1v-1h5v-2z" fill="#38236E"/>
<path transform="translate(1490,505)" d="m0 0 2 1-3 1 1 3v5l4 5-1 2-9-11 2-4z" fill="#362464"/>
<path transform="translate(1584,294)" d="m0 0h1v12l-3 12-5 4 6-18z" fill="#392373"/>
<path transform="translate(1468,926)" d="m0 0v3l-5 6-8 7-3 3-2-1 10-10 4-5z" fill="#3A2376"/>
<path transform="translate(1572,897)" d="m0 0 1 2-2 20 1 4-2 3h-2l2-16 1-12z" fill="#4E24CF"/>
<path transform="translate(793,780)" d="m0 0h13v1l-11 1-9 8-2 3-2-1 6-7 1-4z" fill="#372368"/>
<path transform="translate(723,911)" d="m0 0 4 1-18 6-3-1 1-3 5-2 3 1 5-1z" fill="#512CD5"/>
<path transform="translate(968,1339)" d="m0 0 4 1 1 3 4 2 5 6-6-2-4-4v-2l-4-2z" fill="#392372"/>
<path transform="translate(1541,686)" d="m0 0h2v2l4 2 5 9v5l-3-4-7-11z" fill="#402491"/>
<path transform="translate(1401,367)" d="m0 0 14 2v1l-14 2h-5l1-3z" fill="#4924B7"/>
<path transform="translate(922,1224)" d="m0 0 1 3h2l3 10 2 4-1 5-2-3-5-15z" fill="#392371"/>
<path transform="translate(1388,882)" d="m0 0 3 1 1 14-1 7h-1z" fill="#38236E"/>
<path transform="translate(1151,808)" d="m0 0h5l-3 2-19 6h-2v-2l11-3 2-2z" fill="#412498"/>
<path transform="translate(1499,665)" d="m0 0 5 5 6 10v2l-3-1-8-14z" fill="#392370"/>
<path transform="translate(1494,677)" d="m0 0h2l3 12 1 9-2-3-4-15z" fill="#3A2374"/>
<path transform="translate(1530,432)" d="m0 0 1 2-7 14-3 3 1-5 6-13z" fill="#38236F"/>
<path transform="translate(1084,711)" d="m0 0 4 1 4 4v5h2l1-3 1 2-2 3-3-1-5-8z" fill="#362367"/>
<path transform="translate(1488,608)" d="m0 0h1l1 16-2-1-1-6h-2v-2h-2l1-3 2 2z" fill="#37236B"/>
<path transform="translate(832,966)" d="m0 0 4 5 6 12-1 2-5-8-2-3v-4h-2z" fill="#3A2375"/>
<path transform="translate(785,816)" d="m0 0 21 2 2 2h-11v-2h-13z" fill="#422399"/>
<path transform="translate(1082,484)" d="m0 0 2 1-1 8-2 2-2-2 1-7h2z" fill="#392371"/>
<path transform="translate(1034,742)" d="m0 0 5 1 4 5-4 1-5-4z" fill="#2F2548"/>
<path transform="translate(1420,721)" d="m0 0h2l8 11 1 4-5-5-6-8z" fill="#362464"/>
<path transform="translate(1532,466)" d="m0 0h8l-2 5-2-1 1-3-12 4h-6v-1z" fill="#3D2380"/>
<path transform="translate(1364,869)" d="m0 0h9l7 1v3l-8-1-8-2z" fill="#4424A3"/>
<path transform="translate(1510,682)" d="m0 0 2 1 5 11-1 2-5-5-1-3z" fill="#392373"/>
<path transform="translate(1493,461)" d="m0 0v3l-12 11h-3l13-13z" fill="#372369"/>
<path transform="translate(1448,360)" d="m0 0h9l-4 2-12 3-4-1 4-2z" fill="#4524A5"/>
<path transform="translate(1368,811)" d="m0 0 2 1 6 11-1 2-1-3-3-1-3-5z" fill="#3A2375"/>
<path transform="translate(1250,697)" d="m0 0 11 7 2 2v5l-2-4-6-4-5-4z" fill="#392371"/>
<path transform="translate(622,506)" d="m0 0 9 4-1 5-4 3 2-6-2-2-4-1z" fill="#362464"/>
<path transform="translate(889,1135)" d="m0 0 2 2 4 10-1 4v-3h-2l-3-8z" fill="#392373"/>
<path transform="translate(1194,1043)" d="m0 0h1l1 16 2-1-1 4-4-1z" fill="#402392"/>
<path transform="translate(829,890)" d="m0 0 9 1v1h-7l1 9-2-3-3-7z" fill="#38236F"/>
<path transform="translate(1319,796)" d="m0 0m-2 1 11 1v1l-12 1v3h-2l1-5z" fill="#462AA6"/>
<path transform="translate(1270,727)" d="m0 0 2 3 3 9 2 3-6-3-1-3z" fill="#3A2375"/>
<path transform="translate(1440,622)" d="m0 0 4 4 1 4-5-1-4-4 4 1z" fill="#3D2380"/>
<path transform="translate(1019,1215)" d="m0 0h1l3 16-4-4z" fill="#3C237E"/>
<path transform="translate(1142,1180)" d="m0 0v3l-6 5-5 3-3-1 9-6z" fill="#3D2380"/>
<path transform="translate(1538,402)" d="m0 0h1v10l-3 5-1-4 1-5h2z" fill="#38236C"/>
<path transform="translate(1374,878)" d="m0 0 11 1 3 1v2l-10-1-4-2z" fill="#402491"/>
<path transform="translate(701,828)" d="m0 0h6v2l-8 2-4-1z" fill="#6C78EC"/>
<path transform="translate(1303,765)" d="m0 0h8l5 2-3 1h-8l-3-2z" fill="#3A2376"/>
<path transform="translate(1461,356)" d="m0 0h5l-2 3-9 1v-2z" fill="#3D2383"/>
<path transform="translate(1114,968)" d="m0 0h1v6h2l2 4-1 3-4-4z" fill="#40248F"/>
<path transform="translate(1357,800)" d="m0 0 5 1 6 8-1 2-2-4-3-1-1-4z" fill="#3A2377"/>
<path transform="translate(819,775)" d="m0 0h10l6 3-3 1-13-3z" fill="#4724B0"/>
<path transform="translate(1552,704)" d="m0 0h3l3 7v5l-3-4-3-6z" fill="#412498"/>
<path transform="translate(1406,706)" d="m0 0 5 1 3 3h-3l2 5-5-5z" fill="#3D2380"/>
<path transform="translate(1535,464)" d="m0 0h7l1 2-3 4-2-1 2-3h-8z" fill="#362464"/>
</svg>
