<svg width="40" height="40" viewBox="0 0 40 40" fill="none" xmlns="http://www.w3.org/2000/svg">
<rect width="40" height="40" rx="20" fill="#393A3D"/>
<path fill-rule="evenodd" clip-rule="evenodd" d="M14.3764 17.0172C14.3764 14.6109 16.6374 12 20 12C23.3626 12 25.6236 14.6109 25.6236 17.0172C25.6236 17.6345 25.7029 18.0668 25.8112 18.3992C25.9199 18.7326 26.0646 18.9889 26.2315 19.2653C26.2485 19.2936 26.266 19.3224 26.2839 19.3518C26.436 19.6022 26.6127 19.8929 26.7475 20.2423C26.903 20.6452 27 21.1127 27 21.7199C27 21.7361 26.9993 21.7523 26.9979 21.7684C26.9429 22.3963 26.7545 22.9472 26.3961 23.4063C26.0392 23.8634 25.5464 24.1877 24.952 24.4182C23.7907 24.8686 22.1318 25 20 25C17.8692 25 16.2103 24.8707 15.049 24.4215C14.4545 24.1915 13.9613 23.8673 13.6042 23.4096C13.2457 22.95 13.0573 22.398 13.0021 21.7684C13.0007 21.7523 13 21.7361 13 21.7199C13 21.1127 13.097 20.6452 13.2525 20.2423C13.3873 19.8929 13.564 19.6022 13.7161 19.3518C13.734 19.3224 13.7515 19.2936 13.7685 19.2653C13.9353 18.9889 14.0801 18.7326 14.1888 18.3992C14.2971 18.0668 14.3764 17.6345 14.3764 17.0172ZM20 13.1241C17.2401 13.1241 15.5116 15.2555 15.5116 17.0172C15.5116 17.7339 15.4189 18.2846 15.2691 18.7443C15.1196 19.203 14.9203 19.548 14.743 19.8419C14.7255 19.8709 14.7083 19.8993 14.6915 19.927C14.5345 20.1862 14.4099 20.392 14.3128 20.6435C14.212 20.9048 14.1377 21.2285 14.1352 21.6952C14.1781 22.1454 14.3072 22.4721 14.5025 22.7224C14.7028 22.9791 15.0057 23.198 15.462 23.3745C16.4024 23.7383 17.864 23.8759 20 23.8759C22.1358 23.8759 23.5977 23.7363 24.5381 23.3716C24.9946 23.1945 25.2977 22.9754 25.498 22.7188C25.6933 22.4687 25.8221 22.143 25.8648 21.6952C25.8623 21.2285 25.788 20.9047 25.6872 20.6435C25.5901 20.392 25.4655 20.1862 25.3085 19.927C25.2917 19.8993 25.2745 19.8709 25.257 19.8419C25.0797 19.548 24.8804 19.203 24.7309 18.7443C24.5811 18.2846 24.4884 17.7339 24.4884 17.0172C24.4884 15.2555 22.7599 13.1241 20 13.1241Z" fill="#ABADC7"/>
<path fill-rule="evenodd" clip-rule="evenodd" d="M17.2343 26.2181C17.5245 25.9038 17.9712 25.9326 18.232 26.2824C19.2459 27.6421 20.7614 27.6293 21.7685 26.2816C22.0296 25.9322 22.4763 25.9041 22.7663 26.2187C23.0562 26.5334 23.0796 27.0717 22.8185 27.4211C21.2556 29.5124 18.7618 29.5404 17.181 27.4204C16.9202 27.0707 16.9441 26.5324 17.2343 26.2181Z" fill="#ABADC7"/>
<path d="M24.0996 20C26.5849 20 28.5996 17.9853 28.5996 15.5C28.5996 13.0147 26.5849 11 24.0996 11C21.6143 11 19.5996 13.0147 19.5996 15.5C19.5996 17.9853 21.6143 20 24.0996 20Z" fill="#ABADC7" stroke="#393A3D" stroke-width="2"/>
</svg>
