<?xml version="1.0" standalone="no"?>
<!DOCTYPE svg PUBLIC "-//W3C//DTD SVG 20010904//EN"
 "http://www.w3.org/TR/2001/REC-SVG-20010904/DTD/svg10.dtd">
<svg version="1.0" xmlns="http://www.w3.org/2000/svg"
 width="980.000000pt" height="980.000000pt" viewBox="0 0 980.000000 980.000000"
 preserveAspectRatio="xMidYMid meet">

<g transform="translate(0.000000,980.000000) scale(0.100000,-0.100000)"
fill="#000000" stroke="none">
<path d="M6275 9015 c-79 -18 -150 -53 -205 -103 -41 -36 -43 -41 -30 -58 10
-14 11 -16 0 -7 -11 10 -18 7 -37 -13 -12 -14 -23 -29 -23 -33 0 -5 48 -14
108 -20 222 -25 473 -84 654 -156 48 -19 90 -35 94 -35 8 0 -3 62 -23 127 -9
31 -20 50 -26 46 -6 -3 -7 -1 -3 6 9 14 -31 72 -47 68 -7 -1 -11 4 -9 12 7 33
-117 123 -207 151 -82 26 -176 32 -246 15z m-204 -128 c-10 -9 -11 -8 -5 6 3
10 9 15 12 12 3 -3 0 -11 -7 -18z"/>
<path d="M5670 8474 c-123 -10 -278 -34 -385 -58 -5 -2 -27 -6 -47 -10 -21 -5
-35 -12 -32 -17 3 -5 -2 -6 -10 -3 -16 6 -43 -2 -218 -69 -59 -23 -104 -45
-101 -51 3 -5 1 -6 -5 -2 -14 9 -103 -35 -95 -47 3 -6 1 -7 -5 -3 -13 8 -74
-25 -217 -119 -94 -62 -209 -151 -166 -129 10 5 12 3 7 -5 -5 -7 -14 -10 -21
-7 -8 3 -15 2 -17 -2 -2 -4 -25 -25 -51 -46 -27 -22 -46 -45 -43 -52 3 -8 0
-11 -8 -8 -17 6 -188 -176 -182 -193 3 -7 0 -15 -6 -19 -7 -4 -8 -3 -4 4 18
29 -12 7 -36 -26 -15 -20 -47 -64 -73 -97 -25 -32 -43 -65 -40 -73 2 -7 1 -11
-4 -8 -20 13 -225 -363 -235 -428 -1 -8 -7 -20 -13 -27 -23 -30 -118 -330
-143 -457 -5 -26 -21 -94 -35 -152 -14 -58 -39 -163 -55 -235 -16 -71 -45
-197 -65 -280 -20 -82 -56 -235 -80 -340 -24 -104 -93 -401 -153 -660 -60
-258 -126 -551 -147 -650 -63 -307 -115 -440 -220 -567 -135 -163 -351 -268
-555 -270 -36 0 -117 8 -180 17 -225 34 -341 4 -466 -120 -167 -165 -190 -423
-53 -579 127 -145 364 -240 829 -331 127 -25 568 -126 1250 -285 162 -38 351
-82 420 -98 69 -17 274 -64 455 -107 182 -42 366 -85 410 -96 70 -15 466 -108
1860 -434 176 -41 419 -102 540 -135 327 -90 411 -105 595 -105 135 0 163 3
220 23 81 28 137 64 184 121 138 165 142 397 9 559 -67 81 -201 168 -323 207
-387 125 -606 493 -522 880 11 50 54 239 97 420 42 182 92 395 110 475 19 80
59 253 90 385 31 132 90 386 131 565 41 179 104 444 139 590 136 563 157 783
109 1140 -138 1012 -957 1840 -1970 1990 -127 19 -383 32 -474 24z m-1697
-969 c-3 -9 -8 -14 -10 -11 -3 3 -2 9 2 15 9 16 15 13 8 -4z"/>
<path d="M4716 1481 c-2 -3 3 -41 10 -84 51 -292 276 -525 582 -603 314 -80
632 39 817 306 17 24 25 44 19 49 -5 5 -88 27 -184 50 -96 22 -330 77 -520
121 -190 45 -383 90 -430 100 -47 11 -131 30 -188 43 -56 14 -104 22 -106 18z"/>
</g>
</svg>
