<svg width="25" height="25" viewBox="0 0 25 25" fill="none" xmlns="http://www.w3.org/2000/svg">
<path d="M0 12C0 5.37258 5.37258 0 12 0H25V13C25 19.6274 19.6274 25 13 25H0V12Z" fill="#1E1F22"/>
<path fill-rule="evenodd" clip-rule="evenodd" d="M14.7778 7C13.2919 7 11.6812 7.13113 10.2236 7.29632C8.96724 7.43869 7.98262 8.4337 7.84549 9.68776C7.68712 11.1359 7.55561 12.7449 7.55561 14.2222C7.55561 15.4141 7.6412 16.6925 7.75721 17.9017L7.01269 21.3264C6.97212 21.513 7.03025 21.7074 7.16661 21.8411C7.30298 21.9749 7.49846 22.0291 7.68424 21.9849L10.8848 21.2229C12.1582 21.3513 13.513 21.4444 14.7778 21.4444C16.2632 21.4444 17.8748 21.316 19.3334 21.1523C20.5904 21.0112 21.5752 20.0159 21.7118 18.7616C21.8696 17.3115 22 15.6996 22 14.2222C22 12.7451 21.8696 11.1363 21.7119 9.68803C21.5752 8.43373 20.5904 7.43868 19.3341 7.29636C17.8758 7.13115 16.2638 7 14.7778 7Z" fill="#ABADC7"/>
<path fill-rule="evenodd" clip-rule="evenodd" d="M12.0694 12.1389C11.6859 12.1389 11.375 12.4498 11.375 12.8334C11.375 13.2169 11.6859 13.5278 12.0694 13.5278H17.4861C17.8697 13.5278 18.1806 13.2169 18.1806 12.8334C18.1806 12.4498 17.8697 12.1389 17.4861 12.1389H12.0694ZM12.0694 15.4722C11.6859 15.4722 11.375 15.7832 11.375 16.1667C11.375 16.8080 11.6859 16.8611 12.0694 16.8611H16.1667C16.8080 16.8611 16.8611 16.8080 16.8611 16.1667C16.8611 15.7832 16.8080 15.4722 16.1667 15.4722H12.0694Z" fill="#5623D8"/>
</svg>
