<svg width="18" height="18" viewBox="0 0 18 18" fill="none" xmlns="http://www.w3.org/2000/svg">
<path fill-rule="evenodd" clip-rule="evenodd" d="M9 15.75C12.7279 15.75 15.75 12.7279 15.75 9C15.75 5.27208 12.7279 2.25 9 2.25C5.27208 2.25 2.25 5.27208 2.25 9C2.25 12.7279 5.27208 15.75 9 15.75ZM12.7682 7.39018C13.1218 6.96591 13.0645 6.33534 12.6402 5.98178C12.2159 5.62821 11.5853 5.68554 11.2318 6.10982L8.88382 8.92736C8.53711 9.34342 8.34219 9.57377 8.18658 9.71531L8.18063 9.72069L8.17422 9.71587C8.00643 9.589 7.79146 9.37725 7.4085 8.99428L6.70711 8.29289C6.31658 7.90237 5.68342 7.90237 5.29289 8.29289C4.90237 8.68342 4.90237 9.31658 5.29289 9.70711L5.99428 10.4085L6.03511 10.4493C6.3616 10.776 6.6757 11.0902 6.96794 11.3111C7.2953 11.5587 7.72402 11.7915 8.27343 11.7665C8.82284 11.7416 9.22872 11.471 9.53233 11.1948C9.80337 10.9483 10.0877 10.6069 10.3833 10.2521L10.3833 10.2521L10.4203 10.2077L12.7682 7.39018Z" fill="#96C346"/>
</svg>
