<svg width="18" height="18" viewBox="0 0 18 18" fill="none" xmlns="http://www.w3.org/2000/svg">
<path fill-rule="evenodd" clip-rule="evenodd" d="M16.25 9C16.25 12.7279 13.2279 15.75 9.5 15.75C5.77208 15.75 2.75 12.7279 2.75 9C2.75 5.27208 5.77208 2.25 9.5 2.25C13.2279 2.25 16.25 5.27208 16.25 9ZM5.79289 12.7071C5.40237 12.3166 5.40237 11.6834 5.79289 11.2929L8.08579 9L5.79289 6.70711C5.40237 6.31658 5.40237 5.68342 5.79289 5.29289C6.18342 4.90237 6.81658 4.90237 7.20711 5.29289L9.5 7.58579L11.7929 5.29289C12.1834 4.90237 12.8166 4.90237 13.2071 5.29289C13.5976 5.68342 13.5976 6.31658 13.2071 6.70711L10.9142 9L13.2071 11.2929C13.5976 11.6834 13.5976 12.3166 13.2071 12.7071C12.8166 13.0976 12.1834 13.0976 11.7929 12.7071L9.5 10.4142L7.20711 12.7071C6.81658 13.0976 6.18342 13.0976 5.79289 12.7071Z" fill="#E7505A"/>
</svg>
