<svg width="35" height="35" viewBox="0 0 35 35" fill="none" xmlns="http://www.w3.org/2000/svg">
<path fill-rule="evenodd" clip-rule="evenodd" d="M13.1188 3.51469C21.1186 1.37115 29.3418 6.11866 31.4853 14.1187C33.6288 22.1188 28.8813 30.3417 20.8813 32.4853C12.8813 34.6289 4.65833 29.8814 2.51479 21.8813C0.370962 13.8812 5.1187 5.65823 13.1188 3.51469ZM20.0112 12.766C19.5394 12.8236 19.1098 12.4881 19.0522 12.0163C18.9947 11.5445 19.3302 11.1148 19.802 11.0573C21.106 10.8934 22.4094 11.0651 23.6113 11.5107L23.6143 11.5118C24.8444 11.9667 25.9766 12.7117 26.9025 13.6775C27.2325 14.0205 27.2217 14.5666 26.8787 14.8966C26.5357 15.2266 25.9896 15.2158 25.6596 14.8728C24.9172 14.0984 24.0059 13.4996 23.0136 13.1317C22.0565 12.7761 21.0281 12.6382 20.0112 12.766ZM11.0816 24.0543C10.5703 23.2602 10.9168 22.5888 11.7654 22.732C15.2562 23.6748 18.8063 23.6939 22.4187 22.732C23.0128 22.6831 23.4254 23.3968 22.9508 24.0543C19.8331 27.5942 13.5472 27.3283 11.0816 24.0543ZM19.162 16.5423C18.9081 16.897 18.7231 17.211 18.6551 17.4555C18.4847 18.0697 19.0749 18.0616 19.4902 17.826C21.1355 16.8933 23.4099 17.0303 25.078 17.8262C26.0152 18.2734 26.087 17.6065 25.553 16.9264C23.4704 14.2727 21.4682 14.1907 19.162 16.5423ZM8.38108 13.0509C8.15386 13.4165 7.67292 13.5283 7.30724 13.3012C6.94161 13.0739 6.8297 12.5929 7.05698 12.2273C7.63841 11.2962 8.70581 10.4322 9.83673 9.78776C11.1157 9.05879 12.5271 8.59086 13.4374 8.61207C13.8669 8.62215 14.207 8.97863 14.1969 9.40824C14.1869 9.83779 13.8304 10.1778 13.4008 10.1678C12.7579 10.1527 11.6608 10.5405 10.6055 11.142C9.67624 11.6717 8.81685 12.3531 8.38108 13.0509ZM12.1888 13.91C13.3478 13.91 14.2872 15.1108 14.2872 16.5923C14.2872 18.0738 13.3478 19.2748 12.1888 19.2748C11.0301 19.2748 10.0905 18.0738 10.0905 16.5923C10.0905 15.1108 11.0301 13.91 12.1888 13.91Z" fill="#ABADC7"/>
</svg>
