<svg width="25" height="25" viewBox="0 0 25 25" fill="none" xmlns="http://www.w3.org/2000/svg">
<path fill-rule="evenodd" clip-rule="evenodd" d="M13.1202 6.43829C11.3312 6.43829 10.0305 7.04133 9.68854 7.2693C9.26619 7.55088 8.69555 7.43675 8.41399 7.0144C8.13241 6.59205 8.24654 6.0214 8.6689 5.73984C9.31231 5.31089 10.9677 4.6001 13.1202 4.6001C15.2727 4.6001 16.9281 5.31089 17.5716 5.73984C17.9939 6.0214 18.108 6.59205 17.8265 7.0144C17.5449 7.43675 16.9742 7.55088 16.5519 7.2693C16.21 7.04133 14.9092 6.43829 13.1202 6.43829ZM13.1199 9.12408C12.5316 9.12408 11.8247 9.38746 11.5602 9.51973C11.1062 9.74675 10.5541 9.56272 10.3271 9.1087C10.1001 8.65469 10.2841 8.10261 10.7381 7.8756C11.1305 7.67943 12.1316 7.28589 13.1199 7.28589C14.1082 7.28589 15.1093 7.67943 15.5017 7.8756C15.9557 8.10261 16.1397 8.65469 15.9127 9.1087C15.6857 9.56272 15.1336 9.74675 14.6796 9.51973C14.4151 9.38746 13.7082 9.12408 13.1199 9.12408Z" fill="#5623D8"/>
<path fill-rule="evenodd" clip-rule="evenodd" d="M13.2954 10.8747C12.4223 10.8747 11.3732 11.2785 10.9806 11.4813C10.3068 11.8294 9.48745 11.5472 9.15054 10.8511C9.01845 10.5858 8.92114 10.4151 8.88205 10.3076C7.33091 10.6086 6.11145 11.8874 5.93107 13.5107L5.41751 18.1328C5.23159 19.806 6.54142 21.2695 8.22503 21.2695C9.29498 21.2695 10.2731 20.665 10.7516 19.708L11.1963 18.8185H14.8727L15.3174 19.708C15.7959 20.665 16.774 21.2695 17.844 21.2695C19.5276 21.2695 20.8374 19.806 20.6515 18.1328L20.1379 13.5107C19.9759 12.0525 18.9755 10.8723 17.6493 10.4292C17.6122 10.5247 17.5327 10.6599 17.4402 10.8511C17.1033 11.5472 16.2839 11.8294 15.6101 11.4813C15.2175 11.2785 14.1684 10.8747 13.2954 10.8747ZM10.5836 13.3039C10.5836 12.8809 10.2407 12.538 9.81768 12.538C9.39467 12.538 9.05176 12.8809 9.05176 13.3039V13.9678H8.38806C7.96507 13.9678 7.62215 14.3107 7.62215 14.7337C7.62215 15.1567 7.96507 15.4996 8.38806 15.4996H9.05176V16.1634C9.05176 16.5864 9.39467 16.9292 9.81768 16.9292C10.2407 16.9292 10.5836 16.5864 10.5836 16.1634V15.4996H11.2475C11.6705 15.4996 12.0134 15.1567 12.0134 14.7337C12.0134 14.3107 11.6705 13.9678 11.2475 13.9678H10.5836V13.3039ZM16.5769 15.4996C16.5769 15.9226 16.234 16.2655 15.811 16.2655C15.388 16.2655 15.045 15.9226 15.045 15.4996C15.045 15.0766 15.388 14.7337 15.811 14.7337C16.234 14.7337 16.5769 15.0766 16.5769 15.4996ZM17.3428 14.3667C17.7658 14.3667 18.1087 14.0238 18.1087 13.6007C18.1087 13.1777 17.7658 12.8348 17.3428 12.8348C16.9197 12.8348 16.5769 13.1777 16.5769 13.6007C16.5769 14.0238 16.9197 14.3667 17.3428 14.3667Z" fill="#ABADC7"/>
</svg>
