<svg width="14" height="14" viewBox="0 0 14 14" fill="none" xmlns="http://www.w3.org/2000/svg">
<path fill-rule="evenodd" clip-rule="evenodd" d="M7.25 13.75C10.9779 13.75 14 10.7279 14 7C14 3.27208 10.9779 0.25 7.25 0.25C3.52208 0.25 0.5 3.27208 0.5 7C0.5 10.7279 3.52208 13.75 7.25 13.75ZM5.36121 7.46023L5.27472 7.4282C4.65693 7.19939 4.34803 7.08498 4.20991 6.96451C3.75299 6.56598 3.75299 5.8558 4.20991 5.45727C4.34803 5.3368 4.65692 5.22239 5.27471 4.99358L5.27472 4.99358L7.30894 4.24016C8.87289 3.66092 9.65487 3.3713 10.1008 3.75C10.1261 3.77148 10.1503 3.7942 10.1734 3.81808C10.5795 4.23921 10.3399 5.03793 9.86065 6.63534L9.86064 6.63536L9.14271 9.02845L9.1427 9.02847C8.9861 9.55048 8.9078 9.81149 8.83817 9.92393C8.4472 10.5553 7.52877 10.5553 7.1378 9.92393C7.06816 9.81149 6.98986 9.55048 6.83326 9.02847L6.83325 9.02845L6.83324 9.02843L6.83324 9.02842C6.77578 8.83687 6.74704 8.74109 6.71119 8.653C6.5245 8.19425 6.17422 7.8211 5.7282 7.60578C5.64254 7.56443 5.54876 7.52969 5.36121 7.46023ZM4.58576 7.98157L5.08507 8.14801C5.38367 8.24755 5.61799 8.48186 5.71752 8.78047L5.88396 9.27978C5.94959 9.47668 5.92064 9.69285 5.80552 9.86554C5.54641 10.2542 4.94913 10.1507 4.83584 9.69757L4.76325 9.40719C4.72571 9.25705 4.60849 9.13982 4.45835 9.10229L4.16796 9.02969C3.7148 8.9164 3.61134 8.31912 4 8.06002C4.17269 7.94489 4.38886 7.91594 4.58576 7.98157Z" fill="#00A5FF"/>
</svg>
