<svg width="35" height="35" viewBox="0 0 35 35" fill="none" xmlns="http://www.w3.org/2000/svg">
<path fill-rule="evenodd" clip-rule="evenodd" d="M4.08824 4.08824C2.91667 5.25982 2.91667 7.14543 2.91667 10.9167V24.0833C2.91667 27.8546 2.91667 29.7402 4.08824 30.9118C5.25982 32.0833 7.14543 32.0833 10.9167 32.0833H24.0833C27.8546 32.0833 29.7402 32.0833 30.9118 30.9118C32.0833 29.7402 32.0833 27.8546 32.0833 24.0833V10.9167C32.0833 7.69682 32.0833 5.85151 31.3542 4.65157V24.7917C30.8325 24.7917 30.5717 24.7917 30.3218 24.7601C29.6114 24.6703 28.9381 24.3914 28.3722 23.9526C28.1732 23.7982 27.9888 23.6138 27.6199 23.2449L26.1618 21.7868C24.8284 20.4534 24.1618 19.7868 23.3333 19.7868C22.5049 19.7868 21.8382 20.4534 20.5049 21.7868L20.5049 21.7868L19.5888 22.7028C18.6424 23.6492 18.1692 24.1224 17.6482 24.0221C17.1272 23.9218 16.8636 23.3067 16.3363 22.0765L15.4523 20.0138C14.3979 17.5534 13.8706 16.3232 12.8286 16.1225C11.7865 15.9218 10.8401 16.8682 8.94733 18.761L5.10417 22.6042V3.41711C4.71025 3.58117 4.37749 3.799 4.08824 4.08824Z" fill="#ABADC7"/>
<path d="M3.91667 10.9166C3.91667 9.00273 3.9188 7.66792 4.0542 6.66078C4.18574 5.68242 4.42633 5.16432 4.79535 4.79531C5.16437 4.42629 5.68247 4.18569 6.66083 4.05416C7.66797 3.91875 9.00278 3.91663 10.9167 3.91663H24.0833C25.9972 3.91663 27.332 3.91875 28.3392 4.05416C29.3175 4.18569 29.8356 4.42629 30.2047 4.79531C30.5737 5.16432 30.8143 5.68242 30.9458 6.66079C31.0812 7.66792 31.0833 9.00274 31.0833 10.9166V24.0833C31.0833 25.9972 31.0812 27.332 30.9458 28.3391C30.8143 29.3175 30.5737 29.8356 30.2047 30.2046C29.8356 30.5736 29.3175 30.8142 28.3392 30.9458C27.332 31.0812 25.9972 31.0833 24.0833 31.0833H10.9167C9.00278 31.0833 7.66796 31.0812 6.66083 30.9458C5.68247 30.8142 5.16437 30.5736 4.79535 30.2046C4.42633 29.8356 4.18574 29.3175 4.0542 28.3391C3.9188 27.332 3.91667 25.9972 3.91667 24.0833V10.9166Z" stroke="#ABADC7" stroke-width="2"/>
<circle cx="21.875" cy="13.125" r="2.91667" fill="#ABADC7"/>
</svg>
