<svg width="20" height="20" viewBox="0 0 20 20" fill="none" xmlns="http://www.w3.org/2000/svg">
<path fill-rule="evenodd" clip-rule="evenodd" d="M10.1202 3.43829C8.33123 3.43829 7.0305 4.04133 6.68854 4.2693C6.26619 4.55088 5.69555 4.43675 5.41399 4.0144C5.13241 3.59205 5.24654 3.0214 5.6689 2.73984C6.31231 2.31089 7.96772 1.6001 10.1202 1.6001C12.2727 1.6001 13.9281 2.31089 14.5716 2.73984C14.9939 3.0214 15.108 3.59205 14.8265 4.0144C14.5449 4.43675 13.9742 4.55088 13.5519 4.2693C13.21 4.04133 11.9092 3.43829 10.1202 3.43829ZM10.1199 6.12408C9.53162 6.12408 8.82475 6.38746 8.56018 6.51973C8.10617 6.74675 7.5541 6.56272 7.32708 6.1087C7.10008 5.65469 7.28411 5.10261 7.73812 4.8756C8.13048 4.67943 9.13159 4.28589 10.1199 4.28589C11.1082 4.28589 12.1093 4.67943 12.5017 4.8756C12.9557 5.10261 13.1397 5.65469 12.9127 6.1087C12.6857 6.56272 12.1336 6.74675 11.6796 6.51973C11.4151 6.38746 10.7082 6.12408 10.1199 6.12408Z" fill="#5623D8"/>
<path fill-rule="evenodd" clip-rule="evenodd" d="M10.2954 7.87465C9.42228 7.87465 8.37321 8.27849 7.98057 8.48131C7.30678 8.8294 6.48745 8.54723 6.15054 7.85107C6.01845 7.58578 5.92114 7.41511 5.88205 7.30762C4.33091 7.6086 3.11145 8.88735 2.93107 10.5107L2.41751 15.1328C2.23159 16.806 3.54142 18.2695 5.22503 18.2695C6.29498 18.2695 7.2731 17.665 7.7516 16.708L8.19631 15.8185H11.8727L12.3174 16.708C12.7959 17.665 13.774 18.2695 14.844 18.2695C16.5276 18.2695 17.8374 16.806 17.6515 15.1328L17.1379 10.5107C16.9759 9.0525 15.9755 7.87235 14.6493 7.42917C14.6122 7.52474 14.5327 7.65994 14.4402 7.85107C14.1033 8.54723 13.2839 8.8294 12.6101 8.48131C12.2175 8.27849 11.1684 7.87465 10.2954 7.87465ZM7.58359 10.3039C7.58359 9.88094 7.24068 9.53803 6.81768 9.53803C6.39467 9.53803 6.05176 9.88094 6.05176 10.3039V10.9678H5.38806C4.96507 10.9678 4.62215 11.3107 4.62215 11.7337C4.62215 12.1567 4.96507 12.4996 5.38806 12.4996H6.05176V13.1634C6.05176 13.5864 6.39467 13.9292 6.81768 13.9292C7.24068 13.9292 7.58359 13.5864 7.58359 13.1634V12.4996H8.24749C8.67049 12.4996 9.0134 12.1567 9.0134 11.7337C9.0134 11.3107 8.67049 10.9678 8.24749 10.9678H7.58359V10.3039ZM13.5769 12.4996C13.5769 12.9226 13.234 13.2655 12.811 13.2655C12.388 13.2655 12.045 12.9226 12.045 12.4996C12.045 12.0766 12.388 11.7337 12.811 11.7337C13.234 11.7337 13.5769 12.0766 13.5769 12.4996ZM14.3428 11.3667C14.7658 11.3667 15.1087 11.0238 15.1087 10.6007C15.1087 10.1777 14.7658 9.83483 14.3428 9.83483C13.9197 9.83483 13.5769 10.1777 13.5769 10.6007C13.5769 11.0238 13.9197 11.3667 14.3428 11.3667Z" fill="#ABADC7"/>
</svg>
