<svg width="30" height="30" viewBox="0 0 35 35" fill="none" xmlns="http://www.w3.org/2000/svg">
<path fill-rule="evenodd" clip-rule="evenodd" d="M15.6615 17.9241L8.4356 15.5155L8.43559 15.5155C6.08237 14.7311 4.90576 14.3389 4.90576 13.6181C4.90576 12.8973 6.08237 12.5051 8.4356 11.7207L26.9064 5.56383C28.5622 5.0119 29.3901 4.73594 29.8271 5.17296C30.2641 5.60997 29.9881 6.43787 29.4362 8.09366L23.2793 26.5644C22.4949 28.9176 22.1027 30.0942 21.3819 30.0942C20.6611 30.0942 20.2689 28.9176 19.4845 26.5644L17.0758 19.3383L23.6422 12.7719C24.0327 12.3814 24.0327 11.7482 23.6422 11.3577C23.2517 10.9672 22.6185 10.9672 22.228 11.3577L15.6615 17.9241Z" fill="#ABADC7"/>
</svg>
