<svg width="25" height="25" viewBox="0 0 25 25" fill="none" xmlns="http://www.w3.org/2000/svg">
<path d="M9.28564 9.42854C9.28564 10.3379 9.64687 11.2099 10.2898 11.8529C10.9328 12.4959 11.8049 12.8571 12.7142 12.8571C13.6235 12.8571 14.4956 12.4959 15.1385 11.8529C15.7815 11.2099 16.1427 10.3379 16.1427 9.42854C16.1427 8.51924 15.7815 7.64717 15.1385 7.0042C14.4956 6.36122 13.6235 6 12.7142 6C11.8049 6 10.9328 6.36122 10.2898 7.0042C9.64687 7.64717 9.28564 8.51924 9.28564 9.42854Z" fill="#ABADC7"/>
<path d="M16.9999 15.9345C15.9529 14.7482 14.4209 14 12.7142 14C9.55836 14 7 16.5584 7 19.7143C7 20.0298 7.25584 20.2857 7.57142 20.2857H15.321C14.6184 19.8958 14.1428 19.1463 14.1428 18.2857C14.1428 17.0233 15.1661 16 16.4285 16H16.9999V15.9345Z" fill="#ABADC7"/>
<path fill-rule="evenodd" clip-rule="evenodd" d="M19.2858 14.5713C19.7592 14.5713 20.1429 14.955 20.1429 15.4284V17.4284H22.1429C22.6163 17.4284 23 17.8122 23 18.2855C23 18.7589 22.6163 19.1427 22.1429 19.1427H20.1429V21.1427C20.1429 21.616 19.7592 21.9998 19.2858 21.9998C18.8124 21.9998 18.4287 21.616 18.4287 21.1427V19.1427H16.4287C15.9553 19.1427 15.5715 18.7589 15.5715 18.2855C15.5715 17.8122 15.9553 17.4284 16.4287 17.4284H18.4287V15.4284C18.4287 14.955 18.8124 14.5713 19.2858 14.5713Z" fill="#5623D8"/>
</svg>
